%TF.GenerationSoftware,KiCad,Pcbnew,9.0.0*%
%TF.CreationDate,2025-07-15T18:26:09+02:00*%
%TF.ProjectId,RP2040,52503230-3430-42e6-9b69-6361645f7063,rev?*%
%TF.SameCoordinates,Original*%
%TF.FileFunction,Copper,L2,Inr*%
%TF.FilePolarity,Positive*%
%FSLAX46Y46*%
G04 Gerber Fmt 4.6, Leading zero omitted, Abs format (unit mm)*
G04 Created by KiCad (PCBNEW 9.0.0) date 2025-07-15 18:26:09*
%MOMM*%
%LPD*%
G01*
G04 APERTURE LIST*
%TA.AperFunction,ComponentPad*%
%ADD10R,1.700000X1.700000*%
%TD*%
%TA.AperFunction,ComponentPad*%
%ADD11O,1.700000X1.700000*%
%TD*%
%TA.AperFunction,HeatsinkPad*%
%ADD12O,1.150000X1.800000*%
%TD*%
%TA.AperFunction,HeatsinkPad*%
%ADD13O,1.450000X2.000000*%
%TD*%
%TA.AperFunction,ViaPad*%
%ADD14C,0.600000*%
%TD*%
G04 APERTURE END LIST*
D10*
%TO.N,GND*%
%TO.C,J1*%
X117660000Y-38800000D03*
D11*
%TO.N,+3V3*%
X120200000Y-38800000D03*
%TO.N,GND*%
X117660000Y-41340000D03*
%TO.N,GPIO0*%
X120200000Y-41340000D03*
%TO.N,GND*%
X117660000Y-43880000D03*
%TO.N,GPIO1*%
X120200000Y-43880000D03*
%TO.N,GND*%
X117660000Y-46420000D03*
%TO.N,GPIO2*%
X120200000Y-46420000D03*
%TO.N,GND*%
X117660000Y-48960000D03*
%TO.N,GPIO3*%
X120200000Y-48960000D03*
%TO.N,GND*%
X117660000Y-51500000D03*
%TO.N,GPIO4*%
X120200000Y-51500000D03*
%TO.N,GND*%
X117660000Y-54040000D03*
%TO.N,GPIO5*%
X120200000Y-54040000D03*
%TO.N,GND*%
X117660000Y-56580000D03*
%TO.N,GPIO6*%
X120200000Y-56580000D03*
%TO.N,GND*%
X117660000Y-59120000D03*
%TO.N,GPIO7*%
X120200000Y-59120000D03*
%TO.N,GND*%
X117660000Y-61660000D03*
%TO.N,GPIO8*%
X120200000Y-61660000D03*
%TO.N,GND*%
X117660000Y-64200000D03*
%TO.N,GPIO9*%
X120200000Y-64200000D03*
%TO.N,GND*%
X117660000Y-66740000D03*
%TO.N,GPIO10*%
X120200000Y-66740000D03*
%TO.N,GND*%
X117660000Y-69280000D03*
%TO.N,GPIO11*%
X120200000Y-69280000D03*
%TO.N,GND*%
X117660000Y-71820000D03*
%TO.N,GPIO12*%
X120200000Y-71820000D03*
%TO.N,GND*%
X117660000Y-74360000D03*
%TO.N,GPIO13*%
X120200000Y-74360000D03*
%TO.N,GND*%
X117660000Y-76900000D03*
%TO.N,GPIO14*%
X120200000Y-76900000D03*
%TO.N,GND*%
X117660000Y-79440000D03*
%TO.N,GPIO15*%
X120200000Y-79440000D03*
%TO.N,GND*%
X117660000Y-81980000D03*
X120200000Y-81980000D03*
%TD*%
D10*
%TO.N,SWCLK*%
%TO.C,SWD*%
X150005000Y-77340000D03*
D11*
%TO.N,SWD*%
X152545000Y-77340000D03*
%TO.N,GND*%
X155085000Y-77340000D03*
%TD*%
D10*
%TO.N,GND*%
%TO.C,J2*%
X178300000Y-82040000D03*
D11*
%TO.N,+3V3*%
X175760000Y-82040000D03*
%TO.N,GND*%
X178300000Y-79500000D03*
%TO.N,GPIO16*%
X175760000Y-79500000D03*
%TO.N,GND*%
X178300000Y-76960000D03*
%TO.N,GPIO17*%
X175760000Y-76960000D03*
%TO.N,GND*%
X178300000Y-74420000D03*
%TO.N,GPIO18*%
X175760000Y-74420000D03*
%TO.N,GND*%
X178300000Y-71880000D03*
%TO.N,GPIO19*%
X175760000Y-71880000D03*
%TO.N,GND*%
X178300000Y-69340000D03*
%TO.N,GPIO20*%
X175760000Y-69340000D03*
%TO.N,GND*%
X178300000Y-66800000D03*
%TO.N,GPIO21*%
X175760000Y-66800000D03*
%TO.N,GND*%
X178300000Y-64260000D03*
%TO.N,GPIO22*%
X175760000Y-64260000D03*
%TO.N,GND*%
X178300000Y-61720000D03*
%TO.N,GPIO23*%
X175760000Y-61720000D03*
%TO.N,GND*%
X178300000Y-59180000D03*
%TO.N,GPIO24*%
X175760000Y-59180000D03*
%TO.N,GND*%
X178300000Y-56640000D03*
%TO.N,GPIO25*%
X175760000Y-56640000D03*
%TO.N,GND*%
X178300000Y-54100000D03*
%TO.N,GPIO26_ADC0*%
X175760000Y-54100000D03*
%TO.N,GND*%
X178300000Y-51560000D03*
%TO.N,GPIO27_ADC1*%
X175760000Y-51560000D03*
%TO.N,GND*%
X178300000Y-49020000D03*
%TO.N,GPIO28_ADC2*%
X175760000Y-49020000D03*
%TO.N,GND*%
X178300000Y-46480000D03*
%TO.N,GPIO29_ADC3*%
X175760000Y-46480000D03*
%TO.N,GND*%
X178300000Y-43940000D03*
%TO.N,unconnected-(J2-Pin_32-Pad32)*%
X175760000Y-43940000D03*
%TO.N,GND*%
X178300000Y-41400000D03*
%TO.N,unconnected-(J2-Pin_34-Pad34)*%
X175760000Y-41400000D03*
%TO.N,GND*%
X178300000Y-38860000D03*
X175760000Y-38860000D03*
%TD*%
D12*
%TO.N,GND*%
%TO.C,USB*%
X154930000Y-35355000D03*
D13*
X154780000Y-39155000D03*
X147330000Y-39155000D03*
D12*
X147180000Y-35355000D03*
%TD*%
D14*
%TO.N,GND*%
X149530000Y-61080000D03*
X127425000Y-67325000D03*
X149540000Y-62020000D03*
X132760000Y-51405000D03*
X137590000Y-63370000D03*
X159240000Y-52230000D03*
X156790000Y-52110000D03*
X163110000Y-52200000D03*
X150585000Y-62020000D03*
X151600000Y-61990000D03*
X149597315Y-64635185D03*
X150570000Y-63020000D03*
X142770000Y-44570000D03*
X154260000Y-46440000D03*
X140960000Y-40600000D03*
X151590000Y-61150000D03*
X153980000Y-43660000D03*
X152280000Y-70860000D03*
X130280000Y-55540000D03*
X149135000Y-50900000D03*
X167120000Y-47920000D03*
X157600000Y-77380000D03*
X139920000Y-55870000D03*
X147425000Y-50960000D03*
X150560000Y-61140000D03*
X151600000Y-63020000D03*
X149770000Y-41190000D03*
X126710000Y-59990000D03*
X149530000Y-63070000D03*
X147517500Y-72910000D03*
%TO.N,+3V3*%
X162020000Y-71960000D03*
X151146290Y-59360491D03*
X150490000Y-64490000D03*
X153180000Y-59300000D03*
X147967668Y-63029497D03*
X148794923Y-59520000D03*
X153160000Y-63020000D03*
%TO.N,+1V1*%
X150520000Y-69320000D03*
X152240000Y-64130000D03*
X150385000Y-59805000D03*
X152426391Y-59982128D03*
X151800000Y-69310000D03*
%TO.N,Net-(SW2-B)*%
X157630000Y-56310000D03*
X156010000Y-67660000D03*
%TO.N,VBUS*%
X123830000Y-51320000D03*
X148200000Y-43650000D03*
%TO.N,GPIO8*%
X137830000Y-62060000D03*
X123610000Y-62520000D03*
%TO.N,GPIO7*%
X123790000Y-60550000D03*
X137860000Y-60560000D03*
%TO.N,GPIO6*%
X123960000Y-58470000D03*
X137349944Y-59943683D03*
%TO.N,GPIO9*%
X135100000Y-65250000D03*
X138955735Y-63344265D03*
%TO.N,GPIO5*%
X137340000Y-58660000D03*
X126180000Y-57450000D03*
%TO.N,GPIO4*%
X137275347Y-57862614D03*
X127150000Y-57410000D03*
%TO.N,GPIO0*%
X127490000Y-47170000D03*
X143065735Y-59074265D03*
%TO.N,GPIO1*%
X131750000Y-52330000D03*
X148140000Y-60210000D03*
%TO.N,QSPI_SD2*%
X143225000Y-52505000D03*
X137120000Y-50130000D03*
%TO.N,QSPI_SD1*%
X139270000Y-53400000D03*
X141300000Y-53370000D03*
%TD*%
%TA.AperFunction,Conductor*%
%TO.N,GND*%
G36*
X178550000Y-81606988D02*
G01*
X178492993Y-81574075D01*
X178365826Y-81540000D01*
X178234174Y-81540000D01*
X178107007Y-81574075D01*
X178050000Y-81606988D01*
X178050000Y-79933012D01*
X178107007Y-79965925D01*
X178234174Y-80000000D01*
X178365826Y-80000000D01*
X178492993Y-79965925D01*
X178550000Y-79933012D01*
X178550000Y-81606988D01*
G37*
%TD.AperFunction*%
%TA.AperFunction,Conductor*%
G36*
X178550000Y-79066988D02*
G01*
X178492993Y-79034075D01*
X178365826Y-79000000D01*
X178234174Y-79000000D01*
X178107007Y-79034075D01*
X178050000Y-79066988D01*
X178050000Y-77393012D01*
X178107007Y-77425925D01*
X178234174Y-77460000D01*
X178365826Y-77460000D01*
X178492993Y-77425925D01*
X178550000Y-77393012D01*
X178550000Y-79066988D01*
G37*
%TD.AperFunction*%
%TA.AperFunction,Conductor*%
G36*
X178550000Y-76526988D02*
G01*
X178492993Y-76494075D01*
X178365826Y-76460000D01*
X178234174Y-76460000D01*
X178107007Y-76494075D01*
X178050000Y-76526988D01*
X178050000Y-74853012D01*
X178107007Y-74885925D01*
X178234174Y-74920000D01*
X178365826Y-74920000D01*
X178492993Y-74885925D01*
X178550000Y-74853012D01*
X178550000Y-76526988D01*
G37*
%TD.AperFunction*%
%TA.AperFunction,Conductor*%
G36*
X178550000Y-73986988D02*
G01*
X178492993Y-73954075D01*
X178365826Y-73920000D01*
X178234174Y-73920000D01*
X178107007Y-73954075D01*
X178050000Y-73986988D01*
X178050000Y-72313012D01*
X178107007Y-72345925D01*
X178234174Y-72380000D01*
X178365826Y-72380000D01*
X178492993Y-72345925D01*
X178550000Y-72313012D01*
X178550000Y-73986988D01*
G37*
%TD.AperFunction*%
%TA.AperFunction,Conductor*%
G36*
X178550000Y-71446988D02*
G01*
X178492993Y-71414075D01*
X178365826Y-71380000D01*
X178234174Y-71380000D01*
X178107007Y-71414075D01*
X178050000Y-71446988D01*
X178050000Y-69773012D01*
X178107007Y-69805925D01*
X178234174Y-69840000D01*
X178365826Y-69840000D01*
X178492993Y-69805925D01*
X178550000Y-69773012D01*
X178550000Y-71446988D01*
G37*
%TD.AperFunction*%
%TA.AperFunction,Conductor*%
G36*
X178550000Y-68906988D02*
G01*
X178492993Y-68874075D01*
X178365826Y-68840000D01*
X178234174Y-68840000D01*
X178107007Y-68874075D01*
X178050000Y-68906988D01*
X178050000Y-67233012D01*
X178107007Y-67265925D01*
X178234174Y-67300000D01*
X178365826Y-67300000D01*
X178492993Y-67265925D01*
X178550000Y-67233012D01*
X178550000Y-68906988D01*
G37*
%TD.AperFunction*%
%TA.AperFunction,Conductor*%
G36*
X178550000Y-66366988D02*
G01*
X178492993Y-66334075D01*
X178365826Y-66300000D01*
X178234174Y-66300000D01*
X178107007Y-66334075D01*
X178050000Y-66366988D01*
X178050000Y-64693012D01*
X178107007Y-64725925D01*
X178234174Y-64760000D01*
X178365826Y-64760000D01*
X178492993Y-64725925D01*
X178550000Y-64693012D01*
X178550000Y-66366988D01*
G37*
%TD.AperFunction*%
%TA.AperFunction,Conductor*%
G36*
X178550000Y-63826988D02*
G01*
X178492993Y-63794075D01*
X178365826Y-63760000D01*
X178234174Y-63760000D01*
X178107007Y-63794075D01*
X178050000Y-63826988D01*
X178050000Y-62153012D01*
X178107007Y-62185925D01*
X178234174Y-62220000D01*
X178365826Y-62220000D01*
X178492993Y-62185925D01*
X178550000Y-62153012D01*
X178550000Y-63826988D01*
G37*
%TD.AperFunction*%
%TA.AperFunction,Conductor*%
G36*
X178550000Y-61286988D02*
G01*
X178492993Y-61254075D01*
X178365826Y-61220000D01*
X178234174Y-61220000D01*
X178107007Y-61254075D01*
X178050000Y-61286988D01*
X178050000Y-59613012D01*
X178107007Y-59645925D01*
X178234174Y-59680000D01*
X178365826Y-59680000D01*
X178492993Y-59645925D01*
X178550000Y-59613012D01*
X178550000Y-61286988D01*
G37*
%TD.AperFunction*%
%TA.AperFunction,Conductor*%
G36*
X178550000Y-58746988D02*
G01*
X178492993Y-58714075D01*
X178365826Y-58680000D01*
X178234174Y-58680000D01*
X178107007Y-58714075D01*
X178050000Y-58746988D01*
X178050000Y-57073012D01*
X178107007Y-57105925D01*
X178234174Y-57140000D01*
X178365826Y-57140000D01*
X178492993Y-57105925D01*
X178550000Y-57073012D01*
X178550000Y-58746988D01*
G37*
%TD.AperFunction*%
%TA.AperFunction,Conductor*%
G36*
X178550000Y-56206988D02*
G01*
X178492993Y-56174075D01*
X178365826Y-56140000D01*
X178234174Y-56140000D01*
X178107007Y-56174075D01*
X178050000Y-56206988D01*
X178050000Y-54533012D01*
X178107007Y-54565925D01*
X178234174Y-54600000D01*
X178365826Y-54600000D01*
X178492993Y-54565925D01*
X178550000Y-54533012D01*
X178550000Y-56206988D01*
G37*
%TD.AperFunction*%
%TA.AperFunction,Conductor*%
G36*
X178550000Y-53666988D02*
G01*
X178492993Y-53634075D01*
X178365826Y-53600000D01*
X178234174Y-53600000D01*
X178107007Y-53634075D01*
X178050000Y-53666988D01*
X178050000Y-51993012D01*
X178107007Y-52025925D01*
X178234174Y-52060000D01*
X178365826Y-52060000D01*
X178492993Y-52025925D01*
X178550000Y-51993012D01*
X178550000Y-53666988D01*
G37*
%TD.AperFunction*%
%TA.AperFunction,Conductor*%
G36*
X178550000Y-51126988D02*
G01*
X178492993Y-51094075D01*
X178365826Y-51060000D01*
X178234174Y-51060000D01*
X178107007Y-51094075D01*
X178050000Y-51126988D01*
X178050000Y-49453012D01*
X178107007Y-49485925D01*
X178234174Y-49520000D01*
X178365826Y-49520000D01*
X178492993Y-49485925D01*
X178550000Y-49453012D01*
X178550000Y-51126988D01*
G37*
%TD.AperFunction*%
%TA.AperFunction,Conductor*%
G36*
X178550000Y-48586988D02*
G01*
X178492993Y-48554075D01*
X178365826Y-48520000D01*
X178234174Y-48520000D01*
X178107007Y-48554075D01*
X178050000Y-48586988D01*
X178050000Y-46913012D01*
X178107007Y-46945925D01*
X178234174Y-46980000D01*
X178365826Y-46980000D01*
X178492993Y-46945925D01*
X178550000Y-46913012D01*
X178550000Y-48586988D01*
G37*
%TD.AperFunction*%
%TA.AperFunction,Conductor*%
G36*
X178550000Y-46046988D02*
G01*
X178492993Y-46014075D01*
X178365826Y-45980000D01*
X178234174Y-45980000D01*
X178107007Y-46014075D01*
X178050000Y-46046988D01*
X178050000Y-44373012D01*
X178107007Y-44405925D01*
X178234174Y-44440000D01*
X178365826Y-44440000D01*
X178492993Y-44405925D01*
X178550000Y-44373012D01*
X178550000Y-46046988D01*
G37*
%TD.AperFunction*%
%TA.AperFunction,Conductor*%
G36*
X178550000Y-43506988D02*
G01*
X178492993Y-43474075D01*
X178365826Y-43440000D01*
X178234174Y-43440000D01*
X178107007Y-43474075D01*
X178050000Y-43506988D01*
X178050000Y-41833012D01*
X178107007Y-41865925D01*
X178234174Y-41900000D01*
X178365826Y-41900000D01*
X178492993Y-41865925D01*
X178550000Y-41833012D01*
X178550000Y-43506988D01*
G37*
%TD.AperFunction*%
%TA.AperFunction,Conductor*%
G36*
X178550000Y-40966988D02*
G01*
X178492993Y-40934075D01*
X178365826Y-40900000D01*
X178234174Y-40900000D01*
X178107007Y-40934075D01*
X178050000Y-40966988D01*
X178050000Y-39293012D01*
X178107007Y-39325925D01*
X178234174Y-39360000D01*
X178365826Y-39360000D01*
X178492993Y-39325925D01*
X178550000Y-39293012D01*
X178550000Y-40966988D01*
G37*
%TD.AperFunction*%
%TA.AperFunction,Conductor*%
G36*
X177834075Y-38667007D02*
G01*
X177800000Y-38794174D01*
X177800000Y-38925826D01*
X177834075Y-39052993D01*
X177866988Y-39110000D01*
X176193012Y-39110000D01*
X176225925Y-39052993D01*
X176260000Y-38925826D01*
X176260000Y-38794174D01*
X176225925Y-38667007D01*
X176193012Y-38610000D01*
X177866988Y-38610000D01*
X177834075Y-38667007D01*
G37*
%TD.AperFunction*%
%TA.AperFunction,Conductor*%
G36*
X119734075Y-81787007D02*
G01*
X119700000Y-81914174D01*
X119700000Y-82045826D01*
X119734075Y-82172993D01*
X119766988Y-82230000D01*
X118093012Y-82230000D01*
X118125925Y-82172993D01*
X118160000Y-82045826D01*
X118160000Y-81914174D01*
X118125925Y-81787007D01*
X118093012Y-81730000D01*
X119766988Y-81730000D01*
X119734075Y-81787007D01*
G37*
%TD.AperFunction*%
%TA.AperFunction,Conductor*%
G36*
X117910000Y-81546988D02*
G01*
X117852993Y-81514075D01*
X117725826Y-81480000D01*
X117594174Y-81480000D01*
X117467007Y-81514075D01*
X117410000Y-81546988D01*
X117410000Y-79873012D01*
X117467007Y-79905925D01*
X117594174Y-79940000D01*
X117725826Y-79940000D01*
X117852993Y-79905925D01*
X117910000Y-79873012D01*
X117910000Y-81546988D01*
G37*
%TD.AperFunction*%
%TA.AperFunction,Conductor*%
G36*
X117910000Y-79006988D02*
G01*
X117852993Y-78974075D01*
X117725826Y-78940000D01*
X117594174Y-78940000D01*
X117467007Y-78974075D01*
X117410000Y-79006988D01*
X117410000Y-77333012D01*
X117467007Y-77365925D01*
X117594174Y-77400000D01*
X117725826Y-77400000D01*
X117852993Y-77365925D01*
X117910000Y-77333012D01*
X117910000Y-79006988D01*
G37*
%TD.AperFunction*%
%TA.AperFunction,Conductor*%
G36*
X117910000Y-76466988D02*
G01*
X117852993Y-76434075D01*
X117725826Y-76400000D01*
X117594174Y-76400000D01*
X117467007Y-76434075D01*
X117410000Y-76466988D01*
X117410000Y-74793012D01*
X117467007Y-74825925D01*
X117594174Y-74860000D01*
X117725826Y-74860000D01*
X117852993Y-74825925D01*
X117910000Y-74793012D01*
X117910000Y-76466988D01*
G37*
%TD.AperFunction*%
%TA.AperFunction,Conductor*%
G36*
X117910000Y-73926988D02*
G01*
X117852993Y-73894075D01*
X117725826Y-73860000D01*
X117594174Y-73860000D01*
X117467007Y-73894075D01*
X117410000Y-73926988D01*
X117410000Y-72253012D01*
X117467007Y-72285925D01*
X117594174Y-72320000D01*
X117725826Y-72320000D01*
X117852993Y-72285925D01*
X117910000Y-72253012D01*
X117910000Y-73926988D01*
G37*
%TD.AperFunction*%
%TA.AperFunction,Conductor*%
G36*
X117910000Y-71386988D02*
G01*
X117852993Y-71354075D01*
X117725826Y-71320000D01*
X117594174Y-71320000D01*
X117467007Y-71354075D01*
X117410000Y-71386988D01*
X117410000Y-69713012D01*
X117467007Y-69745925D01*
X117594174Y-69780000D01*
X117725826Y-69780000D01*
X117852993Y-69745925D01*
X117910000Y-69713012D01*
X117910000Y-71386988D01*
G37*
%TD.AperFunction*%
%TA.AperFunction,Conductor*%
G36*
X117910000Y-68846988D02*
G01*
X117852993Y-68814075D01*
X117725826Y-68780000D01*
X117594174Y-68780000D01*
X117467007Y-68814075D01*
X117410000Y-68846988D01*
X117410000Y-67173012D01*
X117467007Y-67205925D01*
X117594174Y-67240000D01*
X117725826Y-67240000D01*
X117852993Y-67205925D01*
X117910000Y-67173012D01*
X117910000Y-68846988D01*
G37*
%TD.AperFunction*%
%TA.AperFunction,Conductor*%
G36*
X117910000Y-66306988D02*
G01*
X117852993Y-66274075D01*
X117725826Y-66240000D01*
X117594174Y-66240000D01*
X117467007Y-66274075D01*
X117410000Y-66306988D01*
X117410000Y-64633012D01*
X117467007Y-64665925D01*
X117594174Y-64700000D01*
X117725826Y-64700000D01*
X117852993Y-64665925D01*
X117910000Y-64633012D01*
X117910000Y-66306988D01*
G37*
%TD.AperFunction*%
%TA.AperFunction,Conductor*%
G36*
X117910000Y-63766988D02*
G01*
X117852993Y-63734075D01*
X117725826Y-63700000D01*
X117594174Y-63700000D01*
X117467007Y-63734075D01*
X117410000Y-63766988D01*
X117410000Y-62093012D01*
X117467007Y-62125925D01*
X117594174Y-62160000D01*
X117725826Y-62160000D01*
X117852993Y-62125925D01*
X117910000Y-62093012D01*
X117910000Y-63766988D01*
G37*
%TD.AperFunction*%
%TA.AperFunction,Conductor*%
G36*
X117910000Y-61226988D02*
G01*
X117852993Y-61194075D01*
X117725826Y-61160000D01*
X117594174Y-61160000D01*
X117467007Y-61194075D01*
X117410000Y-61226988D01*
X117410000Y-59553012D01*
X117467007Y-59585925D01*
X117594174Y-59620000D01*
X117725826Y-59620000D01*
X117852993Y-59585925D01*
X117910000Y-59553012D01*
X117910000Y-61226988D01*
G37*
%TD.AperFunction*%
%TA.AperFunction,Conductor*%
G36*
X117910000Y-58686988D02*
G01*
X117852993Y-58654075D01*
X117725826Y-58620000D01*
X117594174Y-58620000D01*
X117467007Y-58654075D01*
X117410000Y-58686988D01*
X117410000Y-57013012D01*
X117467007Y-57045925D01*
X117594174Y-57080000D01*
X117725826Y-57080000D01*
X117852993Y-57045925D01*
X117910000Y-57013012D01*
X117910000Y-58686988D01*
G37*
%TD.AperFunction*%
%TA.AperFunction,Conductor*%
G36*
X117910000Y-56146988D02*
G01*
X117852993Y-56114075D01*
X117725826Y-56080000D01*
X117594174Y-56080000D01*
X117467007Y-56114075D01*
X117410000Y-56146988D01*
X117410000Y-54473012D01*
X117467007Y-54505925D01*
X117594174Y-54540000D01*
X117725826Y-54540000D01*
X117852993Y-54505925D01*
X117910000Y-54473012D01*
X117910000Y-56146988D01*
G37*
%TD.AperFunction*%
%TA.AperFunction,Conductor*%
G36*
X117910000Y-53606988D02*
G01*
X117852993Y-53574075D01*
X117725826Y-53540000D01*
X117594174Y-53540000D01*
X117467007Y-53574075D01*
X117410000Y-53606988D01*
X117410000Y-51933012D01*
X117467007Y-51965925D01*
X117594174Y-52000000D01*
X117725826Y-52000000D01*
X117852993Y-51965925D01*
X117910000Y-51933012D01*
X117910000Y-53606988D01*
G37*
%TD.AperFunction*%
%TA.AperFunction,Conductor*%
G36*
X117910000Y-51066988D02*
G01*
X117852993Y-51034075D01*
X117725826Y-51000000D01*
X117594174Y-51000000D01*
X117467007Y-51034075D01*
X117410000Y-51066988D01*
X117410000Y-49393012D01*
X117467007Y-49425925D01*
X117594174Y-49460000D01*
X117725826Y-49460000D01*
X117852993Y-49425925D01*
X117910000Y-49393012D01*
X117910000Y-51066988D01*
G37*
%TD.AperFunction*%
%TA.AperFunction,Conductor*%
G36*
X117910000Y-48526988D02*
G01*
X117852993Y-48494075D01*
X117725826Y-48460000D01*
X117594174Y-48460000D01*
X117467007Y-48494075D01*
X117410000Y-48526988D01*
X117410000Y-46853012D01*
X117467007Y-46885925D01*
X117594174Y-46920000D01*
X117725826Y-46920000D01*
X117852993Y-46885925D01*
X117910000Y-46853012D01*
X117910000Y-48526988D01*
G37*
%TD.AperFunction*%
%TA.AperFunction,Conductor*%
G36*
X117910000Y-45986988D02*
G01*
X117852993Y-45954075D01*
X117725826Y-45920000D01*
X117594174Y-45920000D01*
X117467007Y-45954075D01*
X117410000Y-45986988D01*
X117410000Y-44313012D01*
X117467007Y-44345925D01*
X117594174Y-44380000D01*
X117725826Y-44380000D01*
X117852993Y-44345925D01*
X117910000Y-44313012D01*
X117910000Y-45986988D01*
G37*
%TD.AperFunction*%
%TA.AperFunction,Conductor*%
G36*
X117910000Y-43446988D02*
G01*
X117852993Y-43414075D01*
X117725826Y-43380000D01*
X117594174Y-43380000D01*
X117467007Y-43414075D01*
X117410000Y-43446988D01*
X117410000Y-41773012D01*
X117467007Y-41805925D01*
X117594174Y-41840000D01*
X117725826Y-41840000D01*
X117852993Y-41805925D01*
X117910000Y-41773012D01*
X117910000Y-43446988D01*
G37*
%TD.AperFunction*%
%TA.AperFunction,Conductor*%
G36*
X117910000Y-40906988D02*
G01*
X117852993Y-40874075D01*
X117725826Y-40840000D01*
X117594174Y-40840000D01*
X117467007Y-40874075D01*
X117410000Y-40906988D01*
X117410000Y-39233012D01*
X117467007Y-39265925D01*
X117594174Y-39300000D01*
X117725826Y-39300000D01*
X117852993Y-39265925D01*
X117910000Y-39233012D01*
X117910000Y-40906988D01*
G37*
%TD.AperFunction*%
%TA.AperFunction,Conductor*%
G36*
X146158935Y-34420185D02*
G01*
X146204690Y-34472989D01*
X146214634Y-34542147D01*
X146202381Y-34580795D01*
X146183760Y-34617340D01*
X146131469Y-34778273D01*
X146105000Y-34945390D01*
X146105000Y-35105000D01*
X146905000Y-35105000D01*
X146905000Y-35605000D01*
X146105000Y-35605000D01*
X146105000Y-35764609D01*
X146131469Y-35931726D01*
X146183760Y-36092659D01*
X146260578Y-36243423D01*
X146360038Y-36380316D01*
X146360038Y-36380317D01*
X146479682Y-36499961D01*
X146616576Y-36599421D01*
X146767340Y-36676239D01*
X146928273Y-36728530D01*
X146930000Y-36728804D01*
X146930000Y-35795056D01*
X146946866Y-35835775D01*
X147024225Y-35913134D01*
X147125299Y-35955000D01*
X147234701Y-35955000D01*
X147335775Y-35913134D01*
X147413134Y-35835775D01*
X147430000Y-35795056D01*
X147430000Y-36728804D01*
X147431726Y-36728530D01*
X147592659Y-36676239D01*
X147743423Y-36599421D01*
X147880316Y-36499961D01*
X147880317Y-36499961D01*
X147999961Y-36380317D01*
X147999961Y-36380316D01*
X148099421Y-36243423D01*
X148176239Y-36092659D01*
X148228530Y-35931726D01*
X148255000Y-35764609D01*
X148255000Y-35605000D01*
X147455000Y-35605000D01*
X147455000Y-35105000D01*
X148255000Y-35105000D01*
X148255000Y-34945390D01*
X148228530Y-34778273D01*
X148176239Y-34617340D01*
X148157619Y-34580795D01*
X148144723Y-34512126D01*
X148170999Y-34447385D01*
X148228106Y-34407128D01*
X148268104Y-34400500D01*
X153841896Y-34400500D01*
X153908935Y-34420185D01*
X153954690Y-34472989D01*
X153964634Y-34542147D01*
X153952381Y-34580795D01*
X153933760Y-34617340D01*
X153881469Y-34778273D01*
X153855000Y-34945390D01*
X153855000Y-35105000D01*
X154655000Y-35105000D01*
X154655000Y-35605000D01*
X153855000Y-35605000D01*
X153855000Y-35764609D01*
X153881469Y-35931726D01*
X153933760Y-36092659D01*
X154010578Y-36243423D01*
X154110038Y-36380316D01*
X154110038Y-36380317D01*
X154229682Y-36499961D01*
X154366576Y-36599421D01*
X154517340Y-36676239D01*
X154678273Y-36728530D01*
X154680000Y-36728804D01*
X154680000Y-35795056D01*
X154696866Y-35835775D01*
X154774225Y-35913134D01*
X154875299Y-35955000D01*
X154984701Y-35955000D01*
X155085775Y-35913134D01*
X155163134Y-35835775D01*
X155180000Y-35795056D01*
X155180000Y-36728803D01*
X155181726Y-36728530D01*
X155342659Y-36676239D01*
X155493423Y-36599421D01*
X155630316Y-36499961D01*
X155630317Y-36499961D01*
X155749961Y-36380317D01*
X155749961Y-36380316D01*
X155849421Y-36243423D01*
X155926239Y-36092659D01*
X155978530Y-35931726D01*
X156005000Y-35764609D01*
X156005000Y-35605000D01*
X155205000Y-35605000D01*
X155205000Y-35105000D01*
X156005000Y-35105000D01*
X156005000Y-34945390D01*
X155978530Y-34778273D01*
X155926239Y-34617340D01*
X155907619Y-34580795D01*
X155894723Y-34512126D01*
X155920999Y-34447385D01*
X155978106Y-34407128D01*
X156018104Y-34400500D01*
X177834108Y-34400500D01*
X177896249Y-34400500D01*
X177903736Y-34400726D01*
X178193796Y-34418271D01*
X178208657Y-34420075D01*
X178357679Y-34447385D01*
X178490798Y-34471780D01*
X178505335Y-34475363D01*
X178779172Y-34560695D01*
X178793163Y-34566000D01*
X179054743Y-34683727D01*
X179067989Y-34690680D01*
X179313465Y-34839075D01*
X179325776Y-34847573D01*
X179450631Y-34945390D01*
X179551573Y-35024473D01*
X179562781Y-35034403D01*
X179765596Y-35237218D01*
X179775526Y-35248426D01*
X179895481Y-35401538D01*
X179952422Y-35474217D01*
X179960928Y-35486540D01*
X180109316Y-35732004D01*
X180116275Y-35745263D01*
X180233997Y-36006831D01*
X180239306Y-36020832D01*
X180324635Y-36294663D01*
X180328219Y-36309201D01*
X180379923Y-36591340D01*
X180381728Y-36606205D01*
X180399274Y-36896263D01*
X180399500Y-36903750D01*
X180399500Y-83996249D01*
X180399274Y-84003736D01*
X180381728Y-84293794D01*
X180379923Y-84308659D01*
X180328219Y-84590798D01*
X180324635Y-84605336D01*
X180239306Y-84879167D01*
X180233997Y-84893168D01*
X180116275Y-85154736D01*
X180109316Y-85167995D01*
X179960928Y-85413459D01*
X179952422Y-85425782D01*
X179775526Y-85651573D01*
X179765596Y-85662781D01*
X179562781Y-85865596D01*
X179551573Y-85875526D01*
X179325782Y-86052422D01*
X179313459Y-86060928D01*
X179067995Y-86209316D01*
X179054736Y-86216275D01*
X178793168Y-86333997D01*
X178779167Y-86339306D01*
X178505336Y-86424635D01*
X178490798Y-86428219D01*
X178208659Y-86479923D01*
X178193794Y-86481728D01*
X177903736Y-86499274D01*
X177896249Y-86499500D01*
X118203751Y-86499500D01*
X118196264Y-86499274D01*
X117906205Y-86481728D01*
X117891340Y-86479923D01*
X117609201Y-86428219D01*
X117594663Y-86424635D01*
X117320832Y-86339306D01*
X117306831Y-86333997D01*
X117045263Y-86216275D01*
X117032004Y-86209316D01*
X116786540Y-86060928D01*
X116774217Y-86052422D01*
X116548426Y-85875526D01*
X116537218Y-85865596D01*
X116334403Y-85662781D01*
X116324473Y-85651573D01*
X116147573Y-85425776D01*
X116139075Y-85413465D01*
X115990680Y-85167989D01*
X115983727Y-85154743D01*
X115866000Y-84893163D01*
X115860693Y-84879167D01*
X115819576Y-84747219D01*
X115775363Y-84605335D01*
X115771780Y-84590798D01*
X115720076Y-84308659D01*
X115718271Y-84293794D01*
X115700726Y-84003736D01*
X115700500Y-83996249D01*
X115700500Y-83797648D01*
X126299500Y-83797648D01*
X126299500Y-84002351D01*
X126331522Y-84204534D01*
X126394781Y-84399223D01*
X126487715Y-84581613D01*
X126608028Y-84747213D01*
X126752786Y-84891971D01*
X126907749Y-85004556D01*
X126918390Y-85012287D01*
X127034607Y-85071503D01*
X127100776Y-85105218D01*
X127100778Y-85105218D01*
X127100781Y-85105220D01*
X127205137Y-85139127D01*
X127295465Y-85168477D01*
X127372669Y-85180705D01*
X127497648Y-85200500D01*
X127497649Y-85200500D01*
X127702351Y-85200500D01*
X127702352Y-85200500D01*
X127904534Y-85168477D01*
X128099219Y-85105220D01*
X128281610Y-85012287D01*
X128445565Y-84893168D01*
X128447213Y-84891971D01*
X128447215Y-84891968D01*
X128447219Y-84891966D01*
X128591966Y-84747219D01*
X128591968Y-84747215D01*
X128591971Y-84747213D01*
X128695049Y-84605336D01*
X128712287Y-84581610D01*
X128805220Y-84399219D01*
X128868477Y-84204534D01*
X128900500Y-84002352D01*
X128900500Y-83797648D01*
X165699500Y-83797648D01*
X165699500Y-84002351D01*
X165731522Y-84204534D01*
X165794781Y-84399223D01*
X165887715Y-84581613D01*
X166008028Y-84747213D01*
X166152786Y-84891971D01*
X166307749Y-85004556D01*
X166318390Y-85012287D01*
X166434607Y-85071503D01*
X166500776Y-85105218D01*
X166500778Y-85105218D01*
X166500781Y-85105220D01*
X166605137Y-85139127D01*
X166695465Y-85168477D01*
X166772669Y-85180705D01*
X166897648Y-85200500D01*
X166897649Y-85200500D01*
X167102351Y-85200500D01*
X167102352Y-85200500D01*
X167304534Y-85168477D01*
X167499219Y-85105220D01*
X167681610Y-85012287D01*
X167845565Y-84893168D01*
X167847213Y-84891971D01*
X167847215Y-84891968D01*
X167847219Y-84891966D01*
X167991966Y-84747219D01*
X167991968Y-84747215D01*
X167991971Y-84747213D01*
X168095049Y-84605336D01*
X168112287Y-84581610D01*
X168205220Y-84399219D01*
X168268477Y-84204534D01*
X168300500Y-84002352D01*
X168300500Y-83797648D01*
X168268477Y-83595466D01*
X168205220Y-83400781D01*
X168205218Y-83400778D01*
X168205218Y-83400776D01*
X168152217Y-83296757D01*
X168112287Y-83218390D01*
X168095328Y-83195048D01*
X167991971Y-83052786D01*
X167847213Y-82908028D01*
X167681613Y-82787715D01*
X167681612Y-82787714D01*
X167681610Y-82787713D01*
X167603308Y-82747816D01*
X167499223Y-82694781D01*
X167304534Y-82631522D01*
X167129995Y-82603878D01*
X167102352Y-82599500D01*
X166897648Y-82599500D01*
X166873329Y-82603351D01*
X166695465Y-82631522D01*
X166500776Y-82694781D01*
X166318386Y-82787715D01*
X166152786Y-82908028D01*
X166008028Y-83052786D01*
X165887715Y-83218386D01*
X165794781Y-83400776D01*
X165731522Y-83595465D01*
X165699500Y-83797648D01*
X128900500Y-83797648D01*
X128868477Y-83595466D01*
X128805220Y-83400781D01*
X128805218Y-83400778D01*
X128805218Y-83400776D01*
X128752217Y-83296757D01*
X128712287Y-83218390D01*
X128695328Y-83195048D01*
X128591971Y-83052786D01*
X128447213Y-82908028D01*
X128281613Y-82787715D01*
X128281612Y-82787714D01*
X128281610Y-82787713D01*
X128203308Y-82747816D01*
X128099223Y-82694781D01*
X127904534Y-82631522D01*
X127729995Y-82603878D01*
X127702352Y-82599500D01*
X127497648Y-82599500D01*
X127473329Y-82603351D01*
X127295465Y-82631522D01*
X127100776Y-82694781D01*
X126918386Y-82787715D01*
X126752786Y-82908028D01*
X126608028Y-83052786D01*
X126487715Y-83218386D01*
X126394781Y-83400776D01*
X126331522Y-83595465D01*
X126299500Y-83797648D01*
X115700500Y-83797648D01*
X115700500Y-37902155D01*
X116310000Y-37902155D01*
X116310000Y-38550000D01*
X117226988Y-38550000D01*
X117194075Y-38607007D01*
X117160000Y-38734174D01*
X117160000Y-38865826D01*
X117194075Y-38992993D01*
X117226988Y-39050000D01*
X116310000Y-39050000D01*
X116310000Y-39697844D01*
X116316401Y-39757372D01*
X116316403Y-39757379D01*
X116366645Y-39892086D01*
X116366649Y-39892093D01*
X116452809Y-40007187D01*
X116452812Y-40007190D01*
X116567906Y-40093350D01*
X116567913Y-40093354D01*
X116699986Y-40142614D01*
X116755920Y-40184485D01*
X116780337Y-40249949D01*
X116765486Y-40318222D01*
X116744335Y-40346477D01*
X116630271Y-40460541D01*
X116505379Y-40632442D01*
X116408904Y-40821782D01*
X116343242Y-41023870D01*
X116343242Y-41023873D01*
X116332769Y-41090000D01*
X117226988Y-41090000D01*
X117194075Y-41147007D01*
X117160000Y-41274174D01*
X117160000Y-41405826D01*
X117194075Y-41532993D01*
X117226988Y-41590000D01*
X116332769Y-41590000D01*
X116343242Y-41656126D01*
X116343242Y-41656129D01*
X116408904Y-41858217D01*
X116505379Y-42047557D01*
X116630272Y-42219459D01*
X116630276Y-42219464D01*
X116780535Y-42369723D01*
X116780540Y-42369727D01*
X116952444Y-42494622D01*
X116962048Y-42499516D01*
X117012844Y-42547491D01*
X117029638Y-42615312D01*
X117007100Y-42681447D01*
X116962048Y-42720484D01*
X116952444Y-42725377D01*
X116780540Y-42850272D01*
X116780535Y-42850276D01*
X116630276Y-43000535D01*
X116630272Y-43000540D01*
X116505379Y-43172442D01*
X116408904Y-43361782D01*
X116343242Y-43563870D01*
X116343242Y-43563873D01*
X116332769Y-43630000D01*
X117226988Y-43630000D01*
X117194075Y-43687007D01*
X117160000Y-43814174D01*
X117160000Y-43945826D01*
X117194075Y-44072993D01*
X117226988Y-44130000D01*
X116332769Y-44130000D01*
X116343242Y-44196126D01*
X116343242Y-44196129D01*
X116408904Y-44398217D01*
X116505379Y-44587557D01*
X116630272Y-44759459D01*
X116630276Y-44759464D01*
X116780535Y-44909723D01*
X116780540Y-44909727D01*
X116952444Y-45034622D01*
X116962048Y-45039516D01*
X117012844Y-45087491D01*
X117029638Y-45155312D01*
X117007100Y-45221447D01*
X116962048Y-45260484D01*
X116952444Y-45265377D01*
X116780540Y-45390272D01*
X116780535Y-45390276D01*
X116630276Y-45540535D01*
X116630272Y-45540540D01*
X116505379Y-45712442D01*
X116408904Y-45901782D01*
X116343242Y-46103870D01*
X116343242Y-46103873D01*
X116332769Y-46170000D01*
X117226988Y-46170000D01*
X117194075Y-46227007D01*
X117160000Y-46354174D01*
X117160000Y-46485826D01*
X117194075Y-46612993D01*
X117226988Y-46670000D01*
X116332769Y-46670000D01*
X116343242Y-46736126D01*
X116343242Y-46736129D01*
X116408904Y-46938217D01*
X116505379Y-47127557D01*
X116630272Y-47299459D01*
X116630276Y-47299464D01*
X116780535Y-47449723D01*
X116780540Y-47449727D01*
X116952444Y-47574622D01*
X116962048Y-47579516D01*
X117012844Y-47627491D01*
X117029638Y-47695312D01*
X117007100Y-47761447D01*
X116962048Y-47800484D01*
X116952444Y-47805377D01*
X116780540Y-47930272D01*
X116780535Y-47930276D01*
X116630276Y-48080535D01*
X116630272Y-48080540D01*
X116505379Y-48252442D01*
X116408904Y-48441782D01*
X116343242Y-48643870D01*
X116343242Y-48643873D01*
X116332769Y-48710000D01*
X117226988Y-48710000D01*
X117194075Y-48767007D01*
X117160000Y-48894174D01*
X117160000Y-49025826D01*
X117194075Y-49152993D01*
X117226988Y-49210000D01*
X116332769Y-49210000D01*
X116343242Y-49276126D01*
X116343242Y-49276129D01*
X116408904Y-49478217D01*
X116505379Y-49667557D01*
X116630272Y-49839459D01*
X116630276Y-49839464D01*
X116780535Y-49989723D01*
X116780540Y-49989727D01*
X116952444Y-50114622D01*
X116962048Y-50119516D01*
X117012844Y-50167491D01*
X117029638Y-50235312D01*
X117007100Y-50301447D01*
X116962048Y-50340484D01*
X116952444Y-50345377D01*
X116780540Y-50470272D01*
X116780535Y-50470276D01*
X116630276Y-50620535D01*
X116630272Y-50620540D01*
X116505379Y-50792442D01*
X116408904Y-50981782D01*
X116343242Y-51183870D01*
X116343242Y-51183873D01*
X116332769Y-51250000D01*
X117226988Y-51250000D01*
X117194075Y-51307007D01*
X117160000Y-51434174D01*
X117160000Y-51565826D01*
X117194075Y-51692993D01*
X117226988Y-51750000D01*
X116332769Y-51750000D01*
X116343242Y-51816126D01*
X116343242Y-51816129D01*
X116408904Y-52018217D01*
X116505379Y-52207557D01*
X116630272Y-52379459D01*
X116630276Y-52379464D01*
X116780535Y-52529723D01*
X116780540Y-52529727D01*
X116952444Y-52654622D01*
X116962048Y-52659516D01*
X117012844Y-52707491D01*
X117029638Y-52775312D01*
X117007100Y-52841447D01*
X116962048Y-52880484D01*
X116952444Y-52885377D01*
X116780540Y-53010272D01*
X116780535Y-53010276D01*
X116630276Y-53160535D01*
X116630272Y-53160540D01*
X116505379Y-53332442D01*
X116408904Y-53521782D01*
X116343242Y-53723870D01*
X116343242Y-53723873D01*
X116332769Y-53790000D01*
X117226988Y-53790000D01*
X117194075Y-53847007D01*
X117160000Y-53974174D01*
X117160000Y-54105826D01*
X117194075Y-54232993D01*
X117226988Y-54290000D01*
X116332769Y-54290000D01*
X116343242Y-54356126D01*
X116343242Y-54356129D01*
X116408904Y-54558217D01*
X116505379Y-54747557D01*
X116630272Y-54919459D01*
X116630276Y-54919464D01*
X116780535Y-55069723D01*
X116780540Y-55069727D01*
X116952444Y-55194622D01*
X116962048Y-55199516D01*
X117012844Y-55247491D01*
X117029638Y-55315312D01*
X117007100Y-55381447D01*
X116962048Y-55420484D01*
X116952444Y-55425377D01*
X116780540Y-55550272D01*
X116780535Y-55550276D01*
X116630276Y-55700535D01*
X116630272Y-55700540D01*
X116505379Y-55872442D01*
X116408904Y-56061782D01*
X116343242Y-56263870D01*
X116343242Y-56263873D01*
X116332769Y-56330000D01*
X117226988Y-56330000D01*
X117194075Y-56387007D01*
X117160000Y-56514174D01*
X117160000Y-56645826D01*
X117194075Y-56772993D01*
X117226988Y-56830000D01*
X116332769Y-56830000D01*
X116343242Y-56896126D01*
X116343242Y-56896129D01*
X116408904Y-57098217D01*
X116505379Y-57287557D01*
X116630272Y-57459459D01*
X116630276Y-57459464D01*
X116780535Y-57609723D01*
X116780540Y-57609727D01*
X116952444Y-57734622D01*
X116962048Y-57739516D01*
X117012844Y-57787491D01*
X117029638Y-57855312D01*
X117007100Y-57921447D01*
X116962048Y-57960484D01*
X116952444Y-57965377D01*
X116780540Y-58090272D01*
X116780535Y-58090276D01*
X116630276Y-58240535D01*
X116630272Y-58240540D01*
X116505379Y-58412442D01*
X116408904Y-58601782D01*
X116343242Y-58803870D01*
X116343242Y-58803873D01*
X116332769Y-58870000D01*
X117226988Y-58870000D01*
X117194075Y-58927007D01*
X117160000Y-59054174D01*
X117160000Y-59185826D01*
X117194075Y-59312993D01*
X117226988Y-59370000D01*
X116332769Y-59370000D01*
X116343242Y-59436126D01*
X116343242Y-59436129D01*
X116408904Y-59638217D01*
X116505379Y-59827557D01*
X116630272Y-59999459D01*
X116630276Y-59999464D01*
X116780535Y-60149723D01*
X116780540Y-60149727D01*
X116952444Y-60274622D01*
X116962048Y-60279516D01*
X117012844Y-60327491D01*
X117029638Y-60395312D01*
X117007100Y-60461447D01*
X116962048Y-60500484D01*
X116952444Y-60505377D01*
X116780540Y-60630272D01*
X116780535Y-60630276D01*
X116630276Y-60780535D01*
X116630272Y-60780540D01*
X116505379Y-60952442D01*
X116408904Y-61141782D01*
X116343242Y-61343870D01*
X116343242Y-61343873D01*
X116332769Y-61410000D01*
X117226988Y-61410000D01*
X117194075Y-61467007D01*
X117160000Y-61594174D01*
X117160000Y-61725826D01*
X117194075Y-61852993D01*
X117226988Y-61910000D01*
X116332769Y-61910000D01*
X116343242Y-61976126D01*
X116343242Y-61976129D01*
X116408904Y-62178217D01*
X116505379Y-62367557D01*
X116630272Y-62539459D01*
X116630276Y-62539464D01*
X116780535Y-62689723D01*
X116780540Y-62689727D01*
X116952444Y-62814622D01*
X116962048Y-62819516D01*
X117012844Y-62867491D01*
X117029638Y-62935312D01*
X117007100Y-63001447D01*
X116962048Y-63040484D01*
X116952444Y-63045377D01*
X116780540Y-63170272D01*
X116780535Y-63170276D01*
X116630276Y-63320535D01*
X116630272Y-63320540D01*
X116505379Y-63492442D01*
X116408904Y-63681782D01*
X116343242Y-63883870D01*
X116343242Y-63883873D01*
X116332769Y-63950000D01*
X117226988Y-63950000D01*
X117194075Y-64007007D01*
X117160000Y-64134174D01*
X117160000Y-64265826D01*
X117194075Y-64392993D01*
X117226988Y-64450000D01*
X116332769Y-64450000D01*
X116343242Y-64516126D01*
X116343242Y-64516129D01*
X116408904Y-64718217D01*
X116505379Y-64907557D01*
X116630272Y-65079459D01*
X116630276Y-65079464D01*
X116780535Y-65229723D01*
X116780540Y-65229727D01*
X116952444Y-65354622D01*
X116962048Y-65359516D01*
X117012844Y-65407491D01*
X117029638Y-65475312D01*
X117007100Y-65541447D01*
X116962048Y-65580484D01*
X116952444Y-65585377D01*
X116780540Y-65710272D01*
X116780535Y-65710276D01*
X116630276Y-65860535D01*
X116630272Y-65860540D01*
X116505379Y-66032442D01*
X116408904Y-66221782D01*
X116343242Y-66423870D01*
X116343242Y-66423873D01*
X116332769Y-66490000D01*
X117226988Y-66490000D01*
X117194075Y-66547007D01*
X117160000Y-66674174D01*
X117160000Y-66805826D01*
X117194075Y-66932993D01*
X117226988Y-66990000D01*
X116332769Y-66990000D01*
X116343242Y-67056126D01*
X116343242Y-67056129D01*
X116408904Y-67258217D01*
X116505379Y-67447557D01*
X116630272Y-67619459D01*
X116630276Y-67619464D01*
X116780535Y-67769723D01*
X116780540Y-67769727D01*
X116952444Y-67894622D01*
X116962048Y-67899516D01*
X117012844Y-67947491D01*
X117029638Y-68015312D01*
X117007100Y-68081447D01*
X116962048Y-68120484D01*
X116952444Y-68125377D01*
X116780540Y-68250272D01*
X116780535Y-68250276D01*
X116630276Y-68400535D01*
X116630272Y-68400540D01*
X116505379Y-68572442D01*
X116408904Y-68761782D01*
X116343242Y-68963870D01*
X116343242Y-68963873D01*
X116332769Y-69030000D01*
X117226988Y-69030000D01*
X117194075Y-69087007D01*
X117160000Y-69214174D01*
X117160000Y-69345826D01*
X117194075Y-69472993D01*
X117226988Y-69530000D01*
X116332769Y-69530000D01*
X116343242Y-69596126D01*
X116343242Y-69596129D01*
X116408904Y-69798217D01*
X116505379Y-69987557D01*
X116630272Y-70159459D01*
X116630276Y-70159464D01*
X116780535Y-70309723D01*
X116780540Y-70309727D01*
X116952444Y-70434622D01*
X116962048Y-70439516D01*
X117012844Y-70487491D01*
X117029638Y-70555312D01*
X117007100Y-70621447D01*
X116962048Y-70660484D01*
X116952444Y-70665377D01*
X116780540Y-70790272D01*
X116780535Y-70790276D01*
X116630276Y-70940535D01*
X116630272Y-70940540D01*
X116505379Y-71112442D01*
X116408904Y-71301782D01*
X116343242Y-71503870D01*
X116343242Y-71503873D01*
X116332769Y-71570000D01*
X117226988Y-71570000D01*
X117194075Y-71627007D01*
X117160000Y-71754174D01*
X117160000Y-71885826D01*
X117194075Y-72012993D01*
X117226988Y-72070000D01*
X116332769Y-72070000D01*
X116343242Y-72136126D01*
X116343242Y-72136129D01*
X116408904Y-72338217D01*
X116505379Y-72527557D01*
X116630272Y-72699459D01*
X116630276Y-72699464D01*
X116780535Y-72849723D01*
X116780540Y-72849727D01*
X116952444Y-72974622D01*
X116962048Y-72979516D01*
X117012844Y-73027491D01*
X117029638Y-73095312D01*
X117007100Y-73161447D01*
X116962048Y-73200484D01*
X116952444Y-73205377D01*
X116780540Y-73330272D01*
X116780535Y-73330276D01*
X116630276Y-73480535D01*
X116630272Y-73480540D01*
X116505379Y-73652442D01*
X116408904Y-73841782D01*
X116343242Y-74043870D01*
X116343242Y-74043873D01*
X116332769Y-74110000D01*
X117226988Y-74110000D01*
X117194075Y-74167007D01*
X117160000Y-74294174D01*
X117160000Y-74425826D01*
X117194075Y-74552993D01*
X117226988Y-74610000D01*
X116332769Y-74610000D01*
X116343242Y-74676126D01*
X116343242Y-74676129D01*
X116408904Y-74878217D01*
X116505379Y-75067557D01*
X116630272Y-75239459D01*
X116630276Y-75239464D01*
X116780535Y-75389723D01*
X116780540Y-75389727D01*
X116952444Y-75514622D01*
X116962048Y-75519516D01*
X117012844Y-75567491D01*
X117029638Y-75635312D01*
X117007100Y-75701447D01*
X116962048Y-75740484D01*
X116952444Y-75745377D01*
X116780540Y-75870272D01*
X116780535Y-75870276D01*
X116630276Y-76020535D01*
X116630272Y-76020540D01*
X116505379Y-76192442D01*
X116408904Y-76381782D01*
X116343242Y-76583870D01*
X116343242Y-76583873D01*
X116332769Y-76650000D01*
X117226988Y-76650000D01*
X117194075Y-76707007D01*
X117160000Y-76834174D01*
X117160000Y-76965826D01*
X117194075Y-77092993D01*
X117226988Y-77150000D01*
X116332769Y-77150000D01*
X116343242Y-77216126D01*
X116343242Y-77216129D01*
X116408904Y-77418217D01*
X116505379Y-77607557D01*
X116630272Y-77779459D01*
X116630276Y-77779464D01*
X116780535Y-77929723D01*
X116780540Y-77929727D01*
X116952444Y-78054622D01*
X116962048Y-78059516D01*
X117012844Y-78107491D01*
X117029638Y-78175312D01*
X117007100Y-78241447D01*
X116962048Y-78280484D01*
X116952444Y-78285377D01*
X116780540Y-78410272D01*
X116780535Y-78410276D01*
X116630276Y-78560535D01*
X116630272Y-78560540D01*
X116505379Y-78732442D01*
X116408904Y-78921782D01*
X116343242Y-79123870D01*
X116343242Y-79123873D01*
X116332769Y-79190000D01*
X117226988Y-79190000D01*
X117194075Y-79247007D01*
X117160000Y-79374174D01*
X117160000Y-79505826D01*
X117194075Y-79632993D01*
X117226988Y-79690000D01*
X116332769Y-79690000D01*
X116343242Y-79756126D01*
X116343242Y-79756129D01*
X116408904Y-79958217D01*
X116505379Y-80147557D01*
X116630272Y-80319459D01*
X116630276Y-80319464D01*
X116780535Y-80469723D01*
X116780540Y-80469727D01*
X116952444Y-80594622D01*
X116962048Y-80599516D01*
X117012844Y-80647491D01*
X117029638Y-80715312D01*
X117007100Y-80781447D01*
X116962048Y-80820484D01*
X116952444Y-80825377D01*
X116780540Y-80950272D01*
X116780535Y-80950276D01*
X116630276Y-81100535D01*
X116630272Y-81100540D01*
X116505379Y-81272442D01*
X116408904Y-81461782D01*
X116343242Y-81663870D01*
X116343242Y-81663873D01*
X116332769Y-81730000D01*
X117226988Y-81730000D01*
X117194075Y-81787007D01*
X117160000Y-81914174D01*
X117160000Y-82045826D01*
X117194075Y-82172993D01*
X117226988Y-82230000D01*
X116332769Y-82230000D01*
X116343242Y-82296126D01*
X116343242Y-82296129D01*
X116408904Y-82498217D01*
X116505379Y-82687557D01*
X116630272Y-82859459D01*
X116630276Y-82859464D01*
X116780535Y-83009723D01*
X116780540Y-83009727D01*
X116952442Y-83134620D01*
X117141782Y-83231095D01*
X117343871Y-83296757D01*
X117410000Y-83307231D01*
X117410000Y-82413012D01*
X117467007Y-82445925D01*
X117594174Y-82480000D01*
X117725826Y-82480000D01*
X117852993Y-82445925D01*
X117910000Y-82413012D01*
X117910000Y-83307230D01*
X117976126Y-83296757D01*
X117976129Y-83296757D01*
X118178217Y-83231095D01*
X118367557Y-83134620D01*
X118539459Y-83009727D01*
X118539464Y-83009723D01*
X118689723Y-82859464D01*
X118689727Y-82859459D01*
X118814620Y-82687558D01*
X118819514Y-82677954D01*
X118867488Y-82627157D01*
X118935308Y-82610361D01*
X119001444Y-82632897D01*
X119040486Y-82677954D01*
X119045379Y-82687558D01*
X119170272Y-82859459D01*
X119170276Y-82859464D01*
X119320535Y-83009723D01*
X119320540Y-83009727D01*
X119492442Y-83134620D01*
X119681782Y-83231095D01*
X119883871Y-83296757D01*
X119950000Y-83307231D01*
X119950000Y-82413012D01*
X120007007Y-82445925D01*
X120134174Y-82480000D01*
X120265826Y-82480000D01*
X120392993Y-82445925D01*
X120450000Y-82413012D01*
X120450000Y-83307230D01*
X120516126Y-83296757D01*
X120516129Y-83296757D01*
X120718217Y-83231095D01*
X120907557Y-83134620D01*
X121079459Y-83009727D01*
X121079464Y-83009723D01*
X121229723Y-82859464D01*
X121229727Y-82859459D01*
X121354620Y-82687557D01*
X121451095Y-82498217D01*
X121516757Y-82296129D01*
X121516757Y-82296126D01*
X121527231Y-82230000D01*
X120633012Y-82230000D01*
X120665925Y-82172993D01*
X120700000Y-82045826D01*
X120700000Y-81914174D01*
X120665925Y-81787007D01*
X120633012Y-81730000D01*
X121527231Y-81730000D01*
X121516757Y-81663873D01*
X121516757Y-81663870D01*
X121451095Y-81461782D01*
X121354620Y-81272442D01*
X121229727Y-81100540D01*
X121229723Y-81100535D01*
X121079464Y-80950276D01*
X121079459Y-80950272D01*
X120907555Y-80825377D01*
X120898500Y-80820763D01*
X120847706Y-80772788D01*
X120830912Y-80704966D01*
X120853451Y-80638832D01*
X120898508Y-80599793D01*
X120907816Y-80595051D01*
X121047560Y-80493522D01*
X121079786Y-80470109D01*
X121079788Y-80470106D01*
X121079792Y-80470104D01*
X121230104Y-80319792D01*
X121230106Y-80319788D01*
X121230109Y-80319786D01*
X121355048Y-80147820D01*
X121355050Y-80147817D01*
X121355051Y-80147816D01*
X121451557Y-79958412D01*
X121517246Y-79756243D01*
X121550500Y-79546287D01*
X121550500Y-79333713D01*
X121517246Y-79123757D01*
X121451557Y-78921588D01*
X121355051Y-78732184D01*
X121355049Y-78732181D01*
X121355048Y-78732179D01*
X121230109Y-78560213D01*
X121079786Y-78409890D01*
X120907820Y-78284951D01*
X120907115Y-78284591D01*
X120899054Y-78280485D01*
X120848259Y-78232512D01*
X120831463Y-78164692D01*
X120853999Y-78098556D01*
X120899054Y-78059515D01*
X120907816Y-78055051D01*
X120997209Y-77990104D01*
X121079786Y-77930109D01*
X121079788Y-77930106D01*
X121079792Y-77930104D01*
X121230104Y-77779792D01*
X121230106Y-77779788D01*
X121230109Y-77779786D01*
X121355048Y-77607820D01*
X121355050Y-77607817D01*
X121355051Y-77607816D01*
X121451557Y-77418412D01*
X121517246Y-77216243D01*
X121550500Y-77006287D01*
X121550500Y-76793713D01*
X121517246Y-76583757D01*
X121471230Y-76442135D01*
X148654500Y-76442135D01*
X148654500Y-78237870D01*
X148654501Y-78237876D01*
X148660908Y-78297483D01*
X148711202Y-78432328D01*
X148711206Y-78432335D01*
X148797452Y-78547544D01*
X148797455Y-78547547D01*
X148912664Y-78633793D01*
X148912671Y-78633797D01*
X149047517Y-78684091D01*
X149047516Y-78684091D01*
X149054444Y-78684835D01*
X149107127Y-78690500D01*
X150902872Y-78690499D01*
X150962483Y-78684091D01*
X151097331Y-78633796D01*
X151212546Y-78547546D01*
X151298796Y-78432331D01*
X151347810Y-78300916D01*
X151389681Y-78244984D01*
X151455145Y-78220566D01*
X151523418Y-78235417D01*
X151551673Y-78256569D01*
X151665213Y-78370109D01*
X151837179Y-78495048D01*
X151837181Y-78495049D01*
X151837184Y-78495051D01*
X152026588Y-78591557D01*
X152228757Y-78657246D01*
X152438713Y-78690500D01*
X152438714Y-78690500D01*
X152651286Y-78690500D01*
X152651287Y-78690500D01*
X152861243Y-78657246D01*
X153063412Y-78591557D01*
X153252816Y-78495051D01*
X153339138Y-78432335D01*
X153424786Y-78370109D01*
X153424788Y-78370106D01*
X153424792Y-78370104D01*
X153575104Y-78219792D01*
X153575106Y-78219788D01*
X153575109Y-78219786D01*
X153663186Y-78098556D01*
X153700051Y-78047816D01*
X153704793Y-78038508D01*
X153752763Y-77987711D01*
X153820583Y-77970911D01*
X153886719Y-77993445D01*
X153925763Y-78038500D01*
X153930377Y-78047555D01*
X154055272Y-78219459D01*
X154055276Y-78219464D01*
X154205535Y-78369723D01*
X154205540Y-78369727D01*
X154377442Y-78494620D01*
X154566782Y-78591095D01*
X154768871Y-78656757D01*
X154835000Y-78667231D01*
X154835000Y-77773012D01*
X154892007Y-77805925D01*
X155019174Y-77840000D01*
X155150826Y-77840000D01*
X155277993Y-77805925D01*
X155335000Y-77773012D01*
X155335000Y-78667230D01*
X155401126Y-78656757D01*
X155401129Y-78656757D01*
X155603217Y-78591095D01*
X155792557Y-78494620D01*
X155964459Y-78369727D01*
X155964464Y-78369723D01*
X156114723Y-78219464D01*
X156114727Y-78219459D01*
X156239620Y-78047557D01*
X156336095Y-77858217D01*
X156401757Y-77656129D01*
X156401757Y-77656126D01*
X156412231Y-77590000D01*
X155518012Y-77590000D01*
X155550925Y-77532993D01*
X155585000Y-77405826D01*
X155585000Y-77274174D01*
X155550925Y-77147007D01*
X155518012Y-77090000D01*
X156412231Y-77090000D01*
X156401757Y-77023873D01*
X156401757Y-77023870D01*
X156336095Y-76821782D01*
X156239620Y-76632442D01*
X156114727Y-76460540D01*
X156114723Y-76460535D01*
X155964464Y-76310276D01*
X155964459Y-76310272D01*
X155792557Y-76185379D01*
X155603215Y-76088903D01*
X155401124Y-76023241D01*
X155335000Y-76012768D01*
X155335000Y-76906988D01*
X155277993Y-76874075D01*
X155150826Y-76840000D01*
X155019174Y-76840000D01*
X154892007Y-76874075D01*
X154835000Y-76906988D01*
X154835000Y-76012768D01*
X154834999Y-76012768D01*
X154768875Y-76023241D01*
X154566784Y-76088903D01*
X154377442Y-76185379D01*
X154205540Y-76310272D01*
X154205535Y-76310276D01*
X154055276Y-76460535D01*
X154055272Y-76460540D01*
X153930378Y-76632443D01*
X153925762Y-76641502D01*
X153877784Y-76692295D01*
X153809963Y-76709087D01*
X153743829Y-76686546D01*
X153704794Y-76641493D01*
X153700051Y-76632184D01*
X153700049Y-76632181D01*
X153700048Y-76632179D01*
X153575109Y-76460213D01*
X153424786Y-76309890D01*
X153252820Y-76184951D01*
X153063414Y-76088444D01*
X153063413Y-76088443D01*
X153063412Y-76088443D01*
X152861243Y-76022754D01*
X152861241Y-76022753D01*
X152861240Y-76022753D01*
X152699957Y-75997208D01*
X152651287Y-75989500D01*
X152438713Y-75989500D01*
X152390042Y-75997208D01*
X152228760Y-76022753D01*
X152026585Y-76088444D01*
X151837179Y-76184951D01*
X151665215Y-76309889D01*
X151551673Y-76423431D01*
X151490350Y-76456915D01*
X151420658Y-76451931D01*
X151364725Y-76410059D01*
X151347810Y-76379082D01*
X151298797Y-76247671D01*
X151298793Y-76247664D01*
X151212547Y-76132455D01*
X151212544Y-76132452D01*
X151097335Y-76046206D01*
X151097328Y-76046202D01*
X150962482Y-75995908D01*
X150962483Y-75995908D01*
X150902883Y-75989501D01*
X150902881Y-75989500D01*
X150902873Y-75989500D01*
X150902864Y-75989500D01*
X149107129Y-75989500D01*
X149107123Y-75989501D01*
X149047516Y-75995908D01*
X148912671Y-76046202D01*
X148912664Y-76046206D01*
X148797455Y-76132452D01*
X148797452Y-76132455D01*
X148711206Y-76247664D01*
X148711202Y-76247671D01*
X148660908Y-76382517D01*
X148654501Y-76442116D01*
X148654500Y-76442135D01*
X121471230Y-76442135D01*
X121451557Y-76381588D01*
X121355051Y-76192184D01*
X121355049Y-76192181D01*
X121355048Y-76192179D01*
X121230109Y-76020213D01*
X121079786Y-75869890D01*
X120907820Y-75744951D01*
X120907115Y-75744591D01*
X120899054Y-75740485D01*
X120848259Y-75692512D01*
X120831463Y-75624692D01*
X120853999Y-75558556D01*
X120899054Y-75519515D01*
X120907816Y-75515051D01*
X120997209Y-75450104D01*
X121079786Y-75390109D01*
X121079788Y-75390106D01*
X121079792Y-75390104D01*
X121230104Y-75239792D01*
X121230106Y-75239788D01*
X121230109Y-75239786D01*
X121355048Y-75067820D01*
X121355050Y-75067817D01*
X121355051Y-75067816D01*
X121451557Y-74878412D01*
X121517246Y-74676243D01*
X121550500Y-74466287D01*
X121550500Y-74253713D01*
X121517246Y-74043757D01*
X121451557Y-73841588D01*
X121355051Y-73652184D01*
X121355049Y-73652181D01*
X121355048Y-73652179D01*
X121230109Y-73480213D01*
X121079786Y-73329890D01*
X120907820Y-73204951D01*
X120907115Y-73204591D01*
X120899054Y-73200485D01*
X120848259Y-73152512D01*
X120831463Y-73084692D01*
X120853999Y-73018556D01*
X120899054Y-72979515D01*
X120907816Y-72975051D01*
X120997209Y-72910104D01*
X121079786Y-72850109D01*
X121079788Y-72850106D01*
X121079792Y-72850104D01*
X121230104Y-72699792D01*
X121230106Y-72699788D01*
X121230109Y-72699786D01*
X121355048Y-72527820D01*
X121355050Y-72527817D01*
X121355051Y-72527816D01*
X121451557Y-72338412D01*
X121517246Y-72136243D01*
X121550500Y-71926287D01*
X121550500Y-71881153D01*
X161219500Y-71881153D01*
X161219500Y-72038846D01*
X161250261Y-72193489D01*
X161250264Y-72193501D01*
X161310602Y-72339172D01*
X161310609Y-72339185D01*
X161398210Y-72470288D01*
X161398213Y-72470292D01*
X161509707Y-72581786D01*
X161509711Y-72581789D01*
X161640814Y-72669390D01*
X161640827Y-72669397D01*
X161786498Y-72729735D01*
X161786503Y-72729737D01*
X161935925Y-72759459D01*
X161941153Y-72760499D01*
X161941156Y-72760500D01*
X161941158Y-72760500D01*
X162098844Y-72760500D01*
X162098845Y-72760499D01*
X162253497Y-72729737D01*
X162399179Y-72669394D01*
X162530289Y-72581789D01*
X162641789Y-72470289D01*
X162729394Y-72339179D01*
X162729793Y-72338217D01*
X162751452Y-72285925D01*
X162789737Y-72193497D01*
X162820500Y-72038842D01*
X162820500Y-71881158D01*
X162820500Y-71881155D01*
X162820499Y-71881153D01*
X162807176Y-71814174D01*
X162789737Y-71726503D01*
X162784439Y-71713713D01*
X162729397Y-71580827D01*
X162729390Y-71580814D01*
X162641789Y-71449711D01*
X162641786Y-71449707D01*
X162530292Y-71338213D01*
X162530288Y-71338210D01*
X162399185Y-71250609D01*
X162399172Y-71250602D01*
X162253501Y-71190264D01*
X162253489Y-71190261D01*
X162098845Y-71159500D01*
X162098842Y-71159500D01*
X161941158Y-71159500D01*
X161941155Y-71159500D01*
X161786510Y-71190261D01*
X161786498Y-71190264D01*
X161640827Y-71250602D01*
X161640814Y-71250609D01*
X161509711Y-71338210D01*
X161509707Y-71338213D01*
X161398213Y-71449707D01*
X161398210Y-71449711D01*
X161310609Y-71580814D01*
X161310602Y-71580827D01*
X161250264Y-71726498D01*
X161250261Y-71726510D01*
X161219500Y-71881153D01*
X121550500Y-71881153D01*
X121550500Y-71713713D01*
X121517246Y-71503757D01*
X121451557Y-71301588D01*
X121355051Y-71112184D01*
X121355049Y-71112181D01*
X121355048Y-71112179D01*
X121230109Y-70940213D01*
X121079786Y-70789890D01*
X120907820Y-70664951D01*
X120907115Y-70664591D01*
X120899054Y-70660485D01*
X120848259Y-70612512D01*
X120831463Y-70544692D01*
X120853999Y-70478556D01*
X120899054Y-70439515D01*
X120907816Y-70435051D01*
X120997209Y-70370104D01*
X121079786Y-70310109D01*
X121079788Y-70310106D01*
X121079792Y-70310104D01*
X121230104Y-70159792D01*
X121230106Y-70159788D01*
X121230109Y-70159786D01*
X121355048Y-69987820D01*
X121355050Y-69987817D01*
X121355051Y-69987816D01*
X121451557Y-69798412D01*
X121517246Y-69596243D01*
X121550500Y-69386287D01*
X121550500Y-69241153D01*
X149719500Y-69241153D01*
X149719500Y-69398846D01*
X149750261Y-69553489D01*
X149750264Y-69553501D01*
X149810602Y-69699172D01*
X149810609Y-69699185D01*
X149898210Y-69830288D01*
X149898213Y-69830292D01*
X150009707Y-69941786D01*
X150009711Y-69941789D01*
X150140814Y-70029390D01*
X150140827Y-70029397D01*
X150262363Y-70079738D01*
X150286503Y-70089737D01*
X150441153Y-70120499D01*
X150441156Y-70120500D01*
X150441158Y-70120500D01*
X150598844Y-70120500D01*
X150598845Y-70120499D01*
X150753497Y-70089737D01*
X150899179Y-70029394D01*
X151030289Y-69941789D01*
X151077320Y-69894757D01*
X151138639Y-69861274D01*
X151208330Y-69866257D01*
X151252680Y-69894759D01*
X151289707Y-69931786D01*
X151289711Y-69931789D01*
X151420814Y-70019390D01*
X151420827Y-70019397D01*
X151566498Y-70079735D01*
X151566503Y-70079737D01*
X151721153Y-70110499D01*
X151721156Y-70110500D01*
X151721158Y-70110500D01*
X151878844Y-70110500D01*
X151878845Y-70110499D01*
X152033497Y-70079737D01*
X152146166Y-70033067D01*
X152179172Y-70019397D01*
X152179172Y-70019396D01*
X152179179Y-70019394D01*
X152310289Y-69931789D01*
X152421789Y-69820289D01*
X152509394Y-69689179D01*
X152569737Y-69543497D01*
X152600500Y-69388842D01*
X152600500Y-69231158D01*
X152600500Y-69231155D01*
X152600499Y-69231153D01*
X152583761Y-69147007D01*
X152569737Y-69076503D01*
X152547936Y-69023870D01*
X152509397Y-68930827D01*
X152509390Y-68930814D01*
X152421789Y-68799711D01*
X152421786Y-68799707D01*
X152310292Y-68688213D01*
X152310288Y-68688210D01*
X152179185Y-68600609D01*
X152179172Y-68600602D01*
X152033501Y-68540264D01*
X152033489Y-68540261D01*
X151878845Y-68509500D01*
X151878842Y-68509500D01*
X151721158Y-68509500D01*
X151721155Y-68509500D01*
X151566510Y-68540261D01*
X151566498Y-68540264D01*
X151420827Y-68600602D01*
X151420814Y-68600609D01*
X151289711Y-68688210D01*
X151289707Y-68688213D01*
X151242681Y-68735240D01*
X151181358Y-68768725D01*
X151111666Y-68763741D01*
X151067319Y-68735240D01*
X151030292Y-68698213D01*
X151030288Y-68698210D01*
X150899185Y-68610609D01*
X150899172Y-68610602D01*
X150753501Y-68550264D01*
X150753489Y-68550261D01*
X150598845Y-68519500D01*
X150598842Y-68519500D01*
X150441158Y-68519500D01*
X150441155Y-68519500D01*
X150286510Y-68550261D01*
X150286498Y-68550264D01*
X150140827Y-68610602D01*
X150140814Y-68610609D01*
X150009711Y-68698210D01*
X150009707Y-68698213D01*
X149898213Y-68809707D01*
X149898210Y-68809711D01*
X149810609Y-68940814D01*
X149810602Y-68940827D01*
X149750264Y-69086498D01*
X149750261Y-69086510D01*
X149719500Y-69241153D01*
X121550500Y-69241153D01*
X121550500Y-69173713D01*
X121517246Y-68963757D01*
X121451557Y-68761588D01*
X121355051Y-68572184D01*
X121355049Y-68572181D01*
X121355048Y-68572179D01*
X121230109Y-68400213D01*
X121079786Y-68249890D01*
X120907820Y-68124951D01*
X120907115Y-68124591D01*
X120899054Y-68120485D01*
X120848259Y-68072512D01*
X120831463Y-68004692D01*
X120853999Y-67938556D01*
X120899054Y-67899515D01*
X120907816Y-67895051D01*
X120997209Y-67830104D01*
X121079786Y-67770109D01*
X121079788Y-67770106D01*
X121079792Y-67770104D01*
X121230104Y-67619792D01*
X121258173Y-67581158D01*
X121258177Y-67581153D01*
X155209500Y-67581153D01*
X155209500Y-67738846D01*
X155240261Y-67893489D01*
X155240264Y-67893501D01*
X155300602Y-68039172D01*
X155300609Y-68039185D01*
X155388210Y-68170288D01*
X155388213Y-68170292D01*
X155499707Y-68281786D01*
X155499711Y-68281789D01*
X155630814Y-68369390D01*
X155630827Y-68369397D01*
X155776498Y-68429735D01*
X155776503Y-68429737D01*
X155929690Y-68460208D01*
X155931153Y-68460499D01*
X155931156Y-68460500D01*
X155931158Y-68460500D01*
X156088844Y-68460500D01*
X156088845Y-68460499D01*
X156243497Y-68429737D01*
X156389179Y-68369394D01*
X156520289Y-68281789D01*
X156631789Y-68170289D01*
X156719394Y-68039179D01*
X156732520Y-68007491D01*
X156736220Y-67998556D01*
X156779737Y-67893497D01*
X156810500Y-67738842D01*
X156810500Y-67581158D01*
X156810500Y-67581155D01*
X156810499Y-67581153D01*
X156795912Y-67507820D01*
X156779737Y-67426503D01*
X156756711Y-67370912D01*
X156719397Y-67280827D01*
X156719390Y-67280814D01*
X156631789Y-67149711D01*
X156631786Y-67149707D01*
X156520292Y-67038213D01*
X156520288Y-67038210D01*
X156389185Y-66950609D01*
X156389172Y-66950602D01*
X156243501Y-66890264D01*
X156243489Y-66890261D01*
X156088845Y-66859500D01*
X156088842Y-66859500D01*
X155931158Y-66859500D01*
X155931155Y-66859500D01*
X155776510Y-66890261D01*
X155776498Y-66890264D01*
X155630827Y-66950602D01*
X155630814Y-66950609D01*
X155499711Y-67038210D01*
X155499707Y-67038213D01*
X155388213Y-67149707D01*
X155388210Y-67149711D01*
X155300609Y-67280814D01*
X155300602Y-67280827D01*
X155240264Y-67426498D01*
X155240261Y-67426510D01*
X155209500Y-67581153D01*
X121258177Y-67581153D01*
X121315554Y-67502181D01*
X121350961Y-67453445D01*
X121355051Y-67447816D01*
X121451557Y-67258412D01*
X121517246Y-67056243D01*
X121550500Y-66846287D01*
X121550500Y-66633713D01*
X121517246Y-66423757D01*
X121451557Y-66221588D01*
X121355051Y-66032184D01*
X121355049Y-66032181D01*
X121355048Y-66032179D01*
X121230109Y-65860213D01*
X121079786Y-65709890D01*
X120907820Y-65584951D01*
X120907115Y-65584591D01*
X120899054Y-65580485D01*
X120848259Y-65532512D01*
X120831463Y-65464692D01*
X120853999Y-65398556D01*
X120899054Y-65359515D01*
X120907816Y-65355051D01*
X120943890Y-65328842D01*
X121079786Y-65230109D01*
X121079788Y-65230106D01*
X121079792Y-65230104D01*
X121138743Y-65171153D01*
X134299500Y-65171153D01*
X134299500Y-65328846D01*
X134330261Y-65483489D01*
X134330264Y-65483501D01*
X134390602Y-65629172D01*
X134390609Y-65629185D01*
X134478210Y-65760288D01*
X134478213Y-65760292D01*
X134589707Y-65871786D01*
X134589711Y-65871789D01*
X134720814Y-65959390D01*
X134720827Y-65959397D01*
X134866498Y-66019735D01*
X134866503Y-66019737D01*
X135021153Y-66050499D01*
X135021156Y-66050500D01*
X135021158Y-66050500D01*
X135178844Y-66050500D01*
X135178845Y-66050499D01*
X135333497Y-66019737D01*
X135479179Y-65959394D01*
X135610289Y-65871789D01*
X135721789Y-65760289D01*
X135809394Y-65629179D01*
X135869737Y-65483497D01*
X135900500Y-65328842D01*
X135900500Y-65171158D01*
X135900500Y-65171155D01*
X135900499Y-65171153D01*
X135869738Y-65016510D01*
X135869737Y-65016503D01*
X135849571Y-64967818D01*
X135809397Y-64870827D01*
X135809390Y-64870814D01*
X135721789Y-64739711D01*
X135721786Y-64739707D01*
X135610292Y-64628213D01*
X135610288Y-64628210D01*
X135479185Y-64540609D01*
X135479172Y-64540602D01*
X135428532Y-64519627D01*
X135333501Y-64480264D01*
X135333489Y-64480261D01*
X135178845Y-64449500D01*
X135178842Y-64449500D01*
X135021158Y-64449500D01*
X135021155Y-64449500D01*
X134866510Y-64480261D01*
X134866498Y-64480264D01*
X134720827Y-64540602D01*
X134720814Y-64540609D01*
X134589711Y-64628210D01*
X134589707Y-64628213D01*
X134478213Y-64739707D01*
X134478210Y-64739711D01*
X134390609Y-64870814D01*
X134390602Y-64870827D01*
X134330264Y-65016498D01*
X134330261Y-65016510D01*
X134299500Y-65171153D01*
X121138743Y-65171153D01*
X121230104Y-65079792D01*
X121230106Y-65079788D01*
X121230109Y-65079786D01*
X121355048Y-64907820D01*
X121355050Y-64907817D01*
X121355051Y-64907816D01*
X121451557Y-64718412D01*
X121517246Y-64516243D01*
X121533891Y-64411153D01*
X149689500Y-64411153D01*
X149689500Y-64568846D01*
X149720261Y-64723489D01*
X149720264Y-64723501D01*
X149780602Y-64869172D01*
X149780609Y-64869185D01*
X149868210Y-65000288D01*
X149868213Y-65000292D01*
X149979707Y-65111786D01*
X149979711Y-65111789D01*
X150110814Y-65199390D01*
X150110827Y-65199397D01*
X150256498Y-65259735D01*
X150256503Y-65259737D01*
X150407252Y-65289723D01*
X150411153Y-65290499D01*
X150411156Y-65290500D01*
X150411158Y-65290500D01*
X150568844Y-65290500D01*
X150568845Y-65290499D01*
X150723497Y-65259737D01*
X150869179Y-65199394D01*
X151000289Y-65111789D01*
X151111789Y-65000289D01*
X151199394Y-64869179D01*
X151259737Y-64723497D01*
X151290500Y-64568842D01*
X151290500Y-64552902D01*
X151310185Y-64485863D01*
X151362989Y-64440108D01*
X151432147Y-64430164D01*
X151495703Y-64459189D01*
X151529062Y-64505451D01*
X151530605Y-64509178D01*
X151530609Y-64509185D01*
X151618210Y-64640288D01*
X151618213Y-64640292D01*
X151729707Y-64751786D01*
X151729711Y-64751789D01*
X151860814Y-64839390D01*
X151860827Y-64839397D01*
X151985195Y-64890911D01*
X152006503Y-64899737D01*
X152161153Y-64930499D01*
X152161156Y-64930500D01*
X152161158Y-64930500D01*
X152318844Y-64930500D01*
X152318845Y-64930499D01*
X152473497Y-64899737D01*
X152619179Y-64839394D01*
X152750289Y-64751789D01*
X152861789Y-64640289D01*
X152949394Y-64509179D01*
X153009737Y-64363497D01*
X153040500Y-64208842D01*
X153040500Y-64051158D01*
X153040500Y-64051155D01*
X153040499Y-64051153D01*
X153024097Y-63968691D01*
X153030324Y-63899100D01*
X153073187Y-63843922D01*
X153139077Y-63820678D01*
X153145714Y-63820500D01*
X153238844Y-63820500D01*
X153238845Y-63820499D01*
X153393497Y-63789737D01*
X153506166Y-63743067D01*
X153539172Y-63729397D01*
X153539172Y-63729396D01*
X153539179Y-63729394D01*
X153670289Y-63641789D01*
X153781789Y-63530289D01*
X153869394Y-63399179D01*
X153877115Y-63380540D01*
X153901984Y-63320499D01*
X153929737Y-63253497D01*
X153960500Y-63098842D01*
X153960500Y-62941158D01*
X153960500Y-62941155D01*
X153960499Y-62941153D01*
X153959337Y-62935312D01*
X153929737Y-62786503D01*
X153914504Y-62749727D01*
X153869397Y-62640827D01*
X153869390Y-62640814D01*
X153781789Y-62509711D01*
X153781786Y-62509707D01*
X153670292Y-62398213D01*
X153670288Y-62398210D01*
X153539185Y-62310609D01*
X153539172Y-62310602D01*
X153393501Y-62250264D01*
X153393489Y-62250261D01*
X153238845Y-62219500D01*
X153238842Y-62219500D01*
X153081158Y-62219500D01*
X153081155Y-62219500D01*
X152926510Y-62250261D01*
X152926498Y-62250264D01*
X152780827Y-62310602D01*
X152780814Y-62310609D01*
X152649711Y-62398210D01*
X152649707Y-62398213D01*
X152538213Y-62509707D01*
X152538210Y-62509711D01*
X152450609Y-62640814D01*
X152450602Y-62640827D01*
X152390264Y-62786498D01*
X152390261Y-62786510D01*
X152359500Y-62941153D01*
X152359500Y-63098846D01*
X152375903Y-63181309D01*
X152369676Y-63250900D01*
X152326813Y-63306078D01*
X152260923Y-63329322D01*
X152254286Y-63329500D01*
X152161155Y-63329500D01*
X152006510Y-63360261D01*
X152006498Y-63360264D01*
X151860827Y-63420602D01*
X151860814Y-63420609D01*
X151729711Y-63508210D01*
X151729707Y-63508213D01*
X151618213Y-63619707D01*
X151618210Y-63619711D01*
X151530609Y-63750814D01*
X151530602Y-63750827D01*
X151470264Y-63896498D01*
X151470261Y-63896510D01*
X151439500Y-64051153D01*
X151439500Y-64067097D01*
X151419815Y-64134136D01*
X151367011Y-64179891D01*
X151297853Y-64189835D01*
X151234297Y-64160810D01*
X151200940Y-64114552D01*
X151199396Y-64110826D01*
X151199390Y-64110814D01*
X151111789Y-63979711D01*
X151111786Y-63979707D01*
X151000292Y-63868213D01*
X151000288Y-63868210D01*
X150869185Y-63780609D01*
X150869172Y-63780602D01*
X150723501Y-63720264D01*
X150723489Y-63720261D01*
X150568845Y-63689500D01*
X150568842Y-63689500D01*
X150411158Y-63689500D01*
X150411155Y-63689500D01*
X150256510Y-63720261D01*
X150256498Y-63720264D01*
X150110827Y-63780602D01*
X150110814Y-63780609D01*
X149979711Y-63868210D01*
X149979707Y-63868213D01*
X149868213Y-63979707D01*
X149868210Y-63979711D01*
X149780609Y-64110814D01*
X149780602Y-64110827D01*
X149720264Y-64256498D01*
X149720261Y-64256510D01*
X149689500Y-64411153D01*
X121533891Y-64411153D01*
X121550500Y-64306287D01*
X121550500Y-64093713D01*
X121517246Y-63883757D01*
X121451557Y-63681588D01*
X121355051Y-63492184D01*
X121355049Y-63492181D01*
X121355048Y-63492179D01*
X121230109Y-63320213D01*
X121079786Y-63169890D01*
X120907820Y-63044951D01*
X120907115Y-63044591D01*
X120899054Y-63040485D01*
X120848259Y-62992512D01*
X120831463Y-62924692D01*
X120853999Y-62858556D01*
X120899054Y-62819515D01*
X120907816Y-62815051D01*
X120970658Y-62769394D01*
X121079786Y-62690109D01*
X121079788Y-62690106D01*
X121079792Y-62690104D01*
X121230104Y-62539792D01*
X121230106Y-62539788D01*
X121230109Y-62539786D01*
X121301769Y-62441153D01*
X122809500Y-62441153D01*
X122809500Y-62598846D01*
X122840261Y-62753489D01*
X122840264Y-62753501D01*
X122900602Y-62899172D01*
X122900609Y-62899185D01*
X122988210Y-63030288D01*
X122988213Y-63030292D01*
X123099707Y-63141786D01*
X123099711Y-63141789D01*
X123230814Y-63229390D01*
X123230827Y-63229397D01*
X123317791Y-63265418D01*
X123376503Y-63289737D01*
X123529690Y-63320208D01*
X123531153Y-63320499D01*
X123531156Y-63320500D01*
X123531158Y-63320500D01*
X123688844Y-63320500D01*
X123688845Y-63320499D01*
X123843497Y-63289737D01*
X123987050Y-63230276D01*
X123989172Y-63229397D01*
X123989172Y-63229396D01*
X123989179Y-63229394D01*
X124120289Y-63141789D01*
X124231789Y-63030289D01*
X124319394Y-62899179D01*
X124329389Y-62875050D01*
X124348157Y-62829738D01*
X124379737Y-62753497D01*
X124410500Y-62598842D01*
X124410500Y-62441158D01*
X124410500Y-62441155D01*
X124410499Y-62441153D01*
X124395912Y-62367821D01*
X124379737Y-62286503D01*
X124368659Y-62259758D01*
X124319397Y-62140827D01*
X124319390Y-62140814D01*
X124231789Y-62009711D01*
X124231786Y-62009707D01*
X124120292Y-61898213D01*
X124120288Y-61898210D01*
X123989185Y-61810609D01*
X123989172Y-61810602D01*
X123843501Y-61750264D01*
X123843489Y-61750261D01*
X123688845Y-61719500D01*
X123688842Y-61719500D01*
X123531158Y-61719500D01*
X123531155Y-61719500D01*
X123376510Y-61750261D01*
X123376498Y-61750264D01*
X123230827Y-61810602D01*
X123230814Y-61810609D01*
X123099711Y-61898210D01*
X123099707Y-61898213D01*
X122988213Y-62009707D01*
X122988210Y-62009711D01*
X122900609Y-62140814D01*
X122900602Y-62140827D01*
X122840264Y-62286498D01*
X122840261Y-62286510D01*
X122809500Y-62441153D01*
X121301769Y-62441153D01*
X121319022Y-62417406D01*
X121355051Y-62367816D01*
X121451557Y-62178412D01*
X121517246Y-61976243D01*
X121550500Y-61766287D01*
X121550500Y-61553713D01*
X121517246Y-61343757D01*
X121451557Y-61141588D01*
X121355051Y-60952184D01*
X121355049Y-60952181D01*
X121355048Y-60952179D01*
X121230109Y-60780213D01*
X121079792Y-60629896D01*
X120992135Y-60566210D01*
X120907816Y-60504949D01*
X120891650Y-60496712D01*
X120884814Y-60491984D01*
X120867965Y-60471153D01*
X122989500Y-60471153D01*
X122989500Y-60628846D01*
X123020261Y-60783489D01*
X123020264Y-60783501D01*
X123080602Y-60929172D01*
X123080609Y-60929185D01*
X123168210Y-61060288D01*
X123168213Y-61060292D01*
X123279707Y-61171786D01*
X123279711Y-61171789D01*
X123410814Y-61259390D01*
X123410827Y-61259397D01*
X123547995Y-61316213D01*
X123556503Y-61319737D01*
X123677259Y-61343757D01*
X123711153Y-61350499D01*
X123711156Y-61350500D01*
X123711158Y-61350500D01*
X123868844Y-61350500D01*
X123868845Y-61350499D01*
X124023497Y-61319737D01*
X124169179Y-61259394D01*
X124300289Y-61171789D01*
X124411789Y-61060289D01*
X124499394Y-60929179D01*
X124559737Y-60783497D01*
X124590500Y-60628842D01*
X124590500Y-60471158D01*
X124590500Y-60471155D01*
X124590499Y-60471153D01*
X124586291Y-60450000D01*
X124559737Y-60316503D01*
X124556208Y-60307982D01*
X124499397Y-60170827D01*
X124499390Y-60170814D01*
X124411789Y-60039711D01*
X124411786Y-60039707D01*
X124300292Y-59928213D01*
X124300288Y-59928210D01*
X124169185Y-59840609D01*
X124169172Y-59840602D01*
X124023501Y-59780264D01*
X124023489Y-59780261D01*
X123868845Y-59749500D01*
X123868842Y-59749500D01*
X123711158Y-59749500D01*
X123711155Y-59749500D01*
X123556510Y-59780261D01*
X123556498Y-59780264D01*
X123410827Y-59840602D01*
X123410814Y-59840609D01*
X123279711Y-59928210D01*
X123279707Y-59928213D01*
X123168213Y-60039707D01*
X123168210Y-60039711D01*
X123080609Y-60170814D01*
X123080602Y-60170827D01*
X123020264Y-60316498D01*
X123020261Y-60316510D01*
X122989500Y-60471153D01*
X120867965Y-60471153D01*
X120867861Y-60471024D01*
X120848259Y-60452512D01*
X120846216Y-60444265D01*
X120840874Y-60437660D01*
X120837943Y-60410860D01*
X120831463Y-60384692D01*
X120834203Y-60376649D01*
X120833280Y-60368205D01*
X120845302Y-60344077D01*
X120853999Y-60318556D01*
X120861074Y-60312425D01*
X120864441Y-60305669D01*
X120878621Y-60297220D01*
X120899054Y-60279515D01*
X120907816Y-60275051D01*
X120970658Y-60229394D01*
X121079786Y-60150109D01*
X121079788Y-60150106D01*
X121079792Y-60150104D01*
X121230104Y-59999792D01*
X121230106Y-59999788D01*
X121230109Y-59999786D01*
X121355048Y-59827820D01*
X121355050Y-59827817D01*
X121355051Y-59827816D01*
X121451557Y-59638412D01*
X121517246Y-59436243D01*
X121550500Y-59226287D01*
X121550500Y-59013713D01*
X121517246Y-58803757D01*
X121451557Y-58601588D01*
X121355051Y-58412184D01*
X121339773Y-58391155D01*
X121339772Y-58391153D01*
X123159500Y-58391153D01*
X123159500Y-58548846D01*
X123190261Y-58703489D01*
X123190264Y-58703501D01*
X123250602Y-58849172D01*
X123250609Y-58849185D01*
X123338210Y-58980288D01*
X123338213Y-58980292D01*
X123449707Y-59091786D01*
X123449711Y-59091789D01*
X123580814Y-59179390D01*
X123580827Y-59179397D01*
X123703512Y-59230214D01*
X123726503Y-59239737D01*
X123881153Y-59270499D01*
X123881156Y-59270500D01*
X123881158Y-59270500D01*
X124038844Y-59270500D01*
X124038845Y-59270499D01*
X124193497Y-59239737D01*
X124333786Y-59181628D01*
X124339172Y-59179397D01*
X124339172Y-59179396D01*
X124339179Y-59179394D01*
X124470289Y-59091789D01*
X124581789Y-58980289D01*
X124669394Y-58849179D01*
X124729737Y-58703497D01*
X124760500Y-58548842D01*
X124760500Y-58391158D01*
X124760500Y-58391155D01*
X124760499Y-58391153D01*
X124747943Y-58328030D01*
X124729737Y-58236503D01*
X124712374Y-58194585D01*
X124669397Y-58090827D01*
X124669390Y-58090814D01*
X124581789Y-57959711D01*
X124581786Y-57959707D01*
X124470292Y-57848213D01*
X124470288Y-57848210D01*
X124339185Y-57760609D01*
X124339172Y-57760602D01*
X124193501Y-57700264D01*
X124193489Y-57700261D01*
X124038845Y-57669500D01*
X124038842Y-57669500D01*
X123881158Y-57669500D01*
X123881155Y-57669500D01*
X123726510Y-57700261D01*
X123726498Y-57700264D01*
X123580827Y-57760602D01*
X123580814Y-57760609D01*
X123449711Y-57848210D01*
X123449707Y-57848213D01*
X123338213Y-57959707D01*
X123338210Y-57959711D01*
X123250609Y-58090814D01*
X123250602Y-58090827D01*
X123190264Y-58236498D01*
X123190261Y-58236510D01*
X123159500Y-58391153D01*
X121339772Y-58391153D01*
X121230109Y-58240213D01*
X121079786Y-58089890D01*
X120907820Y-57964951D01*
X120907115Y-57964591D01*
X120899054Y-57960485D01*
X120848259Y-57912512D01*
X120831463Y-57844692D01*
X120853999Y-57778556D01*
X120899054Y-57739515D01*
X120907816Y-57735051D01*
X120978769Y-57683501D01*
X121079786Y-57610109D01*
X121079788Y-57610106D01*
X121079792Y-57610104D01*
X121230104Y-57459792D01*
X121294504Y-57371153D01*
X125379500Y-57371153D01*
X125379500Y-57528846D01*
X125410261Y-57683489D01*
X125410264Y-57683501D01*
X125470602Y-57829172D01*
X125470609Y-57829185D01*
X125558210Y-57960288D01*
X125558213Y-57960292D01*
X125669707Y-58071786D01*
X125669711Y-58071789D01*
X125800814Y-58159390D01*
X125800827Y-58159397D01*
X125946498Y-58219735D01*
X125946503Y-58219737D01*
X126101153Y-58250499D01*
X126101156Y-58250500D01*
X126101158Y-58250500D01*
X126258844Y-58250500D01*
X126258845Y-58250499D01*
X126413497Y-58219737D01*
X126559179Y-58159394D01*
X126626040Y-58114718D01*
X126692716Y-58093840D01*
X126760096Y-58112324D01*
X126763822Y-58114718D01*
X126770815Y-58119390D01*
X126770821Y-58119394D01*
X126770823Y-58119395D01*
X126770827Y-58119397D01*
X126916498Y-58179735D01*
X126916503Y-58179737D01*
X127071153Y-58210499D01*
X127071156Y-58210500D01*
X127071158Y-58210500D01*
X127228844Y-58210500D01*
X127228845Y-58210499D01*
X127383497Y-58179737D01*
X127529179Y-58119394D01*
X127660289Y-58031789D01*
X127771789Y-57920289D01*
X127859394Y-57789179D01*
X127861636Y-57783767D01*
X136474847Y-57783767D01*
X136474847Y-57941460D01*
X136505608Y-58096103D01*
X136505611Y-58096115D01*
X136565949Y-58241785D01*
X136565951Y-58241789D01*
X136565953Y-58241793D01*
X136565956Y-58241797D01*
X136565958Y-58241801D01*
X136579021Y-58261352D01*
X136599898Y-58328030D01*
X136590480Y-58377692D01*
X136570263Y-58426502D01*
X136570261Y-58426505D01*
X136539500Y-58581153D01*
X136539500Y-58738846D01*
X136570261Y-58893489D01*
X136570264Y-58893501D01*
X136630602Y-59039172D01*
X136630609Y-59039185D01*
X136718210Y-59170288D01*
X136718213Y-59170292D01*
X136767053Y-59219132D01*
X136800538Y-59280455D01*
X136795554Y-59350147D01*
X136767054Y-59394493D01*
X136728158Y-59433389D01*
X136728154Y-59433394D01*
X136640553Y-59564497D01*
X136640546Y-59564510D01*
X136580208Y-59710181D01*
X136580205Y-59710193D01*
X136549444Y-59864836D01*
X136549444Y-60022529D01*
X136580205Y-60177172D01*
X136580208Y-60177184D01*
X136640546Y-60322855D01*
X136640553Y-60322868D01*
X136728154Y-60453971D01*
X136728157Y-60453975D01*
X136839651Y-60565469D01*
X136839655Y-60565472D01*
X136970761Y-60653075D01*
X136970763Y-60653075D01*
X136970765Y-60653077D01*
X137007185Y-60668162D01*
X137009318Y-60669046D01*
X137063722Y-60712886D01*
X137083483Y-60759415D01*
X137090261Y-60793491D01*
X137090264Y-60793501D01*
X137150602Y-60939172D01*
X137150609Y-60939185D01*
X137238210Y-61070288D01*
X137238213Y-61070292D01*
X137349707Y-61181786D01*
X137349711Y-61181789D01*
X137372288Y-61196875D01*
X137417093Y-61250488D01*
X137425800Y-61319813D01*
X137395645Y-61382840D01*
X137372289Y-61403079D01*
X137319707Y-61438213D01*
X137208213Y-61549707D01*
X137208210Y-61549711D01*
X137120609Y-61680814D01*
X137120602Y-61680827D01*
X137060264Y-61826498D01*
X137060261Y-61826510D01*
X137029500Y-61981153D01*
X137029500Y-62138846D01*
X137060261Y-62293489D01*
X137060264Y-62293501D01*
X137120602Y-62439172D01*
X137120609Y-62439185D01*
X137208210Y-62570288D01*
X137208213Y-62570292D01*
X137319707Y-62681786D01*
X137319711Y-62681789D01*
X137450814Y-62769390D01*
X137450827Y-62769397D01*
X137596498Y-62829735D01*
X137596503Y-62829737D01*
X137741385Y-62858556D01*
X137751153Y-62860499D01*
X137751156Y-62860500D01*
X137751158Y-62860500D01*
X137908844Y-62860500D01*
X137908845Y-62860499D01*
X138063497Y-62829737D01*
X138075308Y-62824844D01*
X138144774Y-62817375D01*
X138207254Y-62848648D01*
X138242908Y-62908736D01*
X138240416Y-62978561D01*
X138237322Y-62986857D01*
X138185999Y-63110763D01*
X138185996Y-63110775D01*
X138155235Y-63265418D01*
X138155235Y-63423111D01*
X138185996Y-63577754D01*
X138185999Y-63577766D01*
X138246337Y-63723437D01*
X138246344Y-63723450D01*
X138333945Y-63854553D01*
X138333948Y-63854557D01*
X138445442Y-63966051D01*
X138445446Y-63966054D01*
X138576549Y-64053655D01*
X138576562Y-64053662D01*
X138714541Y-64110814D01*
X138722238Y-64114002D01*
X138876888Y-64144764D01*
X138876891Y-64144765D01*
X138876893Y-64144765D01*
X139034579Y-64144765D01*
X139034580Y-64144764D01*
X139189232Y-64114002D01*
X139334914Y-64053659D01*
X139466024Y-63966054D01*
X139577524Y-63854554D01*
X139665129Y-63723444D01*
X139666448Y-63720261D01*
X139682467Y-63681585D01*
X139725472Y-63577762D01*
X139756235Y-63423107D01*
X139756235Y-63265423D01*
X139756235Y-63265420D01*
X139756234Y-63265418D01*
X139749068Y-63229394D01*
X139725472Y-63110768D01*
X139701342Y-63052512D01*
X139676284Y-62992015D01*
X139665130Y-62965089D01*
X139665129Y-62965086D01*
X139665127Y-62965083D01*
X139665125Y-62965079D01*
X139655484Y-62950650D01*
X147167168Y-62950650D01*
X147167168Y-63108343D01*
X147197929Y-63262986D01*
X147197932Y-63262998D01*
X147258270Y-63408669D01*
X147258277Y-63408682D01*
X147345878Y-63539785D01*
X147345881Y-63539789D01*
X147457375Y-63651283D01*
X147457379Y-63651286D01*
X147588482Y-63738887D01*
X147588495Y-63738894D01*
X147711238Y-63789735D01*
X147734171Y-63799234D01*
X147841077Y-63820499D01*
X147888821Y-63829996D01*
X147888824Y-63829997D01*
X147888826Y-63829997D01*
X148046512Y-63829997D01*
X148046513Y-63829996D01*
X148201165Y-63799234D01*
X148318062Y-63750814D01*
X148346840Y-63738894D01*
X148346840Y-63738893D01*
X148346847Y-63738891D01*
X148477957Y-63651286D01*
X148589457Y-63539786D01*
X148677062Y-63408676D01*
X148737405Y-63262994D01*
X148768168Y-63108339D01*
X148768168Y-62950655D01*
X148768168Y-62950652D01*
X148768167Y-62950650D01*
X148753044Y-62874622D01*
X148737405Y-62796000D01*
X148726383Y-62769390D01*
X148677065Y-62650324D01*
X148677058Y-62650311D01*
X148589457Y-62519208D01*
X148589454Y-62519204D01*
X148477960Y-62407710D01*
X148477956Y-62407707D01*
X148346853Y-62320106D01*
X148346840Y-62320099D01*
X148201169Y-62259761D01*
X148201157Y-62259758D01*
X148046513Y-62228997D01*
X148046510Y-62228997D01*
X147888826Y-62228997D01*
X147888823Y-62228997D01*
X147734178Y-62259758D01*
X147734166Y-62259761D01*
X147588495Y-62320099D01*
X147588482Y-62320106D01*
X147457379Y-62407707D01*
X147457375Y-62407710D01*
X147345881Y-62519204D01*
X147345878Y-62519208D01*
X147258277Y-62650311D01*
X147258270Y-62650324D01*
X147197932Y-62795995D01*
X147197929Y-62796007D01*
X147167168Y-62950650D01*
X139655484Y-62950650D01*
X139577524Y-62833976D01*
X139577521Y-62833972D01*
X139466027Y-62722478D01*
X139466023Y-62722475D01*
X139334920Y-62634874D01*
X139334907Y-62634867D01*
X139189236Y-62574529D01*
X139189224Y-62574526D01*
X139034580Y-62543765D01*
X139034577Y-62543765D01*
X138876893Y-62543765D01*
X138876890Y-62543765D01*
X138722245Y-62574526D01*
X138722234Y-62574529D01*
X138710421Y-62579422D01*
X138640951Y-62586888D01*
X138578473Y-62555610D01*
X138542823Y-62495520D01*
X138545320Y-62425695D01*
X138548406Y-62417420D01*
X138599737Y-62293497D01*
X138630500Y-62138842D01*
X138630500Y-61981158D01*
X138630500Y-61981155D01*
X138630499Y-61981153D01*
X138629499Y-61976126D01*
X138599737Y-61826503D01*
X138574795Y-61766287D01*
X138539397Y-61680827D01*
X138539390Y-61680814D01*
X138451789Y-61549711D01*
X138451786Y-61549707D01*
X138340292Y-61438213D01*
X138340286Y-61438208D01*
X138317710Y-61423123D01*
X138272906Y-61369510D01*
X138264199Y-61300185D01*
X138294354Y-61237158D01*
X138317707Y-61216922D01*
X138370289Y-61181789D01*
X138481789Y-61070289D01*
X138569394Y-60939179D01*
X138629737Y-60793497D01*
X138660500Y-60638842D01*
X138660500Y-60481158D01*
X138660500Y-60481155D01*
X138660499Y-60481153D01*
X138653161Y-60444265D01*
X138629737Y-60326503D01*
X138623906Y-60312425D01*
X138569394Y-60180820D01*
X138536207Y-60131153D01*
X147339500Y-60131153D01*
X147339500Y-60288846D01*
X147370261Y-60443489D01*
X147370264Y-60443501D01*
X147430602Y-60589172D01*
X147430609Y-60589185D01*
X147518210Y-60720288D01*
X147518213Y-60720292D01*
X147629707Y-60831786D01*
X147629711Y-60831789D01*
X147760814Y-60919390D01*
X147760827Y-60919397D01*
X147862472Y-60961499D01*
X147906503Y-60979737D01*
X148041290Y-61006548D01*
X148061153Y-61010499D01*
X148061156Y-61010500D01*
X148061158Y-61010500D01*
X148218844Y-61010500D01*
X148218845Y-61010499D01*
X148373497Y-60979737D01*
X148519179Y-60919394D01*
X148650289Y-60831789D01*
X148761789Y-60720289D01*
X148849394Y-60589179D01*
X148909737Y-60443497D01*
X148920528Y-60389243D01*
X148952912Y-60327335D01*
X149013627Y-60292760D01*
X149017927Y-60291824D01*
X149028420Y-60289737D01*
X149174102Y-60229394D01*
X149305212Y-60141789D01*
X149358404Y-60088597D01*
X149421020Y-60025982D01*
X149422338Y-60027300D01*
X149472868Y-59992857D01*
X149542712Y-59990964D01*
X149602492Y-60027133D01*
X149625574Y-60063391D01*
X149675604Y-60184176D01*
X149675609Y-60184185D01*
X149763210Y-60315288D01*
X149763213Y-60315292D01*
X149874707Y-60426786D01*
X149874711Y-60426789D01*
X150005814Y-60514390D01*
X150005827Y-60514397D01*
X150129128Y-60565469D01*
X150151503Y-60574737D01*
X150298185Y-60603914D01*
X150306153Y-60605499D01*
X150306156Y-60605500D01*
X150306158Y-60605500D01*
X150463844Y-60605500D01*
X150463845Y-60605499D01*
X150618497Y-60574737D01*
X150731166Y-60528067D01*
X150764172Y-60514397D01*
X150764172Y-60514396D01*
X150764179Y-60514394D01*
X150895289Y-60426789D01*
X151006789Y-60315289D01*
X151073065Y-60216099D01*
X151126677Y-60171295D01*
X151176167Y-60160991D01*
X151225134Y-60160991D01*
X151225135Y-60160990D01*
X151379787Y-60130228D01*
X151480294Y-60088596D01*
X151549760Y-60081128D01*
X151612239Y-60112403D01*
X151647892Y-60172491D01*
X151649361Y-60178965D01*
X151656652Y-60215620D01*
X151656655Y-60215629D01*
X151716993Y-60361300D01*
X151717000Y-60361313D01*
X151804601Y-60492416D01*
X151804604Y-60492420D01*
X151916098Y-60603914D01*
X151916102Y-60603917D01*
X152047205Y-60691518D01*
X152047218Y-60691525D01*
X152116669Y-60720292D01*
X152192894Y-60751865D01*
X152335383Y-60780208D01*
X152347544Y-60782627D01*
X152347547Y-60782628D01*
X152347549Y-60782628D01*
X152505235Y-60782628D01*
X152505236Y-60782627D01*
X152659888Y-60751865D01*
X152805570Y-60691522D01*
X152936680Y-60603917D01*
X153048180Y-60492417D01*
X153135785Y-60361307D01*
X153196128Y-60215625D01*
X153201223Y-60190009D01*
X153233605Y-60128100D01*
X153294320Y-60093523D01*
X153298649Y-60092582D01*
X153322876Y-60087762D01*
X153413497Y-60069737D01*
X153559179Y-60009394D01*
X153690289Y-59921789D01*
X153801789Y-59810289D01*
X153889394Y-59679179D01*
X153949737Y-59533497D01*
X153980500Y-59378842D01*
X153980500Y-59221158D01*
X153980500Y-59221155D01*
X153980499Y-59221153D01*
X153972637Y-59181628D01*
X153949737Y-59066503D01*
X153938416Y-59039172D01*
X153889397Y-58920827D01*
X153889390Y-58920814D01*
X153801789Y-58789711D01*
X153801786Y-58789707D01*
X153690292Y-58678213D01*
X153690288Y-58678210D01*
X153559185Y-58590609D01*
X153559172Y-58590602D01*
X153413501Y-58530264D01*
X153413489Y-58530261D01*
X153258845Y-58499500D01*
X153258842Y-58499500D01*
X153101158Y-58499500D01*
X153101155Y-58499500D01*
X152946510Y-58530261D01*
X152946498Y-58530264D01*
X152800827Y-58590602D01*
X152800814Y-58590609D01*
X152669711Y-58678210D01*
X152669707Y-58678213D01*
X152558213Y-58789707D01*
X152558210Y-58789711D01*
X152470609Y-58920814D01*
X152470602Y-58920827D01*
X152410264Y-59066498D01*
X152410261Y-59066508D01*
X152405167Y-59092120D01*
X152398577Y-59104716D01*
X152396634Y-59118801D01*
X152382705Y-59135060D01*
X152372782Y-59154031D01*
X152359543Y-59162097D01*
X152351178Y-59171863D01*
X152328095Y-59181259D01*
X152319157Y-59186706D01*
X152313510Y-59188398D01*
X152192894Y-59212391D01*
X152086572Y-59256430D01*
X152080543Y-59258238D01*
X152051646Y-59258401D01*
X152022919Y-59261490D01*
X152017138Y-59258596D01*
X152010675Y-59258633D01*
X151986275Y-59243146D01*
X151960440Y-59230214D01*
X151957142Y-59224656D01*
X151951684Y-59221192D01*
X151939529Y-59194971D01*
X151924788Y-59170125D01*
X151923319Y-59163651D01*
X151919549Y-59144701D01*
X151916027Y-59126994D01*
X151901445Y-59091789D01*
X151855687Y-58981318D01*
X151855680Y-58981305D01*
X151768079Y-58850202D01*
X151768076Y-58850198D01*
X151656582Y-58738704D01*
X151656578Y-58738701D01*
X151525475Y-58651100D01*
X151525462Y-58651093D01*
X151379791Y-58590755D01*
X151379779Y-58590752D01*
X151225135Y-58559991D01*
X151225132Y-58559991D01*
X151067448Y-58559991D01*
X151067445Y-58559991D01*
X150912800Y-58590752D01*
X150912788Y-58590755D01*
X150767117Y-58651093D01*
X150767104Y-58651100D01*
X150636001Y-58738701D01*
X150635997Y-58738704D01*
X150524500Y-58850201D01*
X150458225Y-58949391D01*
X150404613Y-58994196D01*
X150355123Y-59004500D01*
X150306155Y-59004500D01*
X150151510Y-59035261D01*
X150151498Y-59035264D01*
X150005827Y-59095602D01*
X150005814Y-59095609D01*
X149874711Y-59183210D01*
X149874707Y-59183213D01*
X149758903Y-59299018D01*
X149757591Y-59297706D01*
X149707008Y-59332157D01*
X149637164Y-59334023D01*
X149577398Y-59297831D01*
X149554348Y-59261607D01*
X149504320Y-59140827D01*
X149504313Y-59140814D01*
X149416712Y-59009711D01*
X149416709Y-59009707D01*
X149305215Y-58898213D01*
X149305211Y-58898210D01*
X149174108Y-58810609D01*
X149174095Y-58810602D01*
X149028424Y-58750264D01*
X149028412Y-58750261D01*
X148873768Y-58719500D01*
X148873765Y-58719500D01*
X148716081Y-58719500D01*
X148716078Y-58719500D01*
X148561433Y-58750261D01*
X148561421Y-58750264D01*
X148415750Y-58810602D01*
X148415737Y-58810609D01*
X148284634Y-58898210D01*
X148284630Y-58898213D01*
X148173136Y-59009707D01*
X148173133Y-59009711D01*
X148085532Y-59140814D01*
X148085525Y-59140827D01*
X148025187Y-59286498D01*
X148025184Y-59286508D01*
X148014394Y-59340755D01*
X147982009Y-59402666D01*
X147921293Y-59437240D01*
X147916974Y-59438179D01*
X147906511Y-59440260D01*
X147906498Y-59440264D01*
X147760827Y-59500602D01*
X147760814Y-59500609D01*
X147629711Y-59588210D01*
X147629707Y-59588213D01*
X147518213Y-59699707D01*
X147518210Y-59699711D01*
X147430609Y-59830814D01*
X147430602Y-59830827D01*
X147370264Y-59976498D01*
X147370261Y-59976510D01*
X147339500Y-60131153D01*
X138536207Y-60131153D01*
X138481789Y-60049711D01*
X138481786Y-60049707D01*
X138370292Y-59938213D01*
X138370288Y-59938210D01*
X138239185Y-59850609D01*
X138239179Y-59850606D01*
X138200622Y-59834635D01*
X138146219Y-59790793D01*
X138126459Y-59744266D01*
X138119681Y-59710186D01*
X138089952Y-59638414D01*
X138059341Y-59564510D01*
X138059334Y-59564497D01*
X137971733Y-59433394D01*
X137971730Y-59433390D01*
X137922890Y-59384550D01*
X137889405Y-59323227D01*
X137894389Y-59253535D01*
X137922891Y-59209187D01*
X137961786Y-59170292D01*
X137961789Y-59170289D01*
X138049394Y-59039179D01*
X138061602Y-59009707D01*
X138067521Y-58995418D01*
X142265235Y-58995418D01*
X142265235Y-59153111D01*
X142295996Y-59307754D01*
X142295999Y-59307766D01*
X142356337Y-59453437D01*
X142356344Y-59453450D01*
X142443945Y-59584553D01*
X142443948Y-59584557D01*
X142555442Y-59696051D01*
X142555446Y-59696054D01*
X142686549Y-59783655D01*
X142686562Y-59783662D01*
X142832233Y-59844000D01*
X142832238Y-59844002D01*
X142986888Y-59874764D01*
X142986891Y-59874765D01*
X142986893Y-59874765D01*
X143144579Y-59874765D01*
X143144580Y-59874764D01*
X143299232Y-59844002D01*
X143444914Y-59783659D01*
X143576024Y-59696054D01*
X143687524Y-59584554D01*
X143775129Y-59453444D01*
X143782256Y-59436239D01*
X143806030Y-59378842D01*
X143835472Y-59307762D01*
X143866235Y-59153107D01*
X143866235Y-58995423D01*
X143866235Y-58995420D01*
X143866234Y-58995418D01*
X143863224Y-58980288D01*
X143835472Y-58840768D01*
X143820190Y-58803873D01*
X143775132Y-58695092D01*
X143775125Y-58695079D01*
X143687524Y-58563976D01*
X143687521Y-58563972D01*
X143576027Y-58452478D01*
X143576023Y-58452475D01*
X143444920Y-58364874D01*
X143444907Y-58364867D01*
X143299236Y-58304529D01*
X143299224Y-58304526D01*
X143144580Y-58273765D01*
X143144577Y-58273765D01*
X142986893Y-58273765D01*
X142986890Y-58273765D01*
X142832245Y-58304526D01*
X142832233Y-58304529D01*
X142686562Y-58364867D01*
X142686549Y-58364874D01*
X142555446Y-58452475D01*
X142555442Y-58452478D01*
X142443948Y-58563972D01*
X142443945Y-58563976D01*
X142356344Y-58695079D01*
X142356337Y-58695092D01*
X142295999Y-58840763D01*
X142295996Y-58840775D01*
X142265235Y-58995418D01*
X138067521Y-58995418D01*
X138089697Y-58941879D01*
X138099485Y-58918245D01*
X138109737Y-58893497D01*
X138140500Y-58738842D01*
X138140500Y-58581158D01*
X138140500Y-58581155D01*
X138140499Y-58581153D01*
X138118845Y-58472293D01*
X138109737Y-58426503D01*
X138095097Y-58391158D01*
X138049397Y-58280828D01*
X138049396Y-58280827D01*
X138049394Y-58280821D01*
X138036324Y-58261261D01*
X138015447Y-58194585D01*
X138024865Y-58144921D01*
X138045084Y-58096111D01*
X138075847Y-57941456D01*
X138075847Y-57783772D01*
X138075847Y-57783769D01*
X138075846Y-57783767D01*
X138074809Y-57778556D01*
X138045084Y-57629117D01*
X138037209Y-57610104D01*
X137984744Y-57483441D01*
X137984737Y-57483428D01*
X137897136Y-57352325D01*
X137897133Y-57352321D01*
X137785639Y-57240827D01*
X137785635Y-57240824D01*
X137654532Y-57153223D01*
X137654519Y-57153216D01*
X137508848Y-57092878D01*
X137508836Y-57092875D01*
X137354192Y-57062114D01*
X137354189Y-57062114D01*
X137196505Y-57062114D01*
X137196502Y-57062114D01*
X137041857Y-57092875D01*
X137041845Y-57092878D01*
X136896174Y-57153216D01*
X136896161Y-57153223D01*
X136765058Y-57240824D01*
X136765054Y-57240827D01*
X136653560Y-57352321D01*
X136653557Y-57352325D01*
X136565956Y-57483428D01*
X136565949Y-57483441D01*
X136505611Y-57629112D01*
X136505608Y-57629124D01*
X136474847Y-57783767D01*
X127861636Y-57783767D01*
X127879966Y-57739514D01*
X127883813Y-57730227D01*
X127883813Y-57730225D01*
X127896224Y-57700264D01*
X127919737Y-57643497D01*
X127950500Y-57488842D01*
X127950500Y-57331158D01*
X127950500Y-57331155D01*
X127950499Y-57331153D01*
X127932532Y-57240827D01*
X127919737Y-57176503D01*
X127892398Y-57110500D01*
X127859397Y-57030827D01*
X127859390Y-57030814D01*
X127771789Y-56899711D01*
X127771786Y-56899707D01*
X127660292Y-56788213D01*
X127660288Y-56788210D01*
X127529185Y-56700609D01*
X127529172Y-56700602D01*
X127383501Y-56640264D01*
X127383489Y-56640261D01*
X127228845Y-56609500D01*
X127228842Y-56609500D01*
X127071158Y-56609500D01*
X127071155Y-56609500D01*
X126916510Y-56640261D01*
X126916498Y-56640264D01*
X126770827Y-56700602D01*
X126770816Y-56700608D01*
X126703957Y-56745282D01*
X126637279Y-56766159D01*
X126569899Y-56747674D01*
X126566178Y-56745282D01*
X126559179Y-56740605D01*
X126559177Y-56740604D01*
X126413501Y-56680264D01*
X126413489Y-56680261D01*
X126258845Y-56649500D01*
X126258842Y-56649500D01*
X126101158Y-56649500D01*
X126101155Y-56649500D01*
X125946510Y-56680261D01*
X125946498Y-56680264D01*
X125800827Y-56740602D01*
X125800814Y-56740609D01*
X125669711Y-56828210D01*
X125669707Y-56828213D01*
X125558213Y-56939707D01*
X125558210Y-56939711D01*
X125470609Y-57070814D01*
X125470602Y-57070827D01*
X125410264Y-57216498D01*
X125410261Y-57216510D01*
X125379500Y-57371153D01*
X121294504Y-57371153D01*
X121355051Y-57287816D01*
X121451557Y-57098412D01*
X121517246Y-56896243D01*
X121550500Y-56686287D01*
X121550500Y-56473713D01*
X121517246Y-56263757D01*
X121506652Y-56231153D01*
X156829500Y-56231153D01*
X156829500Y-56388846D01*
X156860261Y-56543489D01*
X156860264Y-56543501D01*
X156920602Y-56689172D01*
X156920609Y-56689185D01*
X157008210Y-56820288D01*
X157008213Y-56820292D01*
X157119707Y-56931786D01*
X157119711Y-56931789D01*
X157250814Y-57019390D01*
X157250827Y-57019397D01*
X157374992Y-57070827D01*
X157396503Y-57079737D01*
X157528158Y-57105925D01*
X157551153Y-57110499D01*
X157551156Y-57110500D01*
X157551158Y-57110500D01*
X157708844Y-57110500D01*
X157708845Y-57110499D01*
X157863497Y-57079737D01*
X157981592Y-57030821D01*
X158009172Y-57019397D01*
X158009172Y-57019396D01*
X158009179Y-57019394D01*
X158140289Y-56931789D01*
X158251789Y-56820289D01*
X158339394Y-56689179D01*
X158399737Y-56543497D01*
X158430500Y-56388842D01*
X158430500Y-56231158D01*
X158430500Y-56231155D01*
X158430499Y-56231153D01*
X158412367Y-56140000D01*
X158399737Y-56076503D01*
X158399735Y-56076498D01*
X158339397Y-55930827D01*
X158339390Y-55930814D01*
X158251789Y-55799711D01*
X158251786Y-55799707D01*
X158140292Y-55688213D01*
X158140288Y-55688210D01*
X158009185Y-55600609D01*
X158009172Y-55600602D01*
X157863501Y-55540264D01*
X157863489Y-55540261D01*
X157708845Y-55509500D01*
X157708842Y-55509500D01*
X157551158Y-55509500D01*
X157551155Y-55509500D01*
X157396510Y-55540261D01*
X157396498Y-55540264D01*
X157250827Y-55600602D01*
X157250814Y-55600609D01*
X157119711Y-55688210D01*
X157119707Y-55688213D01*
X157008213Y-55799707D01*
X157008210Y-55799711D01*
X156920609Y-55930814D01*
X156920602Y-55930827D01*
X156860264Y-56076498D01*
X156860261Y-56076510D01*
X156829500Y-56231153D01*
X121506652Y-56231153D01*
X121451557Y-56061588D01*
X121355051Y-55872184D01*
X121355049Y-55872181D01*
X121355048Y-55872179D01*
X121230109Y-55700213D01*
X121079786Y-55549890D01*
X120907820Y-55424951D01*
X120907115Y-55424591D01*
X120899054Y-55420485D01*
X120848259Y-55372512D01*
X120831463Y-55304692D01*
X120853999Y-55238556D01*
X120899054Y-55199515D01*
X120907816Y-55195051D01*
X120997209Y-55130104D01*
X121079786Y-55070109D01*
X121079788Y-55070106D01*
X121079792Y-55070104D01*
X121230104Y-54919792D01*
X121230106Y-54919788D01*
X121230109Y-54919786D01*
X121355048Y-54747820D01*
X121355050Y-54747817D01*
X121355051Y-54747816D01*
X121451557Y-54558412D01*
X121517246Y-54356243D01*
X121550500Y-54146287D01*
X121550500Y-53933713D01*
X121517246Y-53723757D01*
X121451557Y-53521588D01*
X121390365Y-53401492D01*
X121375013Y-53371361D01*
X121375012Y-53371359D01*
X121355050Y-53332182D01*
X121347037Y-53321153D01*
X138469500Y-53321153D01*
X138469500Y-53478846D01*
X138500261Y-53633489D01*
X138500264Y-53633501D01*
X138560602Y-53779172D01*
X138560609Y-53779185D01*
X138648210Y-53910288D01*
X138648213Y-53910292D01*
X138759707Y-54021786D01*
X138759711Y-54021789D01*
X138890814Y-54109390D01*
X138890827Y-54109397D01*
X138979889Y-54146287D01*
X139036503Y-54169737D01*
X139191153Y-54200499D01*
X139191156Y-54200500D01*
X139191158Y-54200500D01*
X139348844Y-54200500D01*
X139348845Y-54200499D01*
X139503497Y-54169737D01*
X139649179Y-54109394D01*
X139780289Y-54021789D01*
X139891789Y-53910289D01*
X139979394Y-53779179D01*
X140039737Y-53633497D01*
X140070500Y-53478842D01*
X140070500Y-53321158D01*
X140067385Y-53305500D01*
X140064531Y-53291153D01*
X140499500Y-53291153D01*
X140499500Y-53448846D01*
X140530261Y-53603489D01*
X140530264Y-53603501D01*
X140590602Y-53749172D01*
X140590609Y-53749185D01*
X140678210Y-53880288D01*
X140678213Y-53880292D01*
X140789707Y-53991786D01*
X140789711Y-53991789D01*
X140920814Y-54079390D01*
X140920827Y-54079397D01*
X141066498Y-54139735D01*
X141066503Y-54139737D01*
X141217312Y-54169735D01*
X141221153Y-54170499D01*
X141221156Y-54170500D01*
X141221158Y-54170500D01*
X141378844Y-54170500D01*
X141378845Y-54170499D01*
X141533497Y-54139737D01*
X141679179Y-54079394D01*
X141810289Y-53991789D01*
X141921789Y-53880289D01*
X142009394Y-53749179D01*
X142069737Y-53603497D01*
X142100500Y-53448842D01*
X142100500Y-53291158D01*
X142100500Y-53291155D01*
X142100499Y-53291153D01*
X142085231Y-53214397D01*
X142069737Y-53136503D01*
X142069735Y-53136498D01*
X142009397Y-52990827D01*
X142009390Y-52990814D01*
X141921789Y-52859711D01*
X141921786Y-52859707D01*
X141810292Y-52748213D01*
X141810288Y-52748210D01*
X141679185Y-52660609D01*
X141679172Y-52660602D01*
X141533501Y-52600264D01*
X141533489Y-52600261D01*
X141378845Y-52569500D01*
X141378842Y-52569500D01*
X141221158Y-52569500D01*
X141221155Y-52569500D01*
X141066510Y-52600261D01*
X141066498Y-52600264D01*
X140920827Y-52660602D01*
X140920814Y-52660609D01*
X140789711Y-52748210D01*
X140789707Y-52748213D01*
X140678213Y-52859707D01*
X140678210Y-52859711D01*
X140590609Y-52990814D01*
X140590602Y-52990827D01*
X140530264Y-53136498D01*
X140530261Y-53136510D01*
X140499500Y-53291153D01*
X140064531Y-53291153D01*
X140039738Y-53166510D01*
X140039737Y-53166503D01*
X140023286Y-53126786D01*
X139979397Y-53020827D01*
X139979390Y-53020814D01*
X139891789Y-52889711D01*
X139891786Y-52889707D01*
X139780292Y-52778213D01*
X139780288Y-52778210D01*
X139649185Y-52690609D01*
X139649172Y-52690602D01*
X139503501Y-52630264D01*
X139503489Y-52630261D01*
X139348845Y-52599500D01*
X139348842Y-52599500D01*
X139191158Y-52599500D01*
X139191155Y-52599500D01*
X139036510Y-52630261D01*
X139036498Y-52630264D01*
X138890827Y-52690602D01*
X138890814Y-52690609D01*
X138759711Y-52778210D01*
X138759707Y-52778213D01*
X138648213Y-52889707D01*
X138648210Y-52889711D01*
X138560609Y-53020814D01*
X138560602Y-53020827D01*
X138500264Y-53166498D01*
X138500261Y-53166510D01*
X138469500Y-53321153D01*
X121347037Y-53321153D01*
X121230109Y-53160213D01*
X121079786Y-53009890D01*
X120907820Y-52884951D01*
X120907115Y-52884591D01*
X120899054Y-52880485D01*
X120848259Y-52832512D01*
X120831463Y-52764692D01*
X120853999Y-52698556D01*
X120899054Y-52659515D01*
X120907816Y-52655051D01*
X120941937Y-52630261D01*
X121079786Y-52530109D01*
X121079788Y-52530106D01*
X121079792Y-52530104D01*
X121230104Y-52379792D01*
X121230106Y-52379788D01*
X121230109Y-52379786D01*
X121323565Y-52251153D01*
X130949500Y-52251153D01*
X130949500Y-52408846D01*
X130980261Y-52563489D01*
X130980264Y-52563501D01*
X131040602Y-52709172D01*
X131040609Y-52709185D01*
X131128210Y-52840288D01*
X131128213Y-52840292D01*
X131239707Y-52951786D01*
X131239711Y-52951789D01*
X131370814Y-53039390D01*
X131370827Y-53039397D01*
X131445377Y-53070276D01*
X131516503Y-53099737D01*
X131652487Y-53126786D01*
X131671153Y-53130499D01*
X131671156Y-53130500D01*
X131671158Y-53130500D01*
X131828844Y-53130500D01*
X131828845Y-53130499D01*
X131983497Y-53099737D01*
X132129179Y-53039394D01*
X132260289Y-52951789D01*
X132371789Y-52840289D01*
X132459394Y-52709179D01*
X132519737Y-52563497D01*
X132547056Y-52426158D01*
X132547057Y-52426153D01*
X142424500Y-52426153D01*
X142424500Y-52583846D01*
X142455261Y-52738489D01*
X142455264Y-52738501D01*
X142515602Y-52884172D01*
X142515609Y-52884185D01*
X142603210Y-53015288D01*
X142603213Y-53015292D01*
X142714707Y-53126786D01*
X142714711Y-53126789D01*
X142845814Y-53214390D01*
X142845827Y-53214397D01*
X142991498Y-53274735D01*
X142991503Y-53274737D01*
X143146153Y-53305499D01*
X143146156Y-53305500D01*
X143146158Y-53305500D01*
X143303844Y-53305500D01*
X143303845Y-53305499D01*
X143458497Y-53274737D01*
X143604179Y-53214394D01*
X143735289Y-53126789D01*
X143846789Y-53015289D01*
X143934394Y-52884179D01*
X143994737Y-52738497D01*
X144025500Y-52583842D01*
X144025500Y-52426158D01*
X144025500Y-52426155D01*
X144025499Y-52426153D01*
X143994738Y-52271510D01*
X143994737Y-52271503D01*
X143994735Y-52271498D01*
X143934397Y-52125827D01*
X143934390Y-52125814D01*
X143846789Y-51994711D01*
X143846786Y-51994707D01*
X143735292Y-51883213D01*
X143735288Y-51883210D01*
X143604185Y-51795609D01*
X143604172Y-51795602D01*
X143458501Y-51735264D01*
X143458489Y-51735261D01*
X143303845Y-51704500D01*
X143303842Y-51704500D01*
X143146158Y-51704500D01*
X143146155Y-51704500D01*
X142991510Y-51735261D01*
X142991498Y-51735264D01*
X142845827Y-51795602D01*
X142845814Y-51795609D01*
X142714711Y-51883210D01*
X142714707Y-51883213D01*
X142603213Y-51994707D01*
X142603210Y-51994711D01*
X142515609Y-52125814D01*
X142515602Y-52125827D01*
X142455264Y-52271498D01*
X142455261Y-52271510D01*
X142424500Y-52426153D01*
X132547057Y-52426153D01*
X132550500Y-52408845D01*
X132550500Y-52251155D01*
X132550499Y-52251153D01*
X132531064Y-52153447D01*
X132519737Y-52096503D01*
X132516935Y-52089738D01*
X132459397Y-51950827D01*
X132459390Y-51950814D01*
X132371789Y-51819711D01*
X132371786Y-51819707D01*
X132260292Y-51708213D01*
X132260288Y-51708210D01*
X132129185Y-51620609D01*
X132129172Y-51620602D01*
X131983501Y-51560264D01*
X131983489Y-51560261D01*
X131828845Y-51529500D01*
X131828842Y-51529500D01*
X131671158Y-51529500D01*
X131671155Y-51529500D01*
X131516510Y-51560261D01*
X131516498Y-51560264D01*
X131370827Y-51620602D01*
X131370814Y-51620609D01*
X131239711Y-51708210D01*
X131239707Y-51708213D01*
X131128213Y-51819707D01*
X131128210Y-51819711D01*
X131040609Y-51950814D01*
X131040602Y-51950827D01*
X130980264Y-52096498D01*
X130980261Y-52096510D01*
X130949500Y-52251153D01*
X121323565Y-52251153D01*
X121355050Y-52207817D01*
X121355105Y-52207711D01*
X121363665Y-52190911D01*
X121364756Y-52188770D01*
X121411764Y-52096510D01*
X121451557Y-52018412D01*
X121517246Y-51816243D01*
X121550500Y-51606287D01*
X121550500Y-51393713D01*
X121526337Y-51241153D01*
X123029500Y-51241153D01*
X123029500Y-51398846D01*
X123060261Y-51553489D01*
X123060264Y-51553501D01*
X123120602Y-51699172D01*
X123120609Y-51699185D01*
X123208210Y-51830288D01*
X123208213Y-51830292D01*
X123319707Y-51941786D01*
X123319711Y-51941789D01*
X123450814Y-52029390D01*
X123450827Y-52029397D01*
X123596498Y-52089735D01*
X123596503Y-52089737D01*
X123751153Y-52120499D01*
X123751156Y-52120500D01*
X123751158Y-52120500D01*
X123908844Y-52120500D01*
X123908845Y-52120499D01*
X124063497Y-52089737D01*
X124209179Y-52029394D01*
X124340289Y-51941789D01*
X124451789Y-51830289D01*
X124539394Y-51699179D01*
X124599737Y-51553497D01*
X124630500Y-51398842D01*
X124630500Y-51241158D01*
X124630500Y-51241155D01*
X124630499Y-51241153D01*
X124619105Y-51183873D01*
X124599737Y-51086503D01*
X124581133Y-51041588D01*
X124539397Y-50940827D01*
X124539390Y-50940814D01*
X124451789Y-50809711D01*
X124451786Y-50809707D01*
X124340292Y-50698213D01*
X124340288Y-50698210D01*
X124209185Y-50610609D01*
X124209172Y-50610602D01*
X124063501Y-50550264D01*
X124063489Y-50550261D01*
X123908845Y-50519500D01*
X123908842Y-50519500D01*
X123751158Y-50519500D01*
X123751155Y-50519500D01*
X123596510Y-50550261D01*
X123596498Y-50550264D01*
X123450827Y-50610602D01*
X123450814Y-50610609D01*
X123319711Y-50698210D01*
X123319707Y-50698213D01*
X123208213Y-50809707D01*
X123208210Y-50809711D01*
X123120609Y-50940814D01*
X123120602Y-50940827D01*
X123060264Y-51086498D01*
X123060261Y-51086510D01*
X123029500Y-51241153D01*
X121526337Y-51241153D01*
X121517246Y-51183757D01*
X121451557Y-50981588D01*
X121355051Y-50792184D01*
X121355049Y-50792181D01*
X121355048Y-50792179D01*
X121230109Y-50620213D01*
X121079786Y-50469890D01*
X120907820Y-50344951D01*
X120907115Y-50344591D01*
X120899054Y-50340485D01*
X120848259Y-50292512D01*
X120831463Y-50224692D01*
X120853999Y-50158556D01*
X120899054Y-50119515D01*
X120907816Y-50115051D01*
X120995765Y-50051153D01*
X136319500Y-50051153D01*
X136319500Y-50208846D01*
X136350261Y-50363489D01*
X136350264Y-50363501D01*
X136410602Y-50509172D01*
X136410609Y-50509185D01*
X136498210Y-50640288D01*
X136498213Y-50640292D01*
X136609707Y-50751786D01*
X136609711Y-50751789D01*
X136740814Y-50839390D01*
X136740827Y-50839397D01*
X136886498Y-50899735D01*
X136886503Y-50899737D01*
X137041153Y-50930499D01*
X137041156Y-50930500D01*
X137041158Y-50930500D01*
X137198844Y-50930500D01*
X137198845Y-50930499D01*
X137353497Y-50899737D01*
X137499179Y-50839394D01*
X137630289Y-50751789D01*
X137741789Y-50640289D01*
X137829394Y-50509179D01*
X137889737Y-50363497D01*
X137920500Y-50208842D01*
X137920500Y-50051158D01*
X137920500Y-50051155D01*
X137920499Y-50051153D01*
X137920215Y-50049723D01*
X137889737Y-49896503D01*
X137866109Y-49839459D01*
X137829397Y-49750827D01*
X137829390Y-49750814D01*
X137741789Y-49619711D01*
X137741786Y-49619707D01*
X137630292Y-49508213D01*
X137630288Y-49508210D01*
X137499185Y-49420609D01*
X137499172Y-49420602D01*
X137353501Y-49360264D01*
X137353489Y-49360261D01*
X137198845Y-49329500D01*
X137198842Y-49329500D01*
X137041158Y-49329500D01*
X137041155Y-49329500D01*
X136886510Y-49360261D01*
X136886498Y-49360264D01*
X136740827Y-49420602D01*
X136740814Y-49420609D01*
X136609711Y-49508210D01*
X136609707Y-49508213D01*
X136498213Y-49619707D01*
X136498210Y-49619711D01*
X136410609Y-49750814D01*
X136410602Y-49750827D01*
X136350264Y-49896498D01*
X136350261Y-49896510D01*
X136319500Y-50051153D01*
X120995765Y-50051153D01*
X120997209Y-50050104D01*
X121079786Y-49990109D01*
X121079788Y-49990106D01*
X121079792Y-49990104D01*
X121230104Y-49839792D01*
X121230106Y-49839788D01*
X121230109Y-49839786D01*
X121355048Y-49667820D01*
X121355050Y-49667817D01*
X121355051Y-49667816D01*
X121451557Y-49478412D01*
X121517246Y-49276243D01*
X121550500Y-49066287D01*
X121550500Y-48853713D01*
X121517246Y-48643757D01*
X121451557Y-48441588D01*
X121355051Y-48252184D01*
X121355049Y-48252181D01*
X121355048Y-48252179D01*
X121230109Y-48080213D01*
X121079786Y-47929890D01*
X120907820Y-47804951D01*
X120907115Y-47804591D01*
X120899054Y-47800485D01*
X120848259Y-47752512D01*
X120831463Y-47684692D01*
X120853999Y-47618556D01*
X120899054Y-47579515D01*
X120907816Y-47575051D01*
X120997209Y-47510104D01*
X121079786Y-47450109D01*
X121079788Y-47450106D01*
X121079792Y-47450104D01*
X121230104Y-47299792D01*
X121230106Y-47299788D01*
X121230109Y-47299786D01*
X121311457Y-47187818D01*
X121355051Y-47127816D01*
X121373732Y-47091153D01*
X126689500Y-47091153D01*
X126689500Y-47248846D01*
X126720261Y-47403489D01*
X126720264Y-47403501D01*
X126780602Y-47549172D01*
X126780609Y-47549185D01*
X126868210Y-47680288D01*
X126868213Y-47680292D01*
X126979707Y-47791786D01*
X126979711Y-47791789D01*
X127110814Y-47879390D01*
X127110827Y-47879397D01*
X127233652Y-47930272D01*
X127256503Y-47939737D01*
X127411153Y-47970499D01*
X127411156Y-47970500D01*
X127411158Y-47970500D01*
X127568844Y-47970500D01*
X127568845Y-47970499D01*
X127723497Y-47939737D01*
X127869179Y-47879394D01*
X128000289Y-47791789D01*
X128111789Y-47680289D01*
X128199394Y-47549179D01*
X128259737Y-47403497D01*
X128290500Y-47248842D01*
X128290500Y-47091158D01*
X128290500Y-47091155D01*
X128290499Y-47091153D01*
X128285836Y-47067709D01*
X128259737Y-46936503D01*
X128236374Y-46880099D01*
X128199397Y-46790827D01*
X128199390Y-46790814D01*
X128111789Y-46659711D01*
X128111786Y-46659707D01*
X128000292Y-46548213D01*
X128000288Y-46548210D01*
X127869185Y-46460609D01*
X127869172Y-46460602D01*
X127723501Y-46400264D01*
X127723489Y-46400261D01*
X127568845Y-46369500D01*
X127568842Y-46369500D01*
X127411158Y-46369500D01*
X127411155Y-46369500D01*
X127256510Y-46400261D01*
X127256498Y-46400264D01*
X127110827Y-46460602D01*
X127110814Y-46460609D01*
X126979711Y-46548210D01*
X126979707Y-46548213D01*
X126868213Y-46659707D01*
X126868210Y-46659711D01*
X126780609Y-46790814D01*
X126780602Y-46790827D01*
X126720264Y-46936498D01*
X126720261Y-46936510D01*
X126689500Y-47091153D01*
X121373732Y-47091153D01*
X121451557Y-46938412D01*
X121517246Y-46736243D01*
X121550500Y-46526287D01*
X121550500Y-46313713D01*
X121517246Y-46103757D01*
X121451557Y-45901588D01*
X121355051Y-45712184D01*
X121355049Y-45712181D01*
X121355048Y-45712179D01*
X121230109Y-45540213D01*
X121079786Y-45389890D01*
X120907820Y-45264951D01*
X120907115Y-45264591D01*
X120899054Y-45260485D01*
X120848259Y-45212512D01*
X120831463Y-45144692D01*
X120853999Y-45078556D01*
X120899054Y-45039515D01*
X120907816Y-45035051D01*
X120997209Y-44970104D01*
X121079786Y-44910109D01*
X121079788Y-44910106D01*
X121079792Y-44910104D01*
X121230104Y-44759792D01*
X121230106Y-44759788D01*
X121230109Y-44759786D01*
X121355048Y-44587820D01*
X121355050Y-44587817D01*
X121355051Y-44587816D01*
X121451557Y-44398412D01*
X121517246Y-44196243D01*
X121550500Y-43986287D01*
X121550500Y-43773713D01*
X121518417Y-43571153D01*
X147399500Y-43571153D01*
X147399500Y-43728846D01*
X147430261Y-43883489D01*
X147430264Y-43883501D01*
X147490602Y-44029172D01*
X147490609Y-44029185D01*
X147578210Y-44160288D01*
X147578213Y-44160292D01*
X147689707Y-44271786D01*
X147689711Y-44271789D01*
X147820814Y-44359390D01*
X147820827Y-44359397D01*
X147966498Y-44419735D01*
X147966503Y-44419737D01*
X148121153Y-44450499D01*
X148121156Y-44450500D01*
X148121158Y-44450500D01*
X148278844Y-44450500D01*
X148278845Y-44450499D01*
X148433497Y-44419737D01*
X148579179Y-44359394D01*
X148710289Y-44271789D01*
X148821789Y-44160289D01*
X148909394Y-44029179D01*
X148969737Y-43883497D01*
X149000500Y-43728842D01*
X149000500Y-43571158D01*
X149000500Y-43571155D01*
X149000499Y-43571153D01*
X148999028Y-43563757D01*
X148969737Y-43416503D01*
X148946991Y-43361588D01*
X148909397Y-43270827D01*
X148909390Y-43270814D01*
X148821789Y-43139711D01*
X148821786Y-43139707D01*
X148710292Y-43028213D01*
X148710288Y-43028210D01*
X148579185Y-42940609D01*
X148579172Y-42940602D01*
X148433501Y-42880264D01*
X148433489Y-42880261D01*
X148278845Y-42849500D01*
X148278842Y-42849500D01*
X148121158Y-42849500D01*
X148121155Y-42849500D01*
X147966510Y-42880261D01*
X147966498Y-42880264D01*
X147820827Y-42940602D01*
X147820814Y-42940609D01*
X147689711Y-43028210D01*
X147689707Y-43028213D01*
X147578213Y-43139707D01*
X147578210Y-43139711D01*
X147490609Y-43270814D01*
X147490602Y-43270827D01*
X147430264Y-43416498D01*
X147430261Y-43416510D01*
X147399500Y-43571153D01*
X121518417Y-43571153D01*
X121517246Y-43563757D01*
X121451557Y-43361588D01*
X121355051Y-43172184D01*
X121355049Y-43172181D01*
X121355048Y-43172179D01*
X121230109Y-43000213D01*
X121079786Y-42849890D01*
X120907820Y-42724951D01*
X120907115Y-42724591D01*
X120899054Y-42720485D01*
X120848259Y-42672512D01*
X120831463Y-42604692D01*
X120853999Y-42538556D01*
X120899054Y-42499515D01*
X120907816Y-42495051D01*
X120997209Y-42430104D01*
X121079786Y-42370109D01*
X121079788Y-42370106D01*
X121079792Y-42370104D01*
X121230104Y-42219792D01*
X121230106Y-42219788D01*
X121230109Y-42219786D01*
X121355048Y-42047820D01*
X121355050Y-42047817D01*
X121355051Y-42047816D01*
X121451557Y-41858412D01*
X121517246Y-41656243D01*
X121550500Y-41446287D01*
X121550500Y-41293713D01*
X174409500Y-41293713D01*
X174409500Y-41506287D01*
X174442754Y-41716243D01*
X174488948Y-41858414D01*
X174508444Y-41918414D01*
X174604951Y-42107820D01*
X174729890Y-42279786D01*
X174880213Y-42430109D01*
X175052182Y-42555050D01*
X175060946Y-42559516D01*
X175111742Y-42607491D01*
X175128536Y-42675312D01*
X175105998Y-42741447D01*
X175060946Y-42780484D01*
X175052182Y-42784949D01*
X174880213Y-42909890D01*
X174729890Y-43060213D01*
X174604951Y-43232179D01*
X174508444Y-43421585D01*
X174442753Y-43623760D01*
X174426109Y-43728846D01*
X174409500Y-43833713D01*
X174409500Y-44046287D01*
X174442754Y-44256243D01*
X174505872Y-44450500D01*
X174508444Y-44458414D01*
X174604951Y-44647820D01*
X174729890Y-44819786D01*
X174880213Y-44970109D01*
X175052182Y-45095050D01*
X175060946Y-45099516D01*
X175111742Y-45147491D01*
X175128536Y-45215312D01*
X175105998Y-45281447D01*
X175060946Y-45320484D01*
X175052182Y-45324949D01*
X174880213Y-45449890D01*
X174729890Y-45600213D01*
X174604951Y-45772179D01*
X174508444Y-45961585D01*
X174442753Y-46163760D01*
X174441765Y-46170000D01*
X174409500Y-46373713D01*
X174409500Y-46586287D01*
X174442754Y-46796243D01*
X174488948Y-46938414D01*
X174508444Y-46998414D01*
X174604951Y-47187820D01*
X174729890Y-47359786D01*
X174880213Y-47510109D01*
X175052182Y-47635050D01*
X175060946Y-47639516D01*
X175111742Y-47687491D01*
X175128536Y-47755312D01*
X175105998Y-47821447D01*
X175060946Y-47860484D01*
X175052182Y-47864949D01*
X174880213Y-47989890D01*
X174729890Y-48140213D01*
X174604951Y-48312179D01*
X174508444Y-48501585D01*
X174442753Y-48703760D01*
X174441765Y-48710000D01*
X174409500Y-48913713D01*
X174409500Y-49126287D01*
X174442754Y-49336243D01*
X174488948Y-49478414D01*
X174508444Y-49538414D01*
X174604951Y-49727820D01*
X174729890Y-49899786D01*
X174880213Y-50050109D01*
X175052182Y-50175050D01*
X175060946Y-50179516D01*
X175111742Y-50227491D01*
X175128536Y-50295312D01*
X175105998Y-50361447D01*
X175060946Y-50400484D01*
X175052182Y-50404949D01*
X174880213Y-50529890D01*
X174729890Y-50680213D01*
X174604951Y-50852179D01*
X174508444Y-51041585D01*
X174442753Y-51243760D01*
X174441765Y-51250000D01*
X174409500Y-51453713D01*
X174409500Y-51666287D01*
X174419534Y-51729644D01*
X174435475Y-51830289D01*
X174442754Y-51876243D01*
X174488948Y-52018414D01*
X174508444Y-52078414D01*
X174604951Y-52267820D01*
X174729890Y-52439786D01*
X174880213Y-52590109D01*
X175052182Y-52715050D01*
X175060946Y-52719516D01*
X175111742Y-52767491D01*
X175128536Y-52835312D01*
X175105998Y-52901447D01*
X175060946Y-52940484D01*
X175052182Y-52944949D01*
X174880213Y-53069890D01*
X174729890Y-53220213D01*
X174604951Y-53392179D01*
X174508444Y-53581585D01*
X174442753Y-53783760D01*
X174419003Y-53933713D01*
X174409500Y-53993713D01*
X174409500Y-54206287D01*
X174442754Y-54416243D01*
X174488948Y-54558414D01*
X174508444Y-54618414D01*
X174604951Y-54807820D01*
X174729890Y-54979786D01*
X174880213Y-55130109D01*
X175052182Y-55255050D01*
X175060946Y-55259516D01*
X175111742Y-55307491D01*
X175128536Y-55375312D01*
X175105998Y-55441447D01*
X175060946Y-55480484D01*
X175052182Y-55484949D01*
X174880213Y-55609890D01*
X174729890Y-55760213D01*
X174604951Y-55932179D01*
X174508444Y-56121585D01*
X174442753Y-56323760D01*
X174432262Y-56390000D01*
X174409500Y-56533713D01*
X174409500Y-56746287D01*
X174416729Y-56791930D01*
X174440135Y-56939711D01*
X174442754Y-56956243D01*
X174492875Y-57110500D01*
X174508444Y-57158414D01*
X174604951Y-57347820D01*
X174729890Y-57519786D01*
X174880213Y-57670109D01*
X175052182Y-57795050D01*
X175060946Y-57799516D01*
X175111742Y-57847491D01*
X175128536Y-57915312D01*
X175105998Y-57981447D01*
X175060946Y-58020484D01*
X175052182Y-58024949D01*
X174880213Y-58149890D01*
X174729890Y-58300213D01*
X174604951Y-58472179D01*
X174508444Y-58661585D01*
X174442753Y-58863760D01*
X174419637Y-59009711D01*
X174409500Y-59073713D01*
X174409500Y-59286287D01*
X174412490Y-59305163D01*
X174433887Y-59440263D01*
X174442754Y-59496243D01*
X174488948Y-59638414D01*
X174508444Y-59698414D01*
X174604951Y-59887820D01*
X174729890Y-60059786D01*
X174880213Y-60210109D01*
X175052182Y-60335050D01*
X175060946Y-60339516D01*
X175111742Y-60387491D01*
X175128536Y-60455312D01*
X175105998Y-60521447D01*
X175060946Y-60560484D01*
X175052182Y-60564949D01*
X174880213Y-60689890D01*
X174729890Y-60840213D01*
X174604951Y-61012179D01*
X174508444Y-61201585D01*
X174442753Y-61403760D01*
X174419637Y-61549711D01*
X174409500Y-61613713D01*
X174409500Y-61826287D01*
X174409534Y-61826503D01*
X174438551Y-62009711D01*
X174442754Y-62036243D01*
X174488948Y-62178414D01*
X174508444Y-62238414D01*
X174604951Y-62427820D01*
X174729890Y-62599786D01*
X174880213Y-62750109D01*
X175052182Y-62875050D01*
X175060946Y-62879516D01*
X175111742Y-62927491D01*
X175128536Y-62995312D01*
X175105998Y-63061447D01*
X175060946Y-63100484D01*
X175052182Y-63104949D01*
X174880213Y-63229890D01*
X174729890Y-63380213D01*
X174604951Y-63552179D01*
X174508444Y-63741585D01*
X174442753Y-63943760D01*
X174409500Y-64153713D01*
X174409500Y-64366286D01*
X174441581Y-64568842D01*
X174442754Y-64576243D01*
X174495868Y-64739711D01*
X174508444Y-64778414D01*
X174604951Y-64967820D01*
X174729890Y-65139786D01*
X174880213Y-65290109D01*
X175052182Y-65415050D01*
X175060946Y-65419516D01*
X175111742Y-65467491D01*
X175128536Y-65535312D01*
X175105998Y-65601447D01*
X175060946Y-65640484D01*
X175052182Y-65644949D01*
X174880213Y-65769890D01*
X174729890Y-65920213D01*
X174604951Y-66092179D01*
X174508444Y-66281585D01*
X174442753Y-66483760D01*
X174441765Y-66490000D01*
X174409500Y-66693713D01*
X174409500Y-66906287D01*
X174442754Y-67116243D01*
X174488948Y-67258414D01*
X174508444Y-67318414D01*
X174604951Y-67507820D01*
X174729890Y-67679786D01*
X174880213Y-67830109D01*
X175052182Y-67955050D01*
X175060946Y-67959516D01*
X175111742Y-68007491D01*
X175128536Y-68075312D01*
X175105998Y-68141447D01*
X175060946Y-68180484D01*
X175052182Y-68184949D01*
X174880213Y-68309890D01*
X174729890Y-68460213D01*
X174604951Y-68632179D01*
X174508444Y-68821585D01*
X174442753Y-69023760D01*
X174409500Y-69233713D01*
X174409500Y-69446286D01*
X174426480Y-69553497D01*
X174442754Y-69656243D01*
X174499306Y-69830292D01*
X174508444Y-69858414D01*
X174604951Y-70047820D01*
X174729890Y-70219786D01*
X174880213Y-70370109D01*
X175052182Y-70495050D01*
X175060946Y-70499516D01*
X175111742Y-70547491D01*
X175128536Y-70615312D01*
X175105998Y-70681447D01*
X175060946Y-70720484D01*
X175052182Y-70724949D01*
X174880213Y-70849890D01*
X174729890Y-71000213D01*
X174604951Y-71172179D01*
X174508444Y-71361585D01*
X174442753Y-71563760D01*
X174409500Y-71773713D01*
X174409500Y-71986286D01*
X174442319Y-72193501D01*
X174442754Y-72196243D01*
X174488948Y-72338414D01*
X174508444Y-72398414D01*
X174604951Y-72587820D01*
X174729890Y-72759786D01*
X174880213Y-72910109D01*
X175052182Y-73035050D01*
X175060946Y-73039516D01*
X175111742Y-73087491D01*
X175128536Y-73155312D01*
X175105998Y-73221447D01*
X175060946Y-73260484D01*
X175052182Y-73264949D01*
X174880213Y-73389890D01*
X174729890Y-73540213D01*
X174604951Y-73712179D01*
X174508444Y-73901585D01*
X174442753Y-74103760D01*
X174441765Y-74110000D01*
X174409500Y-74313713D01*
X174409500Y-74526287D01*
X174442754Y-74736243D01*
X174488948Y-74878414D01*
X174508444Y-74938414D01*
X174604951Y-75127820D01*
X174729890Y-75299786D01*
X174880213Y-75450109D01*
X175052182Y-75575050D01*
X175060946Y-75579516D01*
X175111742Y-75627491D01*
X175128536Y-75695312D01*
X175105998Y-75761447D01*
X175060946Y-75800484D01*
X175052182Y-75804949D01*
X174880213Y-75929890D01*
X174729890Y-76080213D01*
X174604951Y-76252179D01*
X174508444Y-76441585D01*
X174442753Y-76643760D01*
X174432262Y-76710000D01*
X174409500Y-76853713D01*
X174409500Y-77066287D01*
X174442754Y-77276243D01*
X174488948Y-77418414D01*
X174508444Y-77478414D01*
X174604951Y-77667820D01*
X174729890Y-77839786D01*
X174880213Y-77990109D01*
X175052182Y-78115050D01*
X175060946Y-78119516D01*
X175111742Y-78167491D01*
X175128536Y-78235312D01*
X175105998Y-78301447D01*
X175060946Y-78340484D01*
X175052182Y-78344949D01*
X174880213Y-78469890D01*
X174729890Y-78620213D01*
X174604951Y-78792179D01*
X174508444Y-78981585D01*
X174442753Y-79183760D01*
X174441765Y-79190000D01*
X174409500Y-79393713D01*
X174409500Y-79606287D01*
X174442754Y-79816243D01*
X174488948Y-79958414D01*
X174508444Y-80018414D01*
X174604951Y-80207820D01*
X174729890Y-80379786D01*
X174880213Y-80530109D01*
X175052182Y-80655050D01*
X175060946Y-80659516D01*
X175111742Y-80707491D01*
X175128536Y-80775312D01*
X175105998Y-80841447D01*
X175060946Y-80880484D01*
X175052182Y-80884949D01*
X174880213Y-81009890D01*
X174729890Y-81160213D01*
X174604951Y-81332179D01*
X174508444Y-81521585D01*
X174442753Y-81723760D01*
X174441765Y-81730000D01*
X174409500Y-81933713D01*
X174409500Y-82146287D01*
X174442754Y-82356243D01*
X174488884Y-82498217D01*
X174508444Y-82558414D01*
X174604951Y-82747820D01*
X174729890Y-82919786D01*
X174880213Y-83070109D01*
X175052179Y-83195048D01*
X175052181Y-83195049D01*
X175052184Y-83195051D01*
X175241588Y-83291557D01*
X175443757Y-83357246D01*
X175653713Y-83390500D01*
X175653714Y-83390500D01*
X175866286Y-83390500D01*
X175866287Y-83390500D01*
X176076243Y-83357246D01*
X176278412Y-83291557D01*
X176467816Y-83195051D01*
X176554478Y-83132088D01*
X176639784Y-83070110D01*
X176639784Y-83070109D01*
X176639792Y-83070104D01*
X176753717Y-82956178D01*
X176815036Y-82922696D01*
X176884728Y-82927680D01*
X176940662Y-82969551D01*
X176957577Y-83000528D01*
X177006646Y-83132088D01*
X177006649Y-83132093D01*
X177092809Y-83247187D01*
X177092812Y-83247190D01*
X177207906Y-83333350D01*
X177207913Y-83333354D01*
X177342620Y-83383596D01*
X177342627Y-83383598D01*
X177402155Y-83389999D01*
X177402172Y-83390000D01*
X178050000Y-83390000D01*
X178050000Y-82473012D01*
X178107007Y-82505925D01*
X178234174Y-82540000D01*
X178365826Y-82540000D01*
X178492993Y-82505925D01*
X178550000Y-82473012D01*
X178550000Y-83390000D01*
X179197828Y-83390000D01*
X179197844Y-83389999D01*
X179257372Y-83383598D01*
X179257379Y-83383596D01*
X179392086Y-83333354D01*
X179392093Y-83333350D01*
X179507187Y-83247190D01*
X179507190Y-83247187D01*
X179593350Y-83132093D01*
X179593354Y-83132086D01*
X179643596Y-82997379D01*
X179643598Y-82997372D01*
X179649999Y-82937844D01*
X179650000Y-82937827D01*
X179650000Y-82290000D01*
X178733012Y-82290000D01*
X178765925Y-82232993D01*
X178800000Y-82105826D01*
X178800000Y-81974174D01*
X178765925Y-81847007D01*
X178733012Y-81790000D01*
X179650000Y-81790000D01*
X179650000Y-81142172D01*
X179649999Y-81142155D01*
X179643598Y-81082627D01*
X179643596Y-81082620D01*
X179593354Y-80947913D01*
X179593350Y-80947906D01*
X179507190Y-80832812D01*
X179507187Y-80832809D01*
X179392093Y-80746649D01*
X179392086Y-80746645D01*
X179260013Y-80697385D01*
X179204079Y-80655514D01*
X179179662Y-80590049D01*
X179194514Y-80521776D01*
X179215665Y-80493521D01*
X179329728Y-80379458D01*
X179454620Y-80207557D01*
X179551095Y-80018217D01*
X179616757Y-79816129D01*
X179616757Y-79816126D01*
X179627231Y-79750000D01*
X178733012Y-79750000D01*
X178765925Y-79692993D01*
X178800000Y-79565826D01*
X178800000Y-79434174D01*
X178765925Y-79307007D01*
X178733012Y-79250000D01*
X179627231Y-79250000D01*
X179616757Y-79183873D01*
X179616757Y-79183870D01*
X179551095Y-78981782D01*
X179454620Y-78792442D01*
X179329727Y-78620540D01*
X179329723Y-78620535D01*
X179179464Y-78470276D01*
X179179459Y-78470272D01*
X179007558Y-78345379D01*
X178997954Y-78340486D01*
X178947157Y-78292512D01*
X178930361Y-78224692D01*
X178952897Y-78158556D01*
X178997954Y-78119514D01*
X179007558Y-78114620D01*
X179179459Y-77989727D01*
X179179464Y-77989723D01*
X179329723Y-77839464D01*
X179329727Y-77839459D01*
X179454620Y-77667557D01*
X179551095Y-77478217D01*
X179616757Y-77276129D01*
X179616757Y-77276126D01*
X179627231Y-77210000D01*
X178733012Y-77210000D01*
X178765925Y-77152993D01*
X178800000Y-77025826D01*
X178800000Y-76894174D01*
X178765925Y-76767007D01*
X178733012Y-76710000D01*
X179627231Y-76710000D01*
X179616757Y-76643873D01*
X179616757Y-76643870D01*
X179551095Y-76441782D01*
X179454620Y-76252442D01*
X179329727Y-76080540D01*
X179329723Y-76080535D01*
X179179464Y-75930276D01*
X179179459Y-75930272D01*
X179007558Y-75805379D01*
X178997954Y-75800486D01*
X178947157Y-75752512D01*
X178930361Y-75684692D01*
X178952897Y-75618556D01*
X178997954Y-75579514D01*
X179007558Y-75574620D01*
X179179459Y-75449727D01*
X179179464Y-75449723D01*
X179329723Y-75299464D01*
X179329727Y-75299459D01*
X179454620Y-75127557D01*
X179551095Y-74938217D01*
X179616757Y-74736129D01*
X179616757Y-74736126D01*
X179627231Y-74670000D01*
X178733012Y-74670000D01*
X178765925Y-74612993D01*
X178800000Y-74485826D01*
X178800000Y-74354174D01*
X178765925Y-74227007D01*
X178733012Y-74170000D01*
X179627231Y-74170000D01*
X179616757Y-74103873D01*
X179616757Y-74103870D01*
X179551095Y-73901782D01*
X179454620Y-73712442D01*
X179329727Y-73540540D01*
X179329723Y-73540535D01*
X179179464Y-73390276D01*
X179179459Y-73390272D01*
X179007558Y-73265379D01*
X178997954Y-73260486D01*
X178947157Y-73212512D01*
X178930361Y-73144692D01*
X178952897Y-73078556D01*
X178997954Y-73039514D01*
X179007558Y-73034620D01*
X179179459Y-72909727D01*
X179179464Y-72909723D01*
X179329723Y-72759464D01*
X179329727Y-72759459D01*
X179454620Y-72587557D01*
X179551095Y-72398217D01*
X179616757Y-72196129D01*
X179616757Y-72196126D01*
X179627231Y-72130000D01*
X178733012Y-72130000D01*
X178765925Y-72072993D01*
X178800000Y-71945826D01*
X178800000Y-71814174D01*
X178765925Y-71687007D01*
X178733012Y-71630000D01*
X179627231Y-71630000D01*
X179616757Y-71563873D01*
X179616757Y-71563870D01*
X179551095Y-71361782D01*
X179454620Y-71172442D01*
X179329727Y-71000540D01*
X179329723Y-71000535D01*
X179179464Y-70850276D01*
X179179459Y-70850272D01*
X179007558Y-70725379D01*
X178997954Y-70720486D01*
X178947157Y-70672512D01*
X178930361Y-70604692D01*
X178952897Y-70538556D01*
X178997954Y-70499514D01*
X179007558Y-70494620D01*
X179179459Y-70369727D01*
X179179464Y-70369723D01*
X179329723Y-70219464D01*
X179329727Y-70219459D01*
X179454620Y-70047557D01*
X179551095Y-69858217D01*
X179616757Y-69656129D01*
X179616757Y-69656126D01*
X179627231Y-69590000D01*
X178733012Y-69590000D01*
X178765925Y-69532993D01*
X178800000Y-69405826D01*
X178800000Y-69274174D01*
X178765925Y-69147007D01*
X178733012Y-69090000D01*
X179627231Y-69090000D01*
X179616757Y-69023873D01*
X179616757Y-69023870D01*
X179551095Y-68821782D01*
X179454620Y-68632442D01*
X179329727Y-68460540D01*
X179329723Y-68460535D01*
X179179464Y-68310276D01*
X179179459Y-68310272D01*
X179007558Y-68185379D01*
X178997954Y-68180486D01*
X178947157Y-68132512D01*
X178930361Y-68064692D01*
X178952897Y-67998556D01*
X178997954Y-67959514D01*
X179007558Y-67954620D01*
X179179459Y-67829727D01*
X179179464Y-67829723D01*
X179329723Y-67679464D01*
X179329727Y-67679459D01*
X179454620Y-67507557D01*
X179551095Y-67318217D01*
X179616757Y-67116129D01*
X179616757Y-67116126D01*
X179627231Y-67050000D01*
X178733012Y-67050000D01*
X178765925Y-66992993D01*
X178800000Y-66865826D01*
X178800000Y-66734174D01*
X178765925Y-66607007D01*
X178733012Y-66550000D01*
X179627231Y-66550000D01*
X179616757Y-66483873D01*
X179616757Y-66483870D01*
X179551095Y-66281782D01*
X179454620Y-66092442D01*
X179329727Y-65920540D01*
X179329723Y-65920535D01*
X179179464Y-65770276D01*
X179179459Y-65770272D01*
X179007558Y-65645379D01*
X178997954Y-65640486D01*
X178947157Y-65592512D01*
X178930361Y-65524692D01*
X178952897Y-65458556D01*
X178997954Y-65419514D01*
X179007558Y-65414620D01*
X179179459Y-65289727D01*
X179179464Y-65289723D01*
X179329723Y-65139464D01*
X179329727Y-65139459D01*
X179454620Y-64967557D01*
X179551095Y-64778217D01*
X179616757Y-64576129D01*
X179616757Y-64576126D01*
X179627231Y-64510000D01*
X178733012Y-64510000D01*
X178765925Y-64452993D01*
X178800000Y-64325826D01*
X178800000Y-64194174D01*
X178765925Y-64067007D01*
X178733012Y-64010000D01*
X179627231Y-64010000D01*
X179616757Y-63943873D01*
X179616757Y-63943870D01*
X179551095Y-63741782D01*
X179454620Y-63552442D01*
X179329727Y-63380540D01*
X179329723Y-63380535D01*
X179179464Y-63230276D01*
X179179459Y-63230272D01*
X179007558Y-63105379D01*
X178997954Y-63100486D01*
X178947157Y-63052512D01*
X178930361Y-62984692D01*
X178952897Y-62918556D01*
X178997954Y-62879514D01*
X179007558Y-62874620D01*
X179179459Y-62749727D01*
X179179464Y-62749723D01*
X179329723Y-62599464D01*
X179329727Y-62599459D01*
X179454620Y-62427557D01*
X179551095Y-62238217D01*
X179616757Y-62036129D01*
X179616757Y-62036126D01*
X179627231Y-61970000D01*
X178733012Y-61970000D01*
X178765925Y-61912993D01*
X178800000Y-61785826D01*
X178800000Y-61654174D01*
X178765925Y-61527007D01*
X178733012Y-61470000D01*
X179627231Y-61470000D01*
X179616757Y-61403873D01*
X179616757Y-61403870D01*
X179551095Y-61201782D01*
X179454620Y-61012442D01*
X179329727Y-60840540D01*
X179329723Y-60840535D01*
X179179464Y-60690276D01*
X179179459Y-60690272D01*
X179007558Y-60565379D01*
X178997954Y-60560486D01*
X178947157Y-60512512D01*
X178930361Y-60444692D01*
X178952897Y-60378556D01*
X178997954Y-60339514D01*
X179007558Y-60334620D01*
X179179459Y-60209727D01*
X179179464Y-60209723D01*
X179329723Y-60059464D01*
X179329727Y-60059459D01*
X179454620Y-59887557D01*
X179551095Y-59698217D01*
X179616757Y-59496129D01*
X179616757Y-59496126D01*
X179627231Y-59430000D01*
X178733012Y-59430000D01*
X178765925Y-59372993D01*
X178800000Y-59245826D01*
X178800000Y-59114174D01*
X178765925Y-58987007D01*
X178733012Y-58930000D01*
X179627231Y-58930000D01*
X179616757Y-58863873D01*
X179616757Y-58863870D01*
X179551095Y-58661782D01*
X179454620Y-58472442D01*
X179329727Y-58300540D01*
X179329723Y-58300535D01*
X179179464Y-58150276D01*
X179179459Y-58150272D01*
X179007558Y-58025379D01*
X178997954Y-58020486D01*
X178947157Y-57972512D01*
X178930361Y-57904692D01*
X178952897Y-57838556D01*
X178997954Y-57799514D01*
X179007558Y-57794620D01*
X179179459Y-57669727D01*
X179179464Y-57669723D01*
X179329723Y-57519464D01*
X179329727Y-57519459D01*
X179454620Y-57347557D01*
X179551095Y-57158217D01*
X179616757Y-56956129D01*
X179616757Y-56956126D01*
X179627231Y-56890000D01*
X178733012Y-56890000D01*
X178765925Y-56832993D01*
X178800000Y-56705826D01*
X178800000Y-56574174D01*
X178765925Y-56447007D01*
X178733012Y-56390000D01*
X179627231Y-56390000D01*
X179616757Y-56323873D01*
X179616757Y-56323870D01*
X179551095Y-56121782D01*
X179454620Y-55932442D01*
X179329727Y-55760540D01*
X179329723Y-55760535D01*
X179179464Y-55610276D01*
X179179459Y-55610272D01*
X179007558Y-55485379D01*
X178997954Y-55480486D01*
X178947157Y-55432512D01*
X178930361Y-55364692D01*
X178952897Y-55298556D01*
X178997954Y-55259514D01*
X179007558Y-55254620D01*
X179179459Y-55129727D01*
X179179464Y-55129723D01*
X179329723Y-54979464D01*
X179329727Y-54979459D01*
X179454620Y-54807557D01*
X179551095Y-54618217D01*
X179616757Y-54416129D01*
X179616757Y-54416126D01*
X179627231Y-54350000D01*
X178733012Y-54350000D01*
X178765925Y-54292993D01*
X178800000Y-54165826D01*
X178800000Y-54034174D01*
X178765925Y-53907007D01*
X178733012Y-53850000D01*
X179627231Y-53850000D01*
X179616757Y-53783873D01*
X179616757Y-53783870D01*
X179551095Y-53581782D01*
X179454620Y-53392442D01*
X179329727Y-53220540D01*
X179329723Y-53220535D01*
X179179464Y-53070276D01*
X179179459Y-53070272D01*
X179007558Y-52945379D01*
X178997954Y-52940486D01*
X178947157Y-52892512D01*
X178930361Y-52824692D01*
X178952897Y-52758556D01*
X178997954Y-52719514D01*
X179007558Y-52714620D01*
X179179459Y-52589727D01*
X179179464Y-52589723D01*
X179329723Y-52439464D01*
X179329727Y-52439459D01*
X179454620Y-52267557D01*
X179551095Y-52078217D01*
X179616757Y-51876129D01*
X179616757Y-51876126D01*
X179627231Y-51810000D01*
X178733012Y-51810000D01*
X178765925Y-51752993D01*
X178800000Y-51625826D01*
X178800000Y-51494174D01*
X178765925Y-51367007D01*
X178733012Y-51310000D01*
X179627231Y-51310000D01*
X179616757Y-51243873D01*
X179616757Y-51243870D01*
X179551095Y-51041782D01*
X179454620Y-50852442D01*
X179329727Y-50680540D01*
X179329723Y-50680535D01*
X179179464Y-50530276D01*
X179179459Y-50530272D01*
X179007558Y-50405379D01*
X178997954Y-50400486D01*
X178947157Y-50352512D01*
X178930361Y-50284692D01*
X178952897Y-50218556D01*
X178997954Y-50179514D01*
X179007558Y-50174620D01*
X179179459Y-50049727D01*
X179179464Y-50049723D01*
X179329723Y-49899464D01*
X179329727Y-49899459D01*
X179454620Y-49727557D01*
X179551095Y-49538217D01*
X179616757Y-49336129D01*
X179616757Y-49336126D01*
X179627231Y-49270000D01*
X178733012Y-49270000D01*
X178765925Y-49212993D01*
X178800000Y-49085826D01*
X178800000Y-48954174D01*
X178765925Y-48827007D01*
X178733012Y-48770000D01*
X179627231Y-48770000D01*
X179616757Y-48703873D01*
X179616757Y-48703870D01*
X179551095Y-48501782D01*
X179454620Y-48312442D01*
X179329727Y-48140540D01*
X179329723Y-48140535D01*
X179179464Y-47990276D01*
X179179459Y-47990272D01*
X179007558Y-47865379D01*
X178997954Y-47860486D01*
X178947157Y-47812512D01*
X178930361Y-47744692D01*
X178952897Y-47678556D01*
X178997954Y-47639514D01*
X179007558Y-47634620D01*
X179179459Y-47509727D01*
X179179464Y-47509723D01*
X179329723Y-47359464D01*
X179329727Y-47359459D01*
X179454620Y-47187557D01*
X179551095Y-46998217D01*
X179616757Y-46796129D01*
X179616757Y-46796126D01*
X179627231Y-46730000D01*
X178733012Y-46730000D01*
X178765925Y-46672993D01*
X178800000Y-46545826D01*
X178800000Y-46414174D01*
X178765925Y-46287007D01*
X178733012Y-46230000D01*
X179627231Y-46230000D01*
X179616757Y-46163873D01*
X179616757Y-46163870D01*
X179551095Y-45961782D01*
X179454620Y-45772442D01*
X179329727Y-45600540D01*
X179329723Y-45600535D01*
X179179464Y-45450276D01*
X179179459Y-45450272D01*
X179007558Y-45325379D01*
X178997954Y-45320486D01*
X178947157Y-45272512D01*
X178930361Y-45204692D01*
X178952897Y-45138556D01*
X178997954Y-45099514D01*
X179007558Y-45094620D01*
X179179459Y-44969727D01*
X179179464Y-44969723D01*
X179329723Y-44819464D01*
X179329727Y-44819459D01*
X179454620Y-44647557D01*
X179551095Y-44458217D01*
X179616757Y-44256129D01*
X179616757Y-44256126D01*
X179627231Y-44190000D01*
X178733012Y-44190000D01*
X178765925Y-44132993D01*
X178800000Y-44005826D01*
X178800000Y-43874174D01*
X178765925Y-43747007D01*
X178733012Y-43690000D01*
X179627231Y-43690000D01*
X179616757Y-43623873D01*
X179616757Y-43623870D01*
X179551095Y-43421782D01*
X179454620Y-43232442D01*
X179329727Y-43060540D01*
X179329723Y-43060535D01*
X179179464Y-42910276D01*
X179179459Y-42910272D01*
X179007558Y-42785379D01*
X178997954Y-42780486D01*
X178947157Y-42732512D01*
X178930361Y-42664692D01*
X178952897Y-42598556D01*
X178997954Y-42559514D01*
X179007558Y-42554620D01*
X179179459Y-42429727D01*
X179179464Y-42429723D01*
X179329723Y-42279464D01*
X179329727Y-42279459D01*
X179454620Y-42107557D01*
X179551095Y-41918217D01*
X179616757Y-41716129D01*
X179616757Y-41716126D01*
X179627231Y-41650000D01*
X178733012Y-41650000D01*
X178765925Y-41592993D01*
X178800000Y-41465826D01*
X178800000Y-41334174D01*
X178765925Y-41207007D01*
X178733012Y-41150000D01*
X179627231Y-41150000D01*
X179616757Y-41083873D01*
X179616757Y-41083870D01*
X179551095Y-40881782D01*
X179454620Y-40692442D01*
X179329727Y-40520540D01*
X179329723Y-40520535D01*
X179179464Y-40370276D01*
X179179459Y-40370272D01*
X179007558Y-40245379D01*
X178997954Y-40240486D01*
X178947157Y-40192512D01*
X178930361Y-40124692D01*
X178952897Y-40058556D01*
X178997954Y-40019514D01*
X179007558Y-40014620D01*
X179179459Y-39889727D01*
X179179464Y-39889723D01*
X179329723Y-39739464D01*
X179329727Y-39739459D01*
X179454620Y-39567557D01*
X179551095Y-39378217D01*
X179616757Y-39176129D01*
X179616757Y-39176126D01*
X179627231Y-39110000D01*
X178733012Y-39110000D01*
X178765925Y-39052993D01*
X178800000Y-38925826D01*
X178800000Y-38794174D01*
X178765925Y-38667007D01*
X178733012Y-38610000D01*
X179627231Y-38610000D01*
X179616757Y-38543873D01*
X179616757Y-38543870D01*
X179551095Y-38341782D01*
X179454620Y-38152442D01*
X179329727Y-37980540D01*
X179329723Y-37980535D01*
X179179464Y-37830276D01*
X179179459Y-37830272D01*
X179007557Y-37705379D01*
X178818215Y-37608903D01*
X178616124Y-37543241D01*
X178550000Y-37532768D01*
X178550000Y-38426988D01*
X178492993Y-38394075D01*
X178365826Y-38360000D01*
X178234174Y-38360000D01*
X178107007Y-38394075D01*
X178050000Y-38426988D01*
X178050000Y-37532768D01*
X178049999Y-37532768D01*
X177983875Y-37543241D01*
X177781784Y-37608903D01*
X177592442Y-37705379D01*
X177420540Y-37830272D01*
X177420535Y-37830276D01*
X177270276Y-37980535D01*
X177270272Y-37980540D01*
X177145377Y-38152444D01*
X177140484Y-38162048D01*
X177092509Y-38212844D01*
X177024688Y-38229638D01*
X176958553Y-38207100D01*
X176919516Y-38162048D01*
X176914622Y-38152444D01*
X176789727Y-37980540D01*
X176789723Y-37980535D01*
X176639464Y-37830276D01*
X176639459Y-37830272D01*
X176467557Y-37705379D01*
X176278215Y-37608903D01*
X176076124Y-37543241D01*
X176010000Y-37532768D01*
X176010000Y-38426988D01*
X175952993Y-38394075D01*
X175825826Y-38360000D01*
X175694174Y-38360000D01*
X175567007Y-38394075D01*
X175510000Y-38426988D01*
X175510000Y-37532768D01*
X175509999Y-37532768D01*
X175443875Y-37543241D01*
X175241784Y-37608903D01*
X175052442Y-37705379D01*
X174880540Y-37830272D01*
X174880535Y-37830276D01*
X174730276Y-37980535D01*
X174730272Y-37980540D01*
X174605379Y-38152442D01*
X174508904Y-38341782D01*
X174443242Y-38543870D01*
X174443242Y-38543873D01*
X174432769Y-38610000D01*
X175326988Y-38610000D01*
X175294075Y-38667007D01*
X175260000Y-38794174D01*
X175260000Y-38925826D01*
X175294075Y-39052993D01*
X175326988Y-39110000D01*
X174432769Y-39110000D01*
X174443242Y-39176126D01*
X174443242Y-39176129D01*
X174508904Y-39378217D01*
X174605379Y-39567557D01*
X174730272Y-39739459D01*
X174730276Y-39739464D01*
X174880535Y-39889723D01*
X174880540Y-39889727D01*
X175052444Y-40014622D01*
X175061495Y-40019234D01*
X175112292Y-40067208D01*
X175129087Y-40135029D01*
X175106550Y-40201164D01*
X175061499Y-40240202D01*
X175052182Y-40244949D01*
X174880213Y-40369890D01*
X174729890Y-40520213D01*
X174604951Y-40692179D01*
X174508444Y-40881585D01*
X174442753Y-41083760D01*
X174441765Y-41090000D01*
X174409500Y-41293713D01*
X121550500Y-41293713D01*
X121550500Y-41233713D01*
X121517246Y-41023757D01*
X121451557Y-40821588D01*
X121355051Y-40632184D01*
X121355049Y-40632181D01*
X121355048Y-40632179D01*
X121230109Y-40460213D01*
X121079786Y-40309890D01*
X120907820Y-40184951D01*
X120906905Y-40184485D01*
X120899054Y-40180485D01*
X120848259Y-40132512D01*
X120831463Y-40064692D01*
X120853999Y-39998556D01*
X120899054Y-39959515D01*
X120907816Y-39955051D01*
X120994471Y-39892093D01*
X121079786Y-39830109D01*
X121079788Y-39830106D01*
X121079792Y-39830104D01*
X121230104Y-39679792D01*
X121230106Y-39679788D01*
X121230109Y-39679786D01*
X121355048Y-39507820D01*
X121355047Y-39507820D01*
X121355051Y-39507816D01*
X121451557Y-39318412D01*
X121517246Y-39116243D01*
X121550500Y-38906287D01*
X121550500Y-38783590D01*
X146105000Y-38783590D01*
X146105000Y-38905000D01*
X146905000Y-38905000D01*
X146905000Y-39405000D01*
X146105000Y-39405000D01*
X146105000Y-39526409D01*
X146135164Y-39716856D01*
X146194746Y-39900234D01*
X146194747Y-39900237D01*
X146282288Y-40072043D01*
X146395616Y-40228027D01*
X146395620Y-40228032D01*
X146531967Y-40364379D01*
X146531972Y-40364383D01*
X146687956Y-40477711D01*
X146859762Y-40565252D01*
X146859765Y-40565253D01*
X147043142Y-40624835D01*
X147080000Y-40630673D01*
X147080000Y-39776409D01*
X147165956Y-39826037D01*
X147274048Y-39855000D01*
X147385952Y-39855000D01*
X147494044Y-39826037D01*
X147580000Y-39776409D01*
X147580000Y-40630672D01*
X147616855Y-40624835D01*
X147616858Y-40624835D01*
X147800234Y-40565253D01*
X147800237Y-40565252D01*
X147972043Y-40477711D01*
X148128027Y-40364383D01*
X148128032Y-40364379D01*
X148264379Y-40228032D01*
X148264383Y-40228027D01*
X148377711Y-40072043D01*
X148465252Y-39900237D01*
X148465253Y-39900234D01*
X148524835Y-39716856D01*
X148555000Y-39526409D01*
X148555000Y-39405000D01*
X147755000Y-39405000D01*
X147755000Y-38905000D01*
X148108586Y-38905000D01*
X148156038Y-38914439D01*
X148292334Y-38970894D01*
X148292336Y-38970894D01*
X148292341Y-38970896D01*
X148466304Y-39005499D01*
X148466307Y-39005500D01*
X148466309Y-39005500D01*
X148643693Y-39005500D01*
X148643694Y-39005499D01*
X148706568Y-38992993D01*
X148817658Y-38970896D01*
X148817661Y-38970894D01*
X148817666Y-38970894D01*
X148981547Y-38903013D01*
X149129035Y-38804464D01*
X149254464Y-38679035D01*
X149353013Y-38531547D01*
X149420894Y-38367666D01*
X149455500Y-38193691D01*
X149455500Y-38016309D01*
X149455500Y-38016306D01*
X149455499Y-38016304D01*
X152654500Y-38016304D01*
X152654500Y-38193695D01*
X152689103Y-38367658D01*
X152689106Y-38367667D01*
X152756983Y-38531540D01*
X152756990Y-38531553D01*
X152855535Y-38679034D01*
X152855538Y-38679038D01*
X152980961Y-38804461D01*
X152980965Y-38804464D01*
X153128446Y-38903009D01*
X153128459Y-38903016D01*
X153251363Y-38953923D01*
X153292334Y-38970894D01*
X153292336Y-38970894D01*
X153292341Y-38970896D01*
X153466304Y-39005499D01*
X153466307Y-39005500D01*
X153466309Y-39005500D01*
X153643693Y-39005500D01*
X153643694Y-39005499D01*
X153706568Y-38992993D01*
X153817658Y-38970896D01*
X153817661Y-38970894D01*
X153817666Y-38970894D01*
X153953962Y-38914439D01*
X154001414Y-38905000D01*
X154355000Y-38905000D01*
X154355000Y-39405000D01*
X153555000Y-39405000D01*
X153555000Y-39526409D01*
X153585164Y-39716856D01*
X153644746Y-39900234D01*
X153644747Y-39900237D01*
X153732288Y-40072043D01*
X153845616Y-40228027D01*
X153845620Y-40228032D01*
X153981967Y-40364379D01*
X153981972Y-40364383D01*
X154137956Y-40477711D01*
X154309762Y-40565252D01*
X154309765Y-40565253D01*
X154493142Y-40624835D01*
X154530000Y-40630673D01*
X154530000Y-39776409D01*
X154615956Y-39826037D01*
X154724048Y-39855000D01*
X154835952Y-39855000D01*
X154944044Y-39826037D01*
X155030000Y-39776409D01*
X155030000Y-40630672D01*
X155066855Y-40624835D01*
X155066858Y-40624835D01*
X155250234Y-40565253D01*
X155250237Y-40565252D01*
X155422043Y-40477711D01*
X155578027Y-40364383D01*
X155578032Y-40364379D01*
X155714379Y-40228032D01*
X155714383Y-40228027D01*
X155827711Y-40072043D01*
X155915252Y-39900237D01*
X155915253Y-39900234D01*
X155974835Y-39716856D01*
X156005000Y-39526409D01*
X156005000Y-39405000D01*
X155205000Y-39405000D01*
X155205000Y-38905000D01*
X156005000Y-38905000D01*
X156005000Y-38783591D01*
X155986448Y-38666462D01*
X155986448Y-38666461D01*
X155974836Y-38593144D01*
X155915253Y-38409765D01*
X155915252Y-38409762D01*
X155827711Y-38237956D01*
X155714383Y-38081972D01*
X155714379Y-38081967D01*
X155578032Y-37945620D01*
X155578027Y-37945616D01*
X155422043Y-37832288D01*
X155250237Y-37744747D01*
X155250231Y-37744745D01*
X155066858Y-37685165D01*
X155066848Y-37685162D01*
X155030000Y-37679325D01*
X155030000Y-38533590D01*
X154944044Y-38483963D01*
X154835952Y-38455000D01*
X154724048Y-38455000D01*
X154615956Y-38483963D01*
X154530000Y-38533590D01*
X154530000Y-37722275D01*
X154406515Y-37695654D01*
X154403991Y-37694282D01*
X154401120Y-37694364D01*
X154373483Y-37677697D01*
X154345129Y-37662283D01*
X154343747Y-37659764D01*
X154341288Y-37658281D01*
X154329545Y-37643330D01*
X154254464Y-37530965D01*
X154254461Y-37530961D01*
X154129038Y-37405538D01*
X154129034Y-37405535D01*
X153981553Y-37306990D01*
X153981540Y-37306983D01*
X153817667Y-37239106D01*
X153817658Y-37239103D01*
X153643694Y-37204500D01*
X153643691Y-37204500D01*
X153466309Y-37204500D01*
X153466306Y-37204500D01*
X153292341Y-37239103D01*
X153292332Y-37239106D01*
X153128459Y-37306983D01*
X153128446Y-37306990D01*
X152980965Y-37405535D01*
X152980961Y-37405538D01*
X152855538Y-37530961D01*
X152855535Y-37530965D01*
X152756990Y-37678446D01*
X152756983Y-37678459D01*
X152689106Y-37842332D01*
X152689103Y-37842341D01*
X152654500Y-38016304D01*
X149455499Y-38016304D01*
X149420896Y-37842341D01*
X149420893Y-37842332D01*
X149353016Y-37678459D01*
X149353009Y-37678446D01*
X149254464Y-37530965D01*
X149254461Y-37530961D01*
X149129038Y-37405538D01*
X149129034Y-37405535D01*
X148981553Y-37306990D01*
X148981540Y-37306983D01*
X148817667Y-37239106D01*
X148817658Y-37239103D01*
X148643694Y-37204500D01*
X148643691Y-37204500D01*
X148466309Y-37204500D01*
X148466306Y-37204500D01*
X148292341Y-37239103D01*
X148292332Y-37239106D01*
X148128459Y-37306983D01*
X148128446Y-37306990D01*
X147980965Y-37405535D01*
X147980961Y-37405538D01*
X147855538Y-37530961D01*
X147855535Y-37530965D01*
X147780455Y-37643330D01*
X147757640Y-37662396D01*
X147736577Y-37683382D01*
X147729300Y-37686080D01*
X147726842Y-37688135D01*
X147722182Y-37688720D01*
X147703485Y-37695654D01*
X147580000Y-37722275D01*
X147580000Y-38533590D01*
X147494044Y-38483963D01*
X147385952Y-38455000D01*
X147274048Y-38455000D01*
X147165956Y-38483963D01*
X147080000Y-38533590D01*
X147080000Y-37679325D01*
X147043151Y-37685162D01*
X147043141Y-37685165D01*
X146859768Y-37744745D01*
X146859762Y-37744747D01*
X146687956Y-37832288D01*
X146531972Y-37945616D01*
X146531967Y-37945620D01*
X146395620Y-38081967D01*
X146395616Y-38081972D01*
X146282288Y-38237956D01*
X146194747Y-38409762D01*
X146194746Y-38409765D01*
X146135164Y-38593143D01*
X146105000Y-38783590D01*
X121550500Y-38783590D01*
X121550500Y-38693713D01*
X121517246Y-38483757D01*
X121451557Y-38281588D01*
X121355051Y-38092184D01*
X121355049Y-38092181D01*
X121355048Y-38092179D01*
X121230109Y-37920213D01*
X121079786Y-37769890D01*
X120907820Y-37644951D01*
X120718414Y-37548444D01*
X120718413Y-37548443D01*
X120718412Y-37548443D01*
X120516243Y-37482754D01*
X120516241Y-37482753D01*
X120516240Y-37482753D01*
X120354957Y-37457208D01*
X120306287Y-37449500D01*
X120093713Y-37449500D01*
X120045042Y-37457208D01*
X119883760Y-37482753D01*
X119883757Y-37482754D01*
X119729831Y-37532768D01*
X119681585Y-37548444D01*
X119492179Y-37644951D01*
X119320215Y-37769889D01*
X119206285Y-37883819D01*
X119144962Y-37917303D01*
X119075270Y-37912319D01*
X119019337Y-37870447D01*
X119002422Y-37839470D01*
X118953354Y-37707913D01*
X118953350Y-37707906D01*
X118867190Y-37592812D01*
X118867187Y-37592809D01*
X118752093Y-37506649D01*
X118752086Y-37506645D01*
X118617379Y-37456403D01*
X118617372Y-37456401D01*
X118557844Y-37450000D01*
X117910000Y-37450000D01*
X117910000Y-38366988D01*
X117852993Y-38334075D01*
X117725826Y-38300000D01*
X117594174Y-38300000D01*
X117467007Y-38334075D01*
X117410000Y-38366988D01*
X117410000Y-37450000D01*
X116762155Y-37450000D01*
X116702627Y-37456401D01*
X116702620Y-37456403D01*
X116567913Y-37506645D01*
X116567906Y-37506649D01*
X116452812Y-37592809D01*
X116452809Y-37592812D01*
X116366649Y-37707906D01*
X116366645Y-37707913D01*
X116316403Y-37842620D01*
X116316401Y-37842627D01*
X116310000Y-37902155D01*
X115700500Y-37902155D01*
X115700500Y-36903750D01*
X115700684Y-36897648D01*
X126299500Y-36897648D01*
X126299500Y-37102351D01*
X126331522Y-37304534D01*
X126394781Y-37499223D01*
X126442468Y-37592812D01*
X126486107Y-37678459D01*
X126487715Y-37681613D01*
X126608028Y-37847213D01*
X126752786Y-37991971D01*
X126890713Y-38092179D01*
X126918390Y-38112287D01*
X127034607Y-38171503D01*
X127100776Y-38205218D01*
X127100778Y-38205218D01*
X127100781Y-38205220D01*
X127175932Y-38229638D01*
X127295465Y-38268477D01*
X127378225Y-38281585D01*
X127497648Y-38300500D01*
X127497649Y-38300500D01*
X127702351Y-38300500D01*
X127702352Y-38300500D01*
X127904534Y-38268477D01*
X128099219Y-38205220D01*
X128281610Y-38112287D01*
X128374590Y-38044732D01*
X128447213Y-37991971D01*
X128447215Y-37991968D01*
X128447219Y-37991966D01*
X128591966Y-37847219D01*
X128591968Y-37847215D01*
X128591971Y-37847213D01*
X128648149Y-37769889D01*
X128712287Y-37681610D01*
X128805220Y-37499219D01*
X128868477Y-37304534D01*
X128900500Y-37102352D01*
X128900500Y-36897648D01*
X165699500Y-36897648D01*
X165699500Y-37102351D01*
X165731522Y-37304534D01*
X165794781Y-37499223D01*
X165842468Y-37592812D01*
X165886107Y-37678459D01*
X165887715Y-37681613D01*
X166008028Y-37847213D01*
X166152786Y-37991971D01*
X166290713Y-38092179D01*
X166318390Y-38112287D01*
X166434607Y-38171503D01*
X166500776Y-38205218D01*
X166500778Y-38205218D01*
X166500781Y-38205220D01*
X166575932Y-38229638D01*
X166695465Y-38268477D01*
X166778225Y-38281585D01*
X166897648Y-38300500D01*
X166897649Y-38300500D01*
X167102351Y-38300500D01*
X167102352Y-38300500D01*
X167304534Y-38268477D01*
X167499219Y-38205220D01*
X167681610Y-38112287D01*
X167774590Y-38044732D01*
X167847213Y-37991971D01*
X167847215Y-37991968D01*
X167847219Y-37991966D01*
X167991966Y-37847219D01*
X167991968Y-37847215D01*
X167991971Y-37847213D01*
X168048149Y-37769889D01*
X168112287Y-37681610D01*
X168205220Y-37499219D01*
X168268477Y-37304534D01*
X168300500Y-37102352D01*
X168300500Y-36897648D01*
X168268477Y-36695466D01*
X168205220Y-36500781D01*
X168205218Y-36500778D01*
X168205218Y-36500776D01*
X168171503Y-36434607D01*
X168112287Y-36318390D01*
X168100256Y-36301830D01*
X167991971Y-36152786D01*
X167847213Y-36008028D01*
X167681613Y-35887715D01*
X167681612Y-35887714D01*
X167681610Y-35887713D01*
X167624653Y-35858691D01*
X167499223Y-35794781D01*
X167304534Y-35731522D01*
X167129995Y-35703878D01*
X167102352Y-35699500D01*
X166897648Y-35699500D01*
X166873329Y-35703351D01*
X166695465Y-35731522D01*
X166500776Y-35794781D01*
X166318386Y-35887715D01*
X166152786Y-36008028D01*
X166008028Y-36152786D01*
X165887715Y-36318386D01*
X165794781Y-36500776D01*
X165731522Y-36695465D01*
X165699500Y-36897648D01*
X128900500Y-36897648D01*
X128868477Y-36695466D01*
X128805220Y-36500781D01*
X128805218Y-36500778D01*
X128805218Y-36500776D01*
X128771503Y-36434607D01*
X128712287Y-36318390D01*
X128700256Y-36301830D01*
X128591971Y-36152786D01*
X128447213Y-36008028D01*
X128281613Y-35887715D01*
X128281612Y-35887714D01*
X128281610Y-35887713D01*
X128224653Y-35858691D01*
X128099223Y-35794781D01*
X127904534Y-35731522D01*
X127729995Y-35703878D01*
X127702352Y-35699500D01*
X127497648Y-35699500D01*
X127473329Y-35703351D01*
X127295465Y-35731522D01*
X127100776Y-35794781D01*
X126918386Y-35887715D01*
X126752786Y-36008028D01*
X126608028Y-36152786D01*
X126487715Y-36318386D01*
X126394781Y-36500776D01*
X126331522Y-36695465D01*
X126299500Y-36897648D01*
X115700684Y-36897648D01*
X115700726Y-36896261D01*
X115701390Y-36885287D01*
X115701390Y-36885286D01*
X115718271Y-36606205D01*
X115720076Y-36591340D01*
X115758748Y-36380317D01*
X115771780Y-36309197D01*
X115775364Y-36294663D01*
X115819575Y-36152786D01*
X115860696Y-36020822D01*
X115865998Y-36006841D01*
X115983731Y-35745249D01*
X115990676Y-35732016D01*
X116139080Y-35486527D01*
X116147567Y-35474230D01*
X116324480Y-35248417D01*
X116334395Y-35237226D01*
X116537226Y-35034395D01*
X116548417Y-35024480D01*
X116774230Y-34847567D01*
X116786526Y-34839080D01*
X117032016Y-34690676D01*
X117045249Y-34683731D01*
X117306841Y-34565998D01*
X117320822Y-34560696D01*
X117594668Y-34475362D01*
X117609197Y-34471780D01*
X117891344Y-34420075D01*
X117906201Y-34418271D01*
X118196264Y-34400726D01*
X118203751Y-34400500D01*
X118265892Y-34400500D01*
X146091896Y-34400500D01*
X146158935Y-34420185D01*
G37*
%TD.AperFunction*%
%TD*%
M02*
