%TF.GenerationSoftware,KiCad,Pcbnew,9.0.0*%
%TF.CreationDate,2025-07-15T18:26:09+02:00*%
%TF.ProjectId,RP2040,52503230-3430-42e6-9b69-6361645f7063,rev?*%
%TF.SameCoordinates,Original*%
%TF.FileFunction,Paste,Top*%
%TF.FilePolarity,Positive*%
%FSLAX46Y46*%
G04 Gerber Fmt 4.6, Leading zero omitted, Abs format (unit mm)*
G04 Created by KiCad (PCBNEW 9.0.0) date 2025-07-15 18:26:09*
%MOMM*%
%LPD*%
G01*
G04 APERTURE LIST*
G04 Aperture macros list*
%AMRoundRect*
0 Rectangle with rounded corners*
0 $1 Rounding radius*
0 $2 $3 $4 $5 $6 $7 $8 $9 X,Y pos of 4 corners*
0 Add a 4 corners polygon primitive as box body*
4,1,4,$2,$3,$4,$5,$6,$7,$8,$9,$2,$3,0*
0 Add four circle primitives for the rounded corners*
1,1,$1+$1,$2,$3*
1,1,$1+$1,$4,$5*
1,1,$1+$1,$6,$7*
1,1,$1+$1,$8,$9*
0 Add four rect primitives between the rounded corners*
20,1,$1+$1,$2,$3,$4,$5,0*
20,1,$1+$1,$4,$5,$6,$7,0*
20,1,$1+$1,$6,$7,$8,$9,0*
20,1,$1+$1,$8,$9,$2,$3,0*%
G04 Aperture macros list end*
%ADD10RoundRect,0.225000X0.250000X-0.225000X0.250000X0.225000X-0.250000X0.225000X-0.250000X-0.225000X0*%
%ADD11RoundRect,0.225000X-0.250000X0.225000X-0.250000X-0.225000X0.250000X-0.225000X0.250000X0.225000X0*%
%ADD12RoundRect,0.225000X-0.225000X-0.250000X0.225000X-0.250000X0.225000X0.250000X-0.225000X0.250000X0*%
%ADD13R,1.300000X1.050000*%
%ADD14R,1.250000X1.000000*%
%ADD15RoundRect,0.250000X-0.475000X0.250000X-0.475000X-0.250000X0.475000X-0.250000X0.475000X0.250000X0*%
%ADD16RoundRect,0.200000X-0.275000X0.200000X-0.275000X-0.200000X0.275000X-0.200000X0.275000X0.200000X0*%
%ADD17RoundRect,0.200000X0.275000X-0.200000X0.275000X0.200000X-0.275000X0.200000X-0.275000X-0.200000X0*%
%ADD18RoundRect,0.162500X-0.650000X-0.162500X0.650000X-0.162500X0.650000X0.162500X-0.650000X0.162500X0*%
%ADD19RoundRect,0.150000X0.512500X0.150000X-0.512500X0.150000X-0.512500X-0.150000X0.512500X-0.150000X0*%
%ADD20RoundRect,0.250000X0.250000X0.475000X-0.250000X0.475000X-0.250000X-0.475000X0.250000X-0.475000X0*%
%ADD21R,0.450000X1.300000*%
%ADD22RoundRect,0.249999X-0.395001X-0.395001X0.395001X-0.395001X0.395001X0.395001X-0.395001X0.395001X0*%
%ADD23RoundRect,0.050000X-0.387500X-0.050000X0.387500X-0.050000X0.387500X0.050000X-0.387500X0.050000X0*%
%ADD24RoundRect,0.050000X-0.050000X-0.387500X0.050000X-0.387500X0.050000X0.387500X-0.050000X0.387500X0*%
%ADD25RoundRect,0.375000X0.625000X0.375000X-0.625000X0.375000X-0.625000X-0.375000X0.625000X-0.375000X0*%
%ADD26RoundRect,0.500000X0.500000X1.400000X-0.500000X1.400000X-0.500000X-1.400000X0.500000X-1.400000X0*%
G04 APERTURE END LIST*
D10*
%TO.C,C9*%
X159240000Y-54835000D03*
X159240000Y-53285000D03*
%TD*%
D11*
%TO.C,C3*%
X155100000Y-69330000D03*
X155100000Y-70880000D03*
%TD*%
D12*
%TO.C,D1*%
X125365000Y-63350000D03*
X126915000Y-63350000D03*
%TD*%
D10*
%TO.C,C6*%
X149140000Y-53450000D03*
X149140000Y-51900000D03*
%TD*%
D13*
%TO.C,X1*%
X145452500Y-70115000D03*
X143152500Y-70115000D03*
X143152500Y-71865000D03*
X145452500Y-71865000D03*
%TD*%
D14*
%TO.C,BOOTSEL*%
X139462500Y-40595000D03*
X131712500Y-40595000D03*
%TD*%
D11*
%TO.C,C13*%
X155470000Y-46420000D03*
X155470000Y-47970000D03*
%TD*%
D15*
%TO.C,C17*%
X128880000Y-65430000D03*
X128880000Y-67330000D03*
%TD*%
D16*
%TO.C,R2*%
X132087500Y-45270000D03*
X132087500Y-46920000D03*
%TD*%
%TO.C,R1*%
X130087500Y-45270000D03*
X130087500Y-46920000D03*
%TD*%
D11*
%TO.C,C15*%
X140952500Y-70340000D03*
X140952500Y-71890000D03*
%TD*%
D10*
%TO.C,C8*%
X161240000Y-54835000D03*
X161240000Y-53285000D03*
%TD*%
D14*
%TO.C,RESET*%
X165345000Y-47920000D03*
X157595000Y-47920000D03*
%TD*%
D17*
%TO.C,R6*%
X125370000Y-61640000D03*
X125370000Y-59990000D03*
%TD*%
D10*
%TO.C,C4*%
X142930000Y-57420000D03*
X142930000Y-55870000D03*
%TD*%
D11*
%TO.C,C2*%
X153340000Y-69310000D03*
X153340000Y-70860000D03*
%TD*%
D10*
%TO.C,C1*%
X144020000Y-46150000D03*
X144020000Y-44600000D03*
%TD*%
D18*
%TO.C,U1*%
X134412500Y-47595000D03*
X134412500Y-48865000D03*
X134412500Y-50135000D03*
X134412500Y-51405000D03*
X141587500Y-51405000D03*
X141587500Y-50135000D03*
X141587500Y-48865000D03*
X141587500Y-47595000D03*
%TD*%
D10*
%TO.C,C5*%
X141120000Y-57415000D03*
X141120000Y-55865000D03*
%TD*%
%TO.C,C14*%
X147507500Y-71720000D03*
X147507500Y-70170000D03*
%TD*%
D19*
%TO.C,U3*%
X152545000Y-44600000D03*
X152545000Y-43650000D03*
X152545000Y-42700000D03*
X150270000Y-42700000D03*
X150270000Y-43650000D03*
X150270000Y-44600000D03*
%TD*%
D10*
%TO.C,C11*%
X154980000Y-54830000D03*
X154980000Y-53280000D03*
%TD*%
D20*
%TO.C,C16*%
X133580000Y-55540000D03*
X131680000Y-55540000D03*
%TD*%
D10*
%TO.C,C10*%
X163110000Y-54855000D03*
X163110000Y-53305000D03*
%TD*%
D16*
%TO.C,R4*%
X152895000Y-52985000D03*
X152895000Y-54635000D03*
%TD*%
D17*
%TO.C,R5*%
X149287500Y-70930000D03*
X149287500Y-69280000D03*
%TD*%
D10*
%TO.C,C7*%
X147410000Y-53470000D03*
X147410000Y-51920000D03*
%TD*%
D21*
%TO.C,USB*%
X152355000Y-39205000D03*
X151705000Y-39205000D03*
X151055000Y-39205000D03*
X150405000Y-39205000D03*
X149755000Y-39205000D03*
%TD*%
D22*
%TO.C,U2*%
X149785000Y-61220000D03*
X149785000Y-62820000D03*
X151385000Y-61220000D03*
X151385000Y-62820000D03*
D23*
X147147500Y-59420000D03*
X147147500Y-59820000D03*
X147147500Y-60220000D03*
X147147500Y-60620000D03*
X147147500Y-61020000D03*
X147147500Y-61420000D03*
X147147500Y-61820000D03*
X147147500Y-62220000D03*
X147147500Y-62620000D03*
X147147500Y-63020000D03*
X147147500Y-63420000D03*
X147147500Y-63820000D03*
X147147500Y-64220000D03*
X147147500Y-64620000D03*
D24*
X147985000Y-65457500D03*
X148385000Y-65457500D03*
X148785000Y-65457500D03*
X149185000Y-65457500D03*
X149585000Y-65457500D03*
X149985000Y-65457500D03*
X150385000Y-65457500D03*
X150785000Y-65457500D03*
X151185000Y-65457500D03*
X151585000Y-65457500D03*
X151985000Y-65457500D03*
X152385000Y-65457500D03*
X152785000Y-65457500D03*
X153185000Y-65457500D03*
D23*
X154022500Y-64620000D03*
X154022500Y-64220000D03*
X154022500Y-63820000D03*
X154022500Y-63420000D03*
X154022500Y-63020000D03*
X154022500Y-62620000D03*
X154022500Y-62220000D03*
X154022500Y-61820000D03*
X154022500Y-61420000D03*
X154022500Y-61020000D03*
X154022500Y-60620000D03*
X154022500Y-60220000D03*
X154022500Y-59820000D03*
X154022500Y-59420000D03*
D24*
X153185000Y-58582500D03*
X152785000Y-58582500D03*
X152385000Y-58582500D03*
X151985000Y-58582500D03*
X151585000Y-58582500D03*
X151185000Y-58582500D03*
X150785000Y-58582500D03*
X150385000Y-58582500D03*
X149985000Y-58582500D03*
X149585000Y-58582500D03*
X149185000Y-58582500D03*
X148785000Y-58582500D03*
X148385000Y-58582500D03*
X147985000Y-58582500D03*
%TD*%
D16*
%TO.C,R3*%
X151220000Y-52985000D03*
X151220000Y-54635000D03*
%TD*%
D25*
%TO.C,U4*%
X135360000Y-63090000D03*
X135360000Y-60790000D03*
D26*
X129060000Y-60790000D03*
D25*
X135360000Y-58490000D03*
%TD*%
D10*
%TO.C,C12*%
X156780000Y-54770000D03*
X156780000Y-53220000D03*
%TD*%
M02*
