M48
; DRILL file {KiCad 9.0.0} date 2025-07-15T18:26:05+0200
; FORMAT={-:-/ absolute / metric / decimal}
; #@! TF.CreationDate,2025-07-15T18:26:05+02:00
; #@! TF.GenerationSoftware,Kicad,Pcbnew,9.0.0
; #@! TF.FileFunction,MixedPlating,1,4
FMAT,2
METRIC
; #@! TA.AperFunction,Plated,PTH,ViaDrill
T1C0.300
; #@! TA.AperFunction,Plated,PTH,ComponentDrill
T2C0.550
; #@! TA.AperFunction,Plated,PTH,ComponentDrill
T3C0.850
; #@! TA.AperFunction,Plated,PTH,ComponentDrill
T4C1.000
; #@! TA.AperFunction,NonPlated,NPTH,ComponentDrill
T5C0.800
; #@! TA.AperFunction,NonPlated,NPTH,ComponentDrill
T6C2.100
%
G90
G05
T1
X123.61Y-62.52
X123.79Y-60.55
X123.83Y-51.32
X123.96Y-58.47
X126.18Y-57.45
X126.71Y-59.99
X127.15Y-57.41
X127.425Y-67.325
X127.49Y-47.17
X130.28Y-55.54
X131.75Y-52.33
X132.76Y-51.405
X135.1Y-65.25
X137.12Y-50.13
X137.275Y-57.863
X137.34Y-58.66
X137.35Y-59.944
X137.59Y-63.37
X137.83Y-62.06
X137.86Y-60.56
X138.956Y-63.344
X139.27Y-53.4
X139.92Y-55.87
X140.96Y-40.6
X141.3Y-53.37
X142.77Y-44.57
X143.066Y-59.074
X143.225Y-52.505
X147.425Y-50.96
X147.517Y-72.91
X147.968Y-63.029
X148.14Y-60.21
X148.2Y-43.65
X148.795Y-59.52
X149.135Y-50.9
X149.53Y-61.08
X149.53Y-63.07
X149.54Y-62.02
X149.597Y-64.635
X149.77Y-41.19
X150.385Y-59.805
X150.49Y-64.49
X150.52Y-69.32
X150.56Y-61.14
X150.57Y-63.02
X150.585Y-62.02
X151.146Y-59.36
X151.59Y-61.15
X151.6Y-61.99
X151.6Y-63.02
X151.8Y-69.31
X152.24Y-64.13
X152.28Y-70.86
X152.426Y-59.982
X153.16Y-63.02
X153.18Y-59.3
X153.98Y-43.66
X154.26Y-46.44
X156.01Y-67.66
X156.79Y-52.11
X157.6Y-77.38
X157.63Y-56.31
X159.24Y-52.23
X162.02Y-71.96
X163.11Y-52.2
X167.12Y-47.92
T4
X117.66Y-38.8
X117.66Y-41.34
X117.66Y-43.88
X117.66Y-46.42
X117.66Y-48.96
X117.66Y-51.5
X117.66Y-54.04
X117.66Y-56.58
X117.66Y-59.12
X117.66Y-61.66
X117.66Y-64.2
X117.66Y-66.74
X117.66Y-69.28
X117.66Y-71.82
X117.66Y-74.36
X117.66Y-76.9
X117.66Y-79.44
X117.66Y-81.98
X120.2Y-38.8
X120.2Y-41.34
X120.2Y-43.88
X120.2Y-46.42
X120.2Y-48.96
X120.2Y-51.5
X120.2Y-54.04
X120.2Y-56.58
X120.2Y-59.12
X120.2Y-61.66
X120.2Y-64.2
X120.2Y-66.74
X120.2Y-69.28
X120.2Y-71.82
X120.2Y-74.36
X120.2Y-76.9
X120.2Y-79.44
X120.2Y-81.98
X150.005Y-77.34
X152.545Y-77.34
X155.085Y-77.34
X175.76Y-38.86
X175.76Y-41.4
X175.76Y-43.94
X175.76Y-46.48
X175.76Y-49.02
X175.76Y-51.56
X175.76Y-54.1
X175.76Y-56.64
X175.76Y-59.18
X175.76Y-61.72
X175.76Y-64.26
X175.76Y-66.8
X175.76Y-69.34
X175.76Y-71.88
X175.76Y-74.42
X175.76Y-76.96
X175.76Y-79.5
X175.76Y-82.04
X178.3Y-38.86
X178.3Y-41.4
X178.3Y-43.94
X178.3Y-46.48
X178.3Y-49.02
X178.3Y-51.56
X178.3Y-54.1
X178.3Y-56.64
X178.3Y-59.18
X178.3Y-61.72
X178.3Y-64.26
X178.3Y-66.8
X178.3Y-69.34
X178.3Y-71.88
X178.3Y-74.42
X178.3Y-76.96
X178.3Y-79.5
X178.3Y-82.04
T5
X148.555Y-38.105
X153.555Y-38.105
T6
X127.6Y-37.0
X127.6Y-83.9
X167.0Y-37.0
X167.0Y-83.9
T2
G00X147.18Y-35.68
M15
G01X147.18Y-35.03
M16
G05
G00X154.93Y-35.68
M15
G01X154.93Y-35.03
M16
G05
T3
G00X147.33Y-39.43
M15
G01X147.33Y-38.88
M16
G05
G00X154.78Y-39.43
M15
G01X154.78Y-38.88
M16
G05
M30
